<svg width="160" height="187" viewBox="0 0 160 187" fill="none" xmlns="http://www.w3.org/2000/svg">
<g clip-path="url(#clip0_3919_806)">
<path d="M0 12C0 5.37259 5.37258 0 12 0H148C154.627 0 160 5.37258 160 12V175C160 181.627 154.627 187 148 187H12C5.37258 187 0 181.627 0 175V12Z" fill="white"/>
<path d="M109.884 154.448C110.694 153.872 111.198 153.008 111.198 151.838C111.198 149.408 109.326 148.148 107.112 148.148C104.898 148.148 103.008 149.408 103.008 151.838C103.008 153.008 103.53 153.872 104.322 154.448C103.224 155.114 102.594 156.212 102.594 157.49C102.594 159.812 104.304 161.252 107.112 161.252C109.902 161.252 111.63 159.812 111.63 157.49C111.63 156.212 111 155.114 109.884 154.448ZM107.112 150.488C108.048 150.488 108.732 151.028 108.732 151.964C108.732 152.882 108.048 153.458 107.112 153.458C106.176 153.458 105.492 152.882 105.492 151.964C105.492 151.028 106.176 150.488 107.112 150.488ZM107.112 158.912C105.924 158.912 105.06 158.3 105.06 157.166C105.06 156.05 105.924 155.438 107.112 155.438C108.3 155.438 109.164 156.05 109.164 157.166C109.164 158.3 108.3 158.912 107.112 158.912Z" fill="#172B4D"/>
<path d="M122.594 156.554H121.244V153.566H118.742V156.554H115.466L119.642 148.4H116.978L112.784 156.554V158.858H118.742V161H121.244V158.858H122.594V156.554Z" fill="#172B4D"/>
<path d="M40.0101 158.13C41.3001 158.13 42.4401 157.47 43.0201 156.45L42.0201 155.88C41.6601 156.57 40.8901 157.01 40.0101 157.01C38.5001 157.01 37.5001 155.94 37.5001 154.5C37.5001 153.06 38.5001 151.99 40.0101 151.99C40.8901 151.99 41.6501 152.43 42.0201 153.12L43.0201 152.54C42.4301 151.52 41.2901 150.87 40.0101 150.87C37.8801 150.87 36.3501 152.47 36.3501 154.5C36.3501 156.53 37.8801 158.13 40.0101 158.13Z" fill="#8993A4"/>
<path d="M48.1255 151V153.87H45.1255V151H43.9755V158H45.1255V154.97H48.1255V158H49.2755V151H48.1255Z" fill="#8993A4"/>
<path d="M51.8247 156.9V155.01H54.6247V153.92H51.8247V152.1H54.8747V151H50.6747V158H54.9247V156.9H51.8247Z" fill="#8993A4"/>
<path d="M59.2288 158.13C60.5188 158.13 61.6588 157.47 62.2388 156.45L61.2388 155.88C60.8788 156.57 60.1088 157.01 59.2288 157.01C57.7188 157.01 56.7188 155.94 56.7188 154.5C56.7188 153.06 57.7188 151.99 59.2288 151.99C60.1088 151.99 60.8688 152.43 61.2388 153.12L62.2388 152.54C61.6488 151.52 60.5088 150.87 59.2288 150.87C57.0988 150.87 55.5688 152.47 55.5688 154.5C55.5688 156.53 57.0988 158.13 59.2288 158.13Z" fill="#8993A4"/>
<path d="M68.4742 158L65.5442 154.41L68.3742 151H67.0042L64.3442 154.14V151H63.1942V158H64.3442V154.67L67.1042 158H68.4742Z" fill="#8993A4"/>
<path d="M70.3696 156.9V155.01H73.1696V153.92H70.3696V152.1H73.4196V151H69.2196V158H73.4696V156.9H70.3696Z" fill="#8993A4"/>
<path d="M77.2724 151H74.5224V158H77.2724C79.2024 158 80.6224 156.45 80.6224 154.5C80.6224 152.54 79.2024 151 77.2724 151ZM77.2724 156.9H75.6724V152.1H77.2724C78.6024 152.1 79.5124 153.11 79.5124 154.5C79.5124 155.88 78.6024 156.9 77.2724 156.9Z" fill="#8993A4"/>
<path d="M84.1708 151V158H85.3208V151H84.1708Z" fill="#8993A4"/>
<path d="M90.9196 151V155.75L87.6196 151H86.7196V158H87.8696V153.25L91.1696 158H92.0696V151H90.9196Z" fill="#8993A4"/>
<path d="M73.4612 88.806H72.0212V85.53H69.9332V88.806H65.9911L70.3292 80.4H68.0791L63.7411 88.806V90.732H69.9332V93H72.0212V90.732H73.4612V88.806Z" fill="#00CFDE"/>
<path d="M82.777 84.468C82.777 81.93 80.941 80.166 78.331 80.166C75.721 80.166 73.867 81.93 73.867 84.468C73.867 87.006 75.721 88.77 78.331 88.77H78.547L75.667 93H78.043L82.021 87.006C82.507 86.304 82.777 85.44 82.777 84.468ZM75.937 84.468C75.937 83.028 76.963 82.128 78.331 82.128C79.699 82.128 80.707 83.028 80.707 84.468C80.707 85.908 79.699 86.808 78.331 86.808C76.963 86.808 75.937 85.89 75.937 84.468Z" fill="#00CFDE"/>
<path d="M87.0776 85.926C88.7696 85.926 90.0116 84.63 90.0116 83.046C90.0116 81.426 88.7516 80.166 87.0776 80.166C85.3856 80.166 84.1256 81.444 84.1256 83.046C84.1256 84.63 85.3856 85.926 87.0776 85.926ZM87.0596 84.342C86.3036 84.342 85.7816 83.766 85.7816 83.046C85.7816 82.308 86.3036 81.732 87.0596 81.732C87.8336 81.732 88.3556 82.308 88.3556 83.046C88.3556 83.748 87.8336 84.342 87.0596 84.342ZM85.1876 91.146L86.1596 91.722L94.4576 82.47L93.4856 81.912L85.1876 91.146ZM92.8376 93.216C94.5116 93.216 95.7716 91.92 95.7716 90.336C95.7716 88.734 94.5116 87.456 92.8376 87.456C91.1456 87.456 89.8856 88.734 89.8856 90.336C89.8856 91.92 91.1456 93.216 92.8376 93.216ZM92.8196 91.632C92.0636 91.632 91.5416 91.056 91.5416 90.336C91.5416 89.598 92.0636 89.022 92.8196 89.022C93.5936 89.022 94.1156 89.598 94.1156 90.336C94.1156 91.038 93.5936 91.632 92.8196 91.632Z" fill="#00CFDE"/>
<path opacity="0.5" fill-rule="evenodd" clip-rule="evenodd" d="M103.688 63.3119C90.6054 50.2294 69.3944 50.2294 56.3119 63.3119C43.2294 76.3944 43.2294 97.6054 56.3119 110.688C69.3944 123.77 90.6054 123.77 103.688 110.688C116.77 97.6054 116.77 76.3944 103.688 63.3119ZM52.7764 59.7764C67.8115 44.7412 92.1883 44.7412 107.223 59.7764C122.259 74.8115 122.259 99.1883 107.223 114.223C92.1883 129.259 67.8115 129.259 52.7764 114.223C37.7412 99.1883 37.7412 74.8115 52.7764 59.7764Z" fill="#A9EFF2"/>
<path fill-rule="evenodd" clip-rule="evenodd" d="M77.4997 51.0002C77.4997 49.6195 78.619 48.5002 79.9997 48.5002C86.331 48.5002 92.5647 50.0617 98.1484 53.0463C103.732 56.0308 108.494 60.3464 112.011 65.6107C115.529 70.8751 117.694 76.9256 118.314 83.2265C118.935 89.5274 117.992 95.884 115.569 101.733C113.146 107.583 109.318 112.744 104.424 116.761C99.5296 120.778 93.7203 123.525 87.5107 124.76C86.1565 125.03 84.8403 124.15 84.571 122.796C84.3016 121.442 85.181 120.126 86.5352 119.856C91.9384 118.782 96.9932 116.391 101.252 112.896C105.51 109.401 108.841 104.91 110.95 99.82C113.058 94.7303 113.878 89.1992 113.338 83.7166C112.798 78.234 110.915 72.9692 107.854 68.3886C104.793 63.808 100.65 60.0528 95.7914 57.4559C90.9329 54.8589 85.5088 53.5002 79.9997 53.5002C78.619 53.5002 77.4997 52.381 77.4997 51.0002Z" fill="#00CFDE"/>
<path d="M54.5247 28H55.7647L53.2347 21H51.8547L49.3147 28H50.5647L51.0547 26.59H54.0347L54.5247 28ZM51.4347 25.51L52.5447 22.35L53.6547 25.51H51.4347Z" fill="#42526E"/>
<path d="M61.5693 21H56.4693V22.1H58.4493V28H59.5993V22.1H61.5693V21Z" fill="#42526E"/>
<path d="M67.9697 21H62.8697V22.1H64.8497V28H65.9997V22.1H67.9697V21Z" fill="#42526E"/>
<path d="M70.9701 26.9V25.01H73.7701V23.92H70.9701V22.1H74.0201V21H69.8201V28H74.0701V26.9H70.9701Z" fill="#42526E"/>
<path d="M80.3229 21V25.75L77.0229 21H76.1229V28H77.2729V23.25L80.5729 28H81.4729V21H80.3229Z" fill="#42526E"/>
<path d="M86.6209 21H83.8709V28H86.6209C88.5509 28 89.9709 26.45 89.9709 24.5C89.9709 22.54 88.5509 21 86.6209 21ZM86.6209 26.9H85.0209V22.1H86.6209C87.9509 22.1 88.8609 23.11 88.8609 24.5C88.8609 25.88 87.9509 26.9 86.6209 26.9Z" fill="#42526E"/>
<path d="M93.1693 26.9V25.01H95.9693V23.92H93.1693V22.1H96.2193V21H92.0193V28H96.2693V26.9H93.1693Z" fill="#42526E"/>
<path d="M99.4721 26.9V25.01H102.272V23.92H99.4721V22.1H102.522V21H98.3221V28H102.572V26.9H99.4721Z" fill="#42526E"/>
<path d="M106.955 28.13C108.415 28.13 109.435 27.35 109.435 26.07C109.435 24.68 108.265 24.32 107.105 23.95C106.085 23.63 105.695 23.4 105.695 22.86C105.695 22.33 106.125 21.99 106.795 21.99C107.575 21.99 108.015 22.41 108.265 22.97L109.235 22.41C108.795 21.48 107.945 20.87 106.795 20.87C105.615 20.87 104.545 21.6 104.545 22.89C104.545 24.21 105.605 24.61 106.695 24.94C107.735 25.26 108.285 25.47 108.285 26.09C108.285 26.6 107.895 27.01 106.985 27.01C106.035 27.01 105.495 26.54 105.245 25.83L104.255 26.41C104.625 27.45 105.575 28.13 106.955 28.13Z" fill="#42526E"/>
</g>
<defs>
<clipPath id="clip0_3919_806">
<rect width="160" height="187" fill="white"/>
</clipPath>
</defs>
</svg>
