<svg width="200" height="227" viewBox="0 0 200 227" fill="none" xmlns="http://www.w3.org/2000/svg">
<g clip-path="url(#clip0_2554_575)" filter="url(#filter0_d_2554_575)">
<path d="M20 22C20 15.3726 25.3726 10 32 10H168C174.627 10 180 15.3726 180 22V185C180 191.627 174.627 197 168 197H32C25.3726 197 20 191.627 20 185V22Z" fill="white"/>
<path d="M129.884 164.448C130.694 163.872 131.198 163.008 131.198 161.838C131.198 159.408 129.326 158.148 127.112 158.148C124.898 158.148 123.008 159.408 123.008 161.838C123.008 163.008 123.53 163.872 124.322 164.448C123.224 165.114 122.594 166.212 122.594 167.49C122.594 169.812 124.304 171.252 127.112 171.252C129.902 171.252 131.63 169.812 131.63 167.49C131.63 166.212 131 165.114 129.884 164.448ZM127.112 160.488C128.048 160.488 128.732 161.028 128.732 161.964C128.732 162.882 128.048 163.458 127.112 163.458C126.176 163.458 125.492 162.882 125.492 161.964C125.492 161.028 126.176 160.488 127.112 160.488ZM127.112 168.912C125.924 168.912 125.06 168.3 125.06 167.166C125.06 166.05 125.924 165.438 127.112 165.438C128.3 165.438 129.164 166.05 129.164 167.166C129.164 168.3 128.3 168.912 127.112 168.912Z" fill="#172B4D"/>
<path d="M142.594 166.554H141.244V163.566H138.742V166.554H135.466L139.642 158.4H136.978L132.784 166.554V168.858H138.742V171H141.244V168.858H142.594V166.554Z" fill="#172B4D"/>
<path d="M60.0101 168.13C61.3001 168.13 62.4401 167.47 63.0201 166.45L62.0201 165.88C61.6601 166.57 60.8901 167.01 60.0101 167.01C58.5001 167.01 57.5001 165.94 57.5001 164.5C57.5001 163.06 58.5001 161.99 60.0101 161.99C60.8901 161.99 61.6501 162.43 62.0201 163.12L63.0201 162.54C62.4301 161.52 61.2901 160.87 60.0101 160.87C57.8801 160.87 56.3501 162.47 56.3501 164.5C56.3501 166.53 57.8801 168.13 60.0101 168.13Z" fill="#8993A4"/>
<path d="M68.1255 161V163.87H65.1255V161H63.9755V168H65.1255V164.97H68.1255V168H69.2755V161H68.1255Z" fill="#8993A4"/>
<path d="M71.8247 166.9V165.01H74.6247V163.92H71.8247V162.1H74.8747V161H70.6747V168H74.9247V166.9H71.8247Z" fill="#8993A4"/>
<path d="M79.2288 168.13C80.5188 168.13 81.6588 167.47 82.2388 166.45L81.2388 165.88C80.8788 166.57 80.1088 167.01 79.2288 167.01C77.7188 167.01 76.7188 165.94 76.7188 164.5C76.7188 163.06 77.7188 161.99 79.2288 161.99C80.1088 161.99 80.8688 162.43 81.2388 163.12L82.2388 162.54C81.6488 161.52 80.5088 160.87 79.2288 160.87C77.0988 160.87 75.5688 162.47 75.5688 164.5C75.5688 166.53 77.0988 168.13 79.2288 168.13Z" fill="#8993A4"/>
<path d="M88.4742 168L85.5442 164.41L88.3742 161H87.0042L84.3442 164.14V161H83.1942V168H84.3442V164.67L87.1042 168H88.4742Z" fill="#8993A4"/>
<path d="M90.3696 166.9V165.01H93.1696V163.92H90.3696V162.1H93.4196V161H89.2196V168H93.4696V166.9H90.3696Z" fill="#8993A4"/>
<path d="M97.2724 161H94.5224V168H97.2724C99.2024 168 100.622 166.45 100.622 164.5C100.622 162.54 99.2024 161 97.2724 161ZM97.2724 166.9H95.6724V162.1H97.2724C98.6024 162.1 99.5124 163.11 99.5124 164.5C99.5124 165.88 98.6024 166.9 97.2724 166.9Z" fill="#8993A4"/>
<path d="M104.171 161V168H105.321V161H104.171Z" fill="#8993A4"/>
<path d="M110.92 161V165.75L107.62 161H106.72V168H107.87V163.25L111.17 168H112.07V161H110.92Z" fill="#8993A4"/>
<path d="M93.4612 98.806H92.0212V95.53H89.9332V98.806H85.9912L90.3292 90.4H88.0792L83.7412 98.806V100.732H89.9332V103H92.0212V100.732H93.4612V98.806Z" fill="#00CFDE"/>
<path d="M102.777 94.468C102.777 91.93 100.941 90.166 98.3311 90.166C95.7211 90.166 93.8671 91.93 93.8671 94.468C93.8671 97.006 95.7211 98.77 98.3311 98.77H98.5471L95.6671 103H98.0431L102.021 97.006C102.507 96.304 102.777 95.44 102.777 94.468ZM95.9371 94.468C95.9371 93.028 96.9631 92.128 98.3311 92.128C99.6991 92.128 100.707 93.028 100.707 94.468C100.707 95.908 99.6991 96.808 98.3311 96.808C96.9631 96.808 95.9371 95.89 95.9371 94.468Z" fill="#00CFDE"/>
<path d="M107.078 95.926C108.77 95.926 110.012 94.63 110.012 93.046C110.012 91.426 108.752 90.166 107.078 90.166C105.386 90.166 104.126 91.444 104.126 93.046C104.126 94.63 105.386 95.926 107.078 95.926ZM107.06 94.342C106.304 94.342 105.782 93.766 105.782 93.046C105.782 92.308 106.304 91.732 107.06 91.732C107.834 91.732 108.356 92.308 108.356 93.046C108.356 93.748 107.834 94.342 107.06 94.342ZM105.188 101.146L106.16 101.722L114.458 92.47L113.486 91.912L105.188 101.146ZM112.838 103.216C114.512 103.216 115.772 101.92 115.772 100.336C115.772 98.734 114.512 97.456 112.838 97.456C111.146 97.456 109.886 98.734 109.886 100.336C109.886 101.92 111.146 103.216 112.838 103.216ZM112.82 101.632C112.064 101.632 111.542 101.056 111.542 100.336C111.542 99.598 112.064 99.022 112.82 99.022C113.594 99.022 114.116 99.598 114.116 100.336C114.116 101.038 113.594 101.632 112.82 101.632Z" fill="#00CFDE"/>
<path opacity="0.5" fill-rule="evenodd" clip-rule="evenodd" d="M123.688 73.3119C110.605 60.2294 89.3944 60.2294 76.3119 73.3119C63.2294 86.3944 63.2294 107.605 76.3119 120.688C89.3944 133.77 110.605 133.77 123.688 120.688C136.77 107.605 136.77 86.3944 123.688 73.3119ZM72.7764 69.7764C87.8115 54.7412 112.188 54.7412 127.223 69.7764C142.259 84.8115 142.259 109.188 127.223 124.223C112.188 139.259 87.8115 139.259 72.7764 124.223C57.7412 109.188 57.7412 84.8115 72.7764 69.7764Z" fill="#A9EFF2"/>
<path fill-rule="evenodd" clip-rule="evenodd" d="M97.4998 61.0002C97.4998 59.6195 98.619 58.5002 99.9998 58.5002C106.331 58.5002 112.565 60.0616 118.148 63.0462C123.732 66.0308 128.494 70.3464 132.011 75.6107C135.529 80.875 137.694 86.9256 138.314 93.2264C138.935 99.5273 137.992 105.884 135.569 111.733C133.146 117.583 129.318 122.744 124.424 126.761C119.53 130.777 113.72 133.525 107.511 134.76C106.157 135.03 104.84 134.15 104.571 132.796C104.302 131.442 105.181 130.126 106.535 129.856C111.938 128.782 116.993 126.391 121.252 122.896C125.51 119.401 128.841 114.91 130.95 109.82C133.058 104.73 133.878 99.1991 133.338 93.7165C132.798 88.234 130.915 82.9692 127.854 78.3885C124.793 73.8079 120.65 70.0528 115.792 67.4558C110.933 64.8588 105.509 63.5002 99.9998 63.5002C98.619 63.5002 97.4998 62.3809 97.4998 61.0002Z" fill="#00CFDE"/>
<path d="M74.5247 38H75.7647L73.2347 31H71.8547L69.3147 38H70.5647L71.0547 36.59H74.0347L74.5247 38ZM71.4347 35.51L72.5447 32.35L73.6547 35.51H71.4347Z" fill="#42526E"/>
<path d="M81.5694 31H76.4694V32.1H78.4494V38H79.5994V32.1H81.5694V31Z" fill="#42526E"/>
<path d="M87.9698 31H82.8698V32.1H84.8498V38H85.9998V32.1H87.9698V31Z" fill="#42526E"/>
<path d="M90.9702 36.9V35.01H93.7702V33.92H90.9702V32.1H94.0202V31H89.8202V38H94.0702V36.9H90.9702Z" fill="#42526E"/>
<path d="M100.323 31V35.75L97.0229 31H96.1229V38H97.2729V33.25L100.573 38H101.473V31H100.323Z" fill="#42526E"/>
<path d="M106.621 31H103.871V38H106.621C108.551 38 109.971 36.45 109.971 34.5C109.971 32.54 108.551 31 106.621 31ZM106.621 36.9H105.021V32.1H106.621C107.951 32.1 108.861 33.11 108.861 34.5C108.861 35.88 107.951 36.9 106.621 36.9Z" fill="#42526E"/>
<path d="M113.169 36.9V35.01H115.969V33.92H113.169V32.1H116.219V31H112.019V38H116.269V36.9H113.169Z" fill="#42526E"/>
<path d="M119.472 36.9V35.01H122.272V33.92H119.472V32.1H122.522V31H118.322V38H122.572V36.9H119.472Z" fill="#42526E"/>
<path d="M126.955 38.13C128.415 38.13 129.435 37.35 129.435 36.07C129.435 34.68 128.265 34.32 127.105 33.95C126.085 33.63 125.695 33.4 125.695 32.86C125.695 32.33 126.125 31.99 126.795 31.99C127.575 31.99 128.015 32.41 128.265 32.97L129.235 32.41C128.795 31.48 127.945 30.87 126.795 30.87C125.615 30.87 124.545 31.6 124.545 32.89C124.545 34.21 125.605 34.61 126.695 34.94C127.735 35.26 128.285 35.47 128.285 36.09C128.285 36.6 127.895 37.01 126.985 37.01C126.035 37.01 125.495 36.54 125.245 35.83L124.255 36.41C124.625 37.45 125.575 38.13 126.955 38.13Z" fill="#42526E"/>
</g>
<defs>
<filter id="filter0_d_2554_575" x="0" y="0" width="200" height="227" filterUnits="userSpaceOnUse" color-interpolation-filters="sRGB">
<feFlood flood-opacity="0" result="BackgroundImageFix"/>
<feColorMatrix in="SourceAlpha" type="matrix" values="0 0 0 0 0 0 0 0 0 0 0 0 0 0 0 0 0 0 127 0" result="hardAlpha"/>
<feOffset dy="10"/>
<feGaussianBlur stdDeviation="10"/>
<feColorMatrix type="matrix" values="0 0 0 0 0.109804 0 0 0 0 0.172549 0 0 0 0 0.25098 0 0 0 0.08 0"/>
<feBlend mode="normal" in2="BackgroundImageFix" result="effect1_dropShadow_2554_575"/>
<feBlend mode="normal" in="SourceGraphic" in2="effect1_dropShadow_2554_575" result="shape"/>
</filter>
<clipPath id="clip0_2554_575">
<rect width="160" height="187" fill="white" transform="translate(20 10)"/>
</clipPath>
</defs>
</svg>
