<svg width="192" height="206" viewBox="0 0 192 206" fill="none" xmlns="http://www.w3.org/2000/svg">
<g clip-path="url(#clip0_3919_754)">
<path d="M0 12C0 5.37259 5.37258 0 12 0H180C186.627 0 192 5.37258 192 12V194C192 200.627 186.627 206 180 206H12C5.37258 206 0 200.627 0 194V12Z" fill="white"/>
<path d="M16.648 57H27.88V53.808H21.568L24.856 50.52C26.44 48.936 27.616 47.184 27.616 45.144C27.616 41.784 24.952 39.864 22.072 39.864C19.792 39.864 17.608 41.016 16.528 43.416L19.312 45.048C19.864 43.848 20.824 43.08 22.12 43.08C23.392 43.08 24.304 43.92 24.304 45.264C24.304 46.392 23.464 47.496 22.384 48.624L16.648 54.528V57Z" fill="#172B4D"/>
<path d="M36.0756 57.336C40.3716 57.336 42.7956 53.784 42.7956 48.6C42.7956 43.416 40.3716 39.864 36.0756 39.864C31.8036 39.864 29.3556 43.416 29.3556 48.6C29.3556 53.784 31.8036 57.336 36.0756 57.336ZM36.0756 54.096C33.8196 54.096 32.6676 52.152 32.6676 48.6C32.6676 45.048 33.8196 43.08 36.0756 43.08C38.3316 43.08 39.5076 45.048 39.5076 48.6C39.5076 52.152 38.3316 54.096 36.0756 54.096Z" fill="#172B4D"/>
<path d="M51.4251 47.016L54.5691 42.936V40.2H44.0091V43.296H50.5851L47.2731 47.616L48.5451 49.536H49.2651C50.9931 49.536 51.9531 50.472 51.9531 51.816C51.9531 53.184 50.9931 54.096 49.2651 54.096C47.6811 54.096 46.7451 53.4 46.3371 52.152L43.5051 53.784C44.4651 56.184 46.7451 57.336 49.2651 57.336C52.4331 57.336 55.2651 55.416 55.2651 51.816C55.2651 49.344 53.6091 47.664 51.4251 47.016Z" fill="#172B4D"/>
<path d="M56.4918 57H67.7238V53.808H61.4118L64.6998 50.52C66.2838 48.936 67.4598 47.184 67.4598 45.144C67.4598 41.784 64.7958 39.864 61.9158 39.864C59.6358 39.864 57.4518 41.016 56.3718 43.416L59.1558 45.048C59.7078 43.848 60.6678 43.08 61.9638 43.08C63.2358 43.08 64.1478 43.92 64.1478 45.264C64.1478 46.392 63.3078 47.496 62.2278 48.624L56.4918 54.528V57Z" fill="#172B4D"/>
<path d="M21.23 22H16.18V22.88H18.24V29H19.16V22.88H21.23V22Z" fill="#42526E"/>
<path d="M23.5022 29.13C24.9622 29.13 26.1422 27.98 26.1422 26.5C26.1422 25.02 24.9622 23.87 23.5022 23.87C22.0422 23.87 20.8722 25.02 20.8722 26.5C20.8722 27.98 22.0422 29.13 23.5022 29.13ZM23.5022 28.28C22.5122 28.28 21.7422 27.51 21.7422 26.5C21.7422 25.49 22.5122 24.72 23.5022 24.72C24.5022 24.72 25.2722 25.49 25.2722 26.5C25.2722 27.51 24.5022 28.28 23.5022 28.28Z" fill="#42526E"/>
<path d="M29.7804 24.84V24H28.4504V22.6L27.5804 22.86V24H26.5904V24.84H27.5804V27.55C27.5804 28.8 28.2804 29.2 29.7804 29V28.22C28.8904 28.26 28.4504 28.31 28.4504 27.55V24.84H29.7804Z" fill="#42526E"/>
<path d="M34.6965 24V24.86C34.2965 24.25 33.6565 23.87 32.8065 23.87C31.4165 23.87 30.2765 25.02 30.2765 26.5C30.2765 27.98 31.4165 29.13 32.8065 29.13C33.6565 29.13 34.2965 28.75 34.6965 28.14V29H35.5665V24H34.6965ZM32.9165 28.29C31.9165 28.29 31.1465 27.52 31.1465 26.5C31.1465 25.48 31.9165 24.71 32.9165 24.71C33.9265 24.71 34.6965 25.48 34.6965 26.5C34.6965 27.52 33.9265 28.29 32.9165 28.29Z" fill="#42526E"/>
<path d="M36.8846 29H37.7546V21.7H36.8846V29Z" fill="#42526E"/>
<path d="M45.8219 29H46.8519L45.2019 26.2C46.0419 25.9 46.6519 25.09 46.6519 24.17C46.6519 22.97 45.6719 22 44.4719 22H41.6719V29H42.6019V26.32H44.2519L45.8219 29ZM42.6019 22.87H44.4719C45.1619 22.87 45.7219 23.45 45.7219 24.17C45.7219 24.89 45.1619 25.48 44.4719 25.48H42.6019V22.87Z" fill="#42526E"/>
<path d="M48.0512 26.9H52.2412C52.2612 26.77 52.2712 26.64 52.2712 26.51C52.2712 25.11 51.2912 23.87 49.7812 23.87C48.2212 23.87 47.1612 25.02 47.1612 26.5C47.1612 28 48.2312 29.13 49.8412 29.13C50.8412 29.13 51.6012 28.68 52.0412 28L51.3012 27.58C51.0512 27.99 50.5512 28.31 49.8612 28.31C48.9312 28.31 48.2212 27.8 48.0512 26.9ZM49.7812 24.69C50.5312 24.69 51.2412 25.15 51.3912 26.14H48.0512C48.1912 25.27 48.8412 24.69 49.7812 24.69Z" fill="#42526E"/>
<path d="M57.4116 24V24.86C57.0116 24.25 56.3716 23.87 55.5316 23.87C54.1116 23.87 52.9816 25.02 52.9816 26.47C52.9816 27.93 54.1116 29.08 55.5316 29.08C56.3716 29.08 57.0116 28.69 57.4116 28.08V28.79C57.4116 29.73 56.7816 30.32 55.7416 30.32C54.7616 30.32 54.3416 29.95 54.1116 29.48L53.3516 29.91C53.7616 30.7 54.6016 31.13 55.7216 31.13C57.0216 31.13 58.2716 30.35 58.2716 28.79V24H57.4116ZM55.6316 28.25C54.6216 28.25 53.8516 27.48 53.8516 26.47C53.8516 25.47 54.6216 24.7 55.6316 24.7C56.6416 24.7 57.4116 25.47 57.4116 26.47C57.4116 27.48 56.6416 28.25 55.6316 28.25Z" fill="#42526E"/>
<path d="M60.0297 23.09C60.3497 23.09 60.6097 22.83 60.6097 22.51C60.6097 22.19 60.3497 21.92 60.0297 21.92C59.6997 21.92 59.4397 22.19 59.4397 22.51C59.4397 22.83 59.6997 23.09 60.0297 23.09ZM59.5897 29H60.4597V24H59.5897V29Z" fill="#42526E"/>
<path d="M62.5272 25.35C62.5272 24.9 62.9672 24.68 63.4172 24.68C63.8572 24.68 64.2972 24.87 64.4872 25.32L65.2172 24.91C64.8972 24.26 64.2372 23.87 63.4172 23.87C62.4072 23.87 61.6472 24.48 61.6472 25.36C61.6472 27.17 64.4472 26.56 64.4472 27.63C64.4472 28.12 63.9872 28.31 63.4572 28.31C62.8372 28.31 62.3772 28.01 62.2172 27.53L61.4672 27.96C61.7572 28.65 62.4572 29.13 63.4572 29.13C64.5272 29.13 65.3272 28.56 65.3272 27.63C65.3272 25.79 62.5272 26.42 62.5272 25.35Z" fill="#42526E"/>
<path d="M68.8819 24.84V24H67.5519V22.6L66.6819 22.86V24H65.6919V24.84H66.6819V27.55C66.6819 28.8 67.3819 29.2 68.8819 29V28.22C67.9919 28.26 67.5519 28.31 67.5519 27.55V24.84H68.8819Z" fill="#42526E"/>
<path d="M70.8112 24.84V24H69.9412V29H70.8112V26.35C70.8112 25.17 71.6212 24.79 72.3712 24.82V23.91C71.7412 23.91 71.1312 24.14 70.8112 24.84Z" fill="#42526E"/>
<path d="M77.0891 24V24.86C76.6891 24.25 76.0491 23.87 75.1991 23.87C73.8091 23.87 72.6691 25.02 72.6691 26.5C72.6691 27.98 73.8091 29.13 75.1991 29.13C76.0491 29.13 76.6891 28.75 77.0891 28.14V29H77.9591V24H77.0891ZM75.3091 28.29C74.3091 28.29 73.5391 27.52 73.5391 26.5C73.5391 25.48 74.3091 24.71 75.3091 24.71C76.3191 24.71 77.0891 25.48 77.0891 26.5C77.0891 27.52 76.3191 28.29 75.3091 28.29Z" fill="#42526E"/>
<path d="M81.9972 24.84V24H80.6672V22.6L79.7972 22.86V24H78.8072V24.84H79.7972V27.55C79.7972 28.8 80.4972 29.2 81.9972 29V28.22C81.1072 28.26 80.6672 28.31 80.6672 27.55V24.84H81.9972Z" fill="#42526E"/>
<path d="M83.4672 23.09C83.7872 23.09 84.0472 22.83 84.0472 22.51C84.0472 22.19 83.7872 21.92 83.4672 21.92C83.1372 21.92 82.8772 22.19 82.8772 22.51C82.8772 22.83 83.1372 23.09 83.4672 23.09ZM83.0272 29H83.8972V24H83.0272V29Z" fill="#42526E"/>
<path d="M87.5744 29.13C89.0344 29.13 90.2144 27.98 90.2144 26.5C90.2144 25.02 89.0344 23.87 87.5744 23.87C86.1144 23.87 84.9444 25.02 84.9444 26.5C84.9444 27.98 86.1144 29.13 87.5744 29.13ZM87.5744 28.28C86.5844 28.28 85.8144 27.51 85.8144 26.5C85.8144 25.49 86.5844 24.72 87.5744 24.72C88.5744 24.72 89.3444 25.49 89.3444 26.5C89.3444 27.51 88.5744 28.28 87.5744 28.28Z" fill="#42526E"/>
<path d="M93.7301 23.87C93.0301 23.87 92.4801 24.13 92.1101 24.72V24H91.2401V29H92.1101V26.35C92.1101 25.17 92.7601 24.7 93.5601 24.7C94.3301 24.7 94.8001 25.16 94.8001 25.98V29H95.6701V25.93C95.6701 24.65 94.9001 23.87 93.7301 23.87Z" fill="#42526E"/>
<path d="M97.6346 25.35C97.6346 24.9 98.0746 24.68 98.5246 24.68C98.9646 24.68 99.4046 24.87 99.5946 25.32L100.325 24.91C100.005 24.26 99.3446 23.87 98.5246 23.87C97.5146 23.87 96.7546 24.48 96.7546 25.36C96.7546 27.17 99.5546 26.56 99.5546 27.63C99.5546 28.12 99.0946 28.31 98.5646 28.31C97.9446 28.31 97.4846 28.01 97.3246 27.53L96.5746 27.96C96.8646 28.65 97.5646 29.13 98.5646 29.13C99.6346 29.13 100.435 28.56 100.435 27.63C100.435 25.79 97.6346 26.42 97.6346 25.35Z" fill="#42526E"/>
<path fill-rule="evenodd" clip-rule="evenodd" d="M176 182H32V181H176V182Z" fill="#DFE1E6"/>
<path d="M20.504 182.136H19.864V180.68H18.936V182.136H17.184L19.112 178.4H18.112L16.184 182.136V182.992H18.936V184H19.864V182.992H20.504V182.136Z" fill="#A5ADBA"/>
<path d="M23.1606 184.104C24.5686 184.104 25.3606 182.928 25.3606 181.2C25.3606 179.472 24.5686 178.296 23.1606 178.296C21.7526 178.296 20.9606 179.472 20.9606 181.2C20.9606 182.928 21.7526 184.104 23.1606 184.104ZM23.1606 183.208C22.3366 183.208 21.8806 182.488 21.8806 181.2C21.8806 179.912 22.3366 179.192 23.1606 179.192C23.9926 179.192 24.4406 179.912 24.4406 181.2C24.4406 182.488 23.9926 183.208 23.1606 183.208Z" fill="#A5ADBA"/>
<path fill-rule="evenodd" clip-rule="evenodd" d="M176 152H32V151H176V152Z" fill="#DFE1E6"/>
<path d="M18.184 150.28H18.08L19.36 148.4H18.312L16.536 151.064C16.32 151.376 16.2 151.76 16.2 152.192C16.2 153.32 17.016 154.104 18.184 154.104C19.344 154.104 20.16 153.32 20.16 152.192C20.16 151.064 19.344 150.28 18.184 150.28ZM18.184 153.232C17.568 153.232 17.12 152.832 17.12 152.192C17.12 151.552 17.568 151.152 18.184 151.152C18.792 151.152 19.24 151.552 19.24 152.192C19.24 152.824 18.792 153.232 18.184 153.232Z" fill="#A5ADBA"/>
<path d="M22.8794 154.104C24.2874 154.104 25.0794 152.928 25.0794 151.2C25.0794 149.472 24.2874 148.296 22.8794 148.296C21.4714 148.296 20.6794 149.472 20.6794 151.2C20.6794 152.928 21.4714 154.104 22.8794 154.104ZM22.8794 153.208C22.0554 153.208 21.5994 152.488 21.5994 151.2C21.5994 149.912 22.0554 149.192 22.8794 149.192C23.7114 149.192 24.1594 149.912 24.1594 151.2C24.1594 152.488 23.7114 153.208 22.8794 153.208Z" fill="#A5ADBA"/>
<path fill-rule="evenodd" clip-rule="evenodd" d="M176 122H32V121H176V122Z" fill="#DFE1E6"/>
<path d="M19.384 121.088C19.768 120.84 20.024 120.44 20.024 119.904C20.024 118.824 19.176 118.296 18.248 118.296C17.312 118.296 16.472 118.824 16.472 119.904C16.472 120.44 16.728 120.84 17.104 121.088C16.592 121.376 16.28 121.864 16.28 122.448C16.28 123.488 17.08 124.104 18.248 124.104C19.416 124.104 20.208 123.488 20.208 122.448C20.208 121.856 19.904 121.376 19.384 121.088ZM18.248 119.168C18.712 119.168 19.104 119.424 19.104 119.944C19.104 120.44 18.712 120.72 18.248 120.72C17.776 120.72 17.392 120.44 17.392 119.944C17.392 119.424 17.776 119.168 18.248 119.168ZM18.248 123.232C17.64 123.232 17.2 122.928 17.2 122.36C17.2 121.784 17.64 121.488 18.248 121.488C18.848 121.488 19.288 121.784 19.288 122.36C19.288 122.928 18.848 123.232 18.248 123.232Z" fill="#A5ADBA"/>
<path d="M23.0044 124.104C24.4124 124.104 25.2044 122.928 25.2044 121.2C25.2044 119.472 24.4124 118.296 23.0044 118.296C21.5964 118.296 20.8044 119.472 20.8044 121.2C20.8044 122.928 21.5964 124.104 23.0044 124.104ZM23.0044 123.208C22.1804 123.208 21.7244 122.488 21.7244 121.2C21.7244 119.912 22.1804 119.192 23.0044 119.192C23.8364 119.192 24.2844 119.912 24.2844 121.2C24.2844 122.488 23.8364 123.208 23.0044 123.208Z" fill="#A5ADBA"/>
<path fill-rule="evenodd" clip-rule="evenodd" d="M176 92H32V91H176V92Z" fill="#DFE1E6"/>
<path d="M17.576 88.4L16.104 88.92L16.328 89.704L17.456 89.384V94H18.376V88.4H17.576Z" fill="#A5ADBA"/>
<path d="M21.4966 94.104C22.9046 94.104 23.6966 92.928 23.6966 91.2C23.6966 89.472 22.9046 88.296 21.4966 88.296C20.0886 88.296 19.2966 89.472 19.2966 91.2C19.2966 92.928 20.0886 94.104 21.4966 94.104ZM21.4966 93.208C20.6726 93.208 20.2166 92.488 20.2166 91.2C20.2166 89.912 20.6726 89.192 21.4966 89.192C22.3286 89.192 22.7766 89.912 22.7766 91.2C22.7766 92.488 22.3286 93.208 21.4966 93.208Z" fill="#A5ADBA"/>
<path d="M26.5356 94.104C27.9436 94.104 28.7356 92.928 28.7356 91.2C28.7356 89.472 27.9436 88.296 26.5356 88.296C25.1276 88.296 24.3356 89.472 24.3356 91.2C24.3356 92.928 25.1276 94.104 26.5356 94.104ZM26.5356 93.208C25.7116 93.208 25.2556 92.488 25.2556 91.2C25.2556 89.912 25.7116 89.192 26.5356 89.192C27.3676 89.192 27.8156 89.912 27.8156 91.2C27.8156 92.488 27.3676 93.208 26.5356 93.208Z" fill="#A5ADBA"/>
<path fill-rule="evenodd" clip-rule="evenodd" d="M149 92H157V182H149V92ZM109 96H101V182H109V96ZM77 109H69V182H77V109ZM53 137H61V182H53V137ZM37 166H45V182H37V166ZM85 130H93V182H85V130ZM117 144H125V182H117V144ZM141 156H133V182H141V156ZM173 122H165V182H173V122Z" fill="#FDAC42"/>
</g>
<defs>
<clipPath id="clip0_3919_754">
<rect width="192" height="206" fill="white"/>
</clipPath>
</defs>
</svg>
