<svg width="232" height="246" viewBox="0 0 232 246" fill="none" xmlns="http://www.w3.org/2000/svg">
<g clip-path="url(#clip0_2554_465)" filter="url(#filter0_d_2554_465)">
<path d="M20 22C20 15.3726 25.3726 10 32 10H200C206.627 10 212 15.3726 212 22V204C212 210.627 206.627 216 200 216H32C25.3726 216 20 210.627 20 204V22Z" fill="white"/>
<path d="M36.648 67H47.88V63.808H41.568L44.856 60.52C46.44 58.936 47.616 57.184 47.616 55.144C47.616 51.784 44.952 49.864 42.072 49.864C39.792 49.864 37.608 51.016 36.528 53.416L39.312 55.048C39.864 53.848 40.824 53.08 42.12 53.08C43.392 53.08 44.304 53.92 44.304 55.264C44.304 56.392 43.464 57.496 42.384 58.624L36.648 64.528V67Z" fill="#172B4D"/>
<path d="M56.0756 67.336C60.3716 67.336 62.7956 63.784 62.7956 58.6C62.7956 53.416 60.3716 49.864 56.0756 49.864C51.8036 49.864 49.3556 53.416 49.3556 58.6C49.3556 63.784 51.8036 67.336 56.0756 67.336ZM56.0756 64.096C53.8196 64.096 52.6676 62.152 52.6676 58.6C52.6676 55.048 53.8196 53.08 56.0756 53.08C58.3316 53.08 59.5076 55.048 59.5076 58.6C59.5076 62.152 58.3316 64.096 56.0756 64.096Z" fill="#172B4D"/>
<path d="M71.4251 57.016L74.5691 52.936V50.2H64.0091V53.296H70.5851L67.2731 57.616L68.5451 59.536H69.2651C70.9931 59.536 71.9531 60.472 71.9531 61.816C71.9531 63.184 70.9931 64.096 69.2651 64.096C67.6811 64.096 66.7451 63.4 66.3371 62.152L63.5051 63.784C64.4651 66.184 66.7451 67.336 69.2651 67.336C72.4331 67.336 75.2651 65.416 75.2651 61.816C75.2651 59.344 73.6091 57.664 71.4251 57.016Z" fill="#172B4D"/>
<path d="M76.4917 67H87.7237V63.808H81.4117L84.6997 60.52C86.2837 58.936 87.4597 57.184 87.4597 55.144C87.4597 51.784 84.7957 49.864 81.9157 49.864C79.6357 49.864 77.4517 51.016 76.3717 53.416L79.1557 55.048C79.7077 53.848 80.6677 53.08 81.9637 53.08C83.2357 53.08 84.1477 53.92 84.1477 55.264C84.1477 56.392 83.3077 57.496 82.2277 58.624L76.4917 64.528V67Z" fill="#172B4D"/>
<path d="M41.2301 32H36.1801V32.88H38.2401V39H39.1601V32.88H41.2301V32Z" fill="#42526E"/>
<path d="M43.5022 39.13C44.9622 39.13 46.1422 37.98 46.1422 36.5C46.1422 35.02 44.9622 33.87 43.5022 33.87C42.0422 33.87 40.8722 35.02 40.8722 36.5C40.8722 37.98 42.0422 39.13 43.5022 39.13ZM43.5022 38.28C42.5122 38.28 41.7422 37.51 41.7422 36.5C41.7422 35.49 42.5122 34.72 43.5022 34.72C44.5022 34.72 45.2722 35.49 45.2722 36.5C45.2722 37.51 44.5022 38.28 43.5022 38.28Z" fill="#42526E"/>
<path d="M49.7804 34.84V34H48.4504V32.6L47.5804 32.86V34H46.5904V34.84H47.5804V37.55C47.5804 38.8 48.2804 39.2 49.7804 39V38.22C48.8904 38.26 48.4504 38.31 48.4504 37.55V34.84H49.7804Z" fill="#42526E"/>
<path d="M54.6965 34V34.86C54.2965 34.25 53.6565 33.87 52.8065 33.87C51.4165 33.87 50.2765 35.02 50.2765 36.5C50.2765 37.98 51.4165 39.13 52.8065 39.13C53.6565 39.13 54.2965 38.75 54.6965 38.14V39H55.5665V34H54.6965ZM52.9165 38.29C51.9165 38.29 51.1465 37.52 51.1465 36.5C51.1465 35.48 51.9165 34.71 52.9165 34.71C53.9265 34.71 54.6965 35.48 54.6965 36.5C54.6965 37.52 53.9265 38.29 52.9165 38.29Z" fill="#42526E"/>
<path d="M56.8847 39H57.7547V31.7H56.8847V39Z" fill="#42526E"/>
<path d="M65.8219 39H66.8519L65.2019 36.2C66.0419 35.9 66.6519 35.09 66.6519 34.17C66.6519 32.97 65.6719 32 64.4719 32H61.6719V39H62.6019V36.32H64.2519L65.8219 39ZM62.6019 32.87H64.4719C65.1619 32.87 65.7219 33.45 65.7219 34.17C65.7219 34.89 65.1619 35.48 64.4719 35.48H62.6019V32.87Z" fill="#42526E"/>
<path d="M68.0513 36.9H72.2413C72.2613 36.77 72.2713 36.64 72.2713 36.51C72.2713 35.11 71.2913 33.87 69.7813 33.87C68.2213 33.87 67.1613 35.02 67.1613 36.5C67.1613 38 68.2313 39.13 69.8413 39.13C70.8413 39.13 71.6013 38.68 72.0413 38L71.3013 37.58C71.0513 37.99 70.5513 38.31 69.8613 38.31C68.9313 38.31 68.2213 37.8 68.0513 36.9ZM69.7813 34.69C70.5313 34.69 71.2413 35.15 71.3913 36.14H68.0513C68.1913 35.27 68.8413 34.69 69.7813 34.69Z" fill="#42526E"/>
<path d="M77.4116 34V34.86C77.0116 34.25 76.3716 33.87 75.5316 33.87C74.1116 33.87 72.9816 35.02 72.9816 36.47C72.9816 37.93 74.1116 39.08 75.5316 39.08C76.3716 39.08 77.0116 38.69 77.4116 38.08V38.79C77.4116 39.73 76.7816 40.32 75.7416 40.32C74.7616 40.32 74.3416 39.95 74.1116 39.48L73.3516 39.91C73.7616 40.7 74.6016 41.13 75.7216 41.13C77.0216 41.13 78.2716 40.35 78.2716 38.79V34H77.4116ZM75.6316 38.25C74.6216 38.25 73.8516 37.48 73.8516 36.47C73.8516 35.47 74.6216 34.7 75.6316 34.7C76.6416 34.7 77.4116 35.47 77.4116 36.47C77.4116 37.48 76.6416 38.25 75.6316 38.25Z" fill="#42526E"/>
<path d="M80.0297 33.09C80.3497 33.09 80.6097 32.83 80.6097 32.51C80.6097 32.19 80.3497 31.92 80.0297 31.92C79.6997 31.92 79.4397 32.19 79.4397 32.51C79.4397 32.83 79.6997 33.09 80.0297 33.09ZM79.5897 39H80.4597V34H79.5897V39Z" fill="#42526E"/>
<path d="M82.5272 35.35C82.5272 34.9 82.9672 34.68 83.4172 34.68C83.8572 34.68 84.2972 34.87 84.4872 35.32L85.2172 34.91C84.8972 34.26 84.2372 33.87 83.4172 33.87C82.4072 33.87 81.6472 34.48 81.6472 35.36C81.6472 37.17 84.4472 36.56 84.4472 37.63C84.4472 38.12 83.9872 38.31 83.4572 38.31C82.8372 38.31 82.3772 38.01 82.2172 37.53L81.4672 37.96C81.7572 38.65 82.4572 39.13 83.4572 39.13C84.5272 39.13 85.3272 38.56 85.3272 37.63C85.3272 35.79 82.5272 36.42 82.5272 35.35Z" fill="#42526E"/>
<path d="M88.882 34.84V34H87.552V32.6L86.682 32.86V34H85.692V34.84H86.682V37.55C86.682 38.8 87.382 39.2 88.882 39V38.22C87.992 38.26 87.552 38.31 87.552 37.55V34.84H88.882Z" fill="#42526E"/>
<path d="M90.8113 34.84V34H89.9413V39H90.8113V36.35C90.8113 35.17 91.6213 34.79 92.3713 34.82V33.91C91.7413 33.91 91.1313 34.14 90.8113 34.84Z" fill="#42526E"/>
<path d="M97.0891 34V34.86C96.6891 34.25 96.0491 33.87 95.1991 33.87C93.8091 33.87 92.6691 35.02 92.6691 36.5C92.6691 37.98 93.8091 39.13 95.1991 39.13C96.0491 39.13 96.6891 38.75 97.0891 38.14V39H97.9591V34H97.0891ZM95.3091 38.29C94.3091 38.29 93.5391 37.52 93.5391 36.5C93.5391 35.48 94.3091 34.71 95.3091 34.71C96.3191 34.71 97.0891 35.48 97.0891 36.5C97.0891 37.52 96.3191 38.29 95.3091 38.29Z" fill="#42526E"/>
<path d="M101.997 34.84V34H100.667V32.6L99.7972 32.86V34H98.8072V34.84H99.7972V37.55C99.7972 38.8 100.497 39.2 101.997 39V38.22C101.107 38.26 100.667 38.31 100.667 37.55V34.84H101.997Z" fill="#42526E"/>
<path d="M103.467 33.09C103.787 33.09 104.047 32.83 104.047 32.51C104.047 32.19 103.787 31.92 103.467 31.92C103.137 31.92 102.877 32.19 102.877 32.51C102.877 32.83 103.137 33.09 103.467 33.09ZM103.027 39H103.897V34H103.027V39Z" fill="#42526E"/>
<path d="M107.575 39.13C109.035 39.13 110.215 37.98 110.215 36.5C110.215 35.02 109.035 33.87 107.575 33.87C106.115 33.87 104.945 35.02 104.945 36.5C104.945 37.98 106.115 39.13 107.575 39.13ZM107.575 38.28C106.585 38.28 105.815 37.51 105.815 36.5C105.815 35.49 106.585 34.72 107.575 34.72C108.575 34.72 109.345 35.49 109.345 36.5C109.345 37.51 108.575 38.28 107.575 38.28Z" fill="#42526E"/>
<path d="M113.73 33.87C113.03 33.87 112.48 34.13 112.11 34.72V34H111.24V39H112.11V36.35C112.11 35.17 112.76 34.7 113.56 34.7C114.33 34.7 114.8 35.16 114.8 35.98V39H115.67V35.93C115.67 34.65 114.9 33.87 113.73 33.87Z" fill="#42526E"/>
<path d="M117.635 35.35C117.635 34.9 118.075 34.68 118.525 34.68C118.965 34.68 119.405 34.87 119.595 35.32L120.325 34.91C120.005 34.26 119.345 33.87 118.525 33.87C117.515 33.87 116.755 34.48 116.755 35.36C116.755 37.17 119.555 36.56 119.555 37.63C119.555 38.12 119.095 38.31 118.565 38.31C117.945 38.31 117.485 38.01 117.325 37.53L116.575 37.96C116.865 38.65 117.565 39.13 118.565 39.13C119.635 39.13 120.435 38.56 120.435 37.63C120.435 35.79 117.635 36.42 117.635 35.35Z" fill="#42526E"/>
<path fill-rule="evenodd" clip-rule="evenodd" d="M196 192H52V191H196V192Z" fill="#DFE1E6"/>
<path d="M40.504 192.136H39.864V190.68H38.936V192.136H37.184L39.112 188.4H38.112L36.184 192.136V192.992H38.936V194H39.864V192.992H40.504V192.136Z" fill="#A5ADBA"/>
<path d="M43.1606 194.104C44.5686 194.104 45.3606 192.928 45.3606 191.2C45.3606 189.472 44.5686 188.296 43.1606 188.296C41.7526 188.296 40.9606 189.472 40.9606 191.2C40.9606 192.928 41.7526 194.104 43.1606 194.104ZM43.1606 193.208C42.3366 193.208 41.8806 192.488 41.8806 191.2C41.8806 189.912 42.3366 189.192 43.1606 189.192C43.9926 189.192 44.4406 189.912 44.4406 191.2C44.4406 192.488 43.9926 193.208 43.1606 193.208Z" fill="#A5ADBA"/>
<path fill-rule="evenodd" clip-rule="evenodd" d="M196 162H52V161H196V162Z" fill="#DFE1E6"/>
<path d="M38.184 160.28H38.08L39.36 158.4H38.312L36.536 161.064C36.32 161.376 36.2 161.76 36.2 162.192C36.2 163.32 37.016 164.104 38.184 164.104C39.344 164.104 40.16 163.32 40.16 162.192C40.16 161.064 39.344 160.28 38.184 160.28ZM38.184 163.232C37.568 163.232 37.12 162.832 37.12 162.192C37.12 161.552 37.568 161.152 38.184 161.152C38.792 161.152 39.24 161.552 39.24 162.192C39.24 162.824 38.792 163.232 38.184 163.232Z" fill="#A5ADBA"/>
<path d="M42.8793 164.104C44.2873 164.104 45.0793 162.928 45.0793 161.2C45.0793 159.472 44.2873 158.296 42.8793 158.296C41.4713 158.296 40.6793 159.472 40.6793 161.2C40.6793 162.928 41.4713 164.104 42.8793 164.104ZM42.8793 163.208C42.0553 163.208 41.5993 162.488 41.5993 161.2C41.5993 159.912 42.0553 159.192 42.8793 159.192C43.7113 159.192 44.1593 159.912 44.1593 161.2C44.1593 162.488 43.7113 163.208 42.8793 163.208Z" fill="#A5ADBA"/>
<path fill-rule="evenodd" clip-rule="evenodd" d="M196 132H52V131H196V132Z" fill="#DFE1E6"/>
<path d="M39.384 131.088C39.768 130.84 40.024 130.44 40.024 129.904C40.024 128.824 39.176 128.296 38.248 128.296C37.312 128.296 36.472 128.824 36.472 129.904C36.472 130.44 36.728 130.84 37.104 131.088C36.592 131.376 36.28 131.864 36.28 132.448C36.28 133.488 37.08 134.104 38.248 134.104C39.416 134.104 40.208 133.488 40.208 132.448C40.208 131.856 39.904 131.376 39.384 131.088ZM38.248 129.168C38.712 129.168 39.104 129.424 39.104 129.944C39.104 130.44 38.712 130.72 38.248 130.72C37.776 130.72 37.392 130.44 37.392 129.944C37.392 129.424 37.776 129.168 38.248 129.168ZM38.248 133.232C37.64 133.232 37.2 132.928 37.2 132.36C37.2 131.784 37.64 131.488 38.248 131.488C38.848 131.488 39.288 131.784 39.288 132.36C39.288 132.928 38.848 133.232 38.248 133.232Z" fill="#A5ADBA"/>
<path d="M43.0044 134.104C44.4124 134.104 45.2044 132.928 45.2044 131.2C45.2044 129.472 44.4124 128.296 43.0044 128.296C41.5964 128.296 40.8044 129.472 40.8044 131.2C40.8044 132.928 41.5964 134.104 43.0044 134.104ZM43.0044 133.208C42.1804 133.208 41.7244 132.488 41.7244 131.2C41.7244 129.912 42.1804 129.192 43.0044 129.192C43.8364 129.192 44.2844 129.912 44.2844 131.2C44.2844 132.488 43.8364 133.208 43.0044 133.208Z" fill="#A5ADBA"/>
<path fill-rule="evenodd" clip-rule="evenodd" d="M196 102H52V101H196V102Z" fill="#DFE1E6"/>
<path d="M37.576 98.4L36.104 98.92L36.328 99.704L37.456 99.384V104H38.376V98.4H37.576Z" fill="#A5ADBA"/>
<path d="M41.4966 104.104C42.9046 104.104 43.6966 102.928 43.6966 101.2C43.6966 99.472 42.9046 98.296 41.4966 98.296C40.0886 98.296 39.2966 99.472 39.2966 101.2C39.2966 102.928 40.0886 104.104 41.4966 104.104ZM41.4966 103.208C40.6726 103.208 40.2166 102.488 40.2166 101.2C40.2166 99.912 40.6726 99.192 41.4966 99.192C42.3286 99.192 42.7766 99.912 42.7766 101.2C42.7766 102.488 42.3286 103.208 41.4966 103.208Z" fill="#A5ADBA"/>
<path d="M46.5356 104.104C47.9436 104.104 48.7356 102.928 48.7356 101.2C48.7356 99.472 47.9436 98.296 46.5356 98.296C45.1276 98.296 44.3356 99.472 44.3356 101.2C44.3356 102.928 45.1276 104.104 46.5356 104.104ZM46.5356 103.208C45.7116 103.208 45.2556 102.488 45.2556 101.2C45.2556 99.912 45.7116 99.192 46.5356 99.192C47.3676 99.192 47.8156 99.912 47.8156 101.2C47.8156 102.488 47.3676 103.208 46.5356 103.208Z" fill="#A5ADBA"/>
<path fill-rule="evenodd" clip-rule="evenodd" d="M169 102H177V192H169V102ZM129 106H121V192H129V106ZM97 119H89V192H97V119ZM73 147H81V192H73V147ZM57 176H65V192H57V176ZM105 140H113V192H105V140ZM137 154H145V192H137V154ZM161 166H153V192H161V166ZM193 132H185V192H193V132Z" fill="#FDAC42"/>
</g>
<defs>
<filter id="filter0_d_2554_465" x="0" y="0" width="232" height="246" filterUnits="userSpaceOnUse" color-interpolation-filters="sRGB">
<feFlood flood-opacity="0" result="BackgroundImageFix"/>
<feColorMatrix in="SourceAlpha" type="matrix" values="0 0 0 0 0 0 0 0 0 0 0 0 0 0 0 0 0 0 127 0" result="hardAlpha"/>
<feOffset dy="10"/>
<feGaussianBlur stdDeviation="10"/>
<feColorMatrix type="matrix" values="0 0 0 0 0.109804 0 0 0 0 0.172549 0 0 0 0 0.25098 0 0 0 0.08 0"/>
<feBlend mode="normal" in2="BackgroundImageFix" result="effect1_dropShadow_2554_465"/>
<feBlend mode="normal" in="SourceGraphic" in2="effect1_dropShadow_2554_465" result="shape"/>
</filter>
<clipPath id="clip0_2554_465">
<rect width="192" height="206" fill="white" transform="translate(20 10)"/>
</clipPath>
</defs>
</svg>
