<svg width="232" height="132" viewBox="0 0 232 132" fill="none" xmlns="http://www.w3.org/2000/svg">
<g filter="url(#filter0_d_2554_458)">
<path d="M20 22C20 15.3726 25.3726 10 32 10H200C206.627 10 212 15.3726 212 22V90C212 96.6274 206.627 102 200 102H32C25.3726 102 20 96.6274 20 90V22Z" fill="white"/>
<path fill-rule="evenodd" clip-rule="evenodd" d="M132.5 24C132.776 24 133 24.2239 133 24.5V24.9846C133 25.2608 132.776 25.4846 132.5 25.4846C132.224 25.4846 132 25.2608 132 24.9846V24.5C132 24.2239 132.224 24 132.5 24ZM132.5 28.3615C132.776 28.3615 133 28.5854 133 28.8615V29.8308C133 30.1069 132.776 30.3308 132.5 30.3308C132.224 30.3308 132 30.1069 132 29.8308V28.8615C132 28.5854 132.224 28.3615 132.5 28.3615ZM132.5 33.2077C132.776 33.2077 133 33.4315 133 33.7077V34.6769C133 34.9531 132.776 35.1769 132.5 35.1769C132.224 35.1769 132 34.9531 132 34.6769V33.7077C132 33.4315 132.224 33.2077 132.5 33.2077ZM132.5 38.0538C132.776 38.0538 133 38.2777 133 38.5538V39.5231C133 39.7992 132.776 40.0231 132.5 40.0231C132.224 40.0231 132 39.7992 132 39.5231V38.5538C132 38.2777 132.224 38.0538 132.5 38.0538ZM132.5 42.9C132.776 42.9 133 43.1239 133 43.4V44.3692C133 44.6454 132.776 44.8692 132.5 44.8692C132.224 44.8692 132 44.6454 132 44.3692V43.4C132 43.1239 132.224 42.9 132.5 42.9ZM132.5 47.7462C132.776 47.7462 133 47.97 133 48.2462V49.2154C133 49.4915 132.776 49.7154 132.5 49.7154C132.224 49.7154 132 49.4915 132 49.2154V48.2462C132 47.97 132.224 47.7462 132.5 47.7462ZM132.5 52.5923C132.776 52.5923 133 52.8162 133 53.0923V54.0615C133 54.3377 132.776 54.5615 132.5 54.5615C132.224 54.5615 132 54.3377 132 54.0615V53.0923C132 52.8162 132.224 52.5923 132.5 52.5923ZM132.5 57.4385C132.776 57.4385 133 57.6623 133 57.9385V58.9077C133 59.1838 132.776 59.4077 132.5 59.4077C132.224 59.4077 132 59.1838 132 58.9077V57.9385C132 57.6623 132.224 57.4385 132.5 57.4385ZM132.5 62.2846C132.776 62.2846 133 62.5085 133 62.7846V63.7538C133 64.03 132.776 64.2538 132.5 64.2538C132.224 64.2538 132 64.03 132 63.7538V62.7846C132 62.5085 132.224 62.2846 132.5 62.2846ZM132.5 67.1308C132.776 67.1308 133 67.3546 133 67.6308V68.6C133 68.8761 132.776 69.1 132.5 69.1C132.224 69.1 132 68.8761 132 68.6V67.6308C132 67.3546 132.224 67.1308 132.5 67.1308ZM132.5 71.9769C132.776 71.9769 133 72.2008 133 72.4769V73.4462C133 73.7223 132.776 73.9462 132.5 73.9462C132.224 73.9462 132 73.7223 132 73.4462V72.4769C132 72.2008 132.224 71.9769 132.5 71.9769ZM132.5 76.8231C132.776 76.8231 133 77.0469 133 77.3231V78.2923C133 78.5684 132.776 78.7923 132.5 78.7923C132.224 78.7923 132 78.5684 132 78.2923V77.3231C132 77.0469 132.224 76.8231 132.5 76.8231ZM132.5 81.6692C132.776 81.6692 133 81.8931 133 82.1692V83.1385C133 83.4146 132.776 83.6385 132.5 83.6385C132.224 83.6385 132 83.4146 132 83.1385V82.1692C132 81.8931 132.224 81.6692 132.5 81.6692ZM132.5 86.5154C132.776 86.5154 133 86.7392 133 87.0154V87.5C133 87.7761 132.776 88 132.5 88C132.224 88 132 87.7761 132 87.5V87.0154C132 86.7392 132.224 86.5154 132.5 86.5154Z" fill="#C1C7D0"/>
<path d="M40.68 57.2L36.264 58.76L37.08 61.592L40.248 60.704V74H43.56V57.2H40.68Z" fill="#172B4D"/>
<path d="M45.9293 74H57.1613V70.808H50.8493L54.1373 67.52C55.7213 65.936 56.8973 64.184 56.8973 62.144C56.8973 58.784 54.2333 56.864 51.3533 56.864C49.0733 56.864 46.8893 58.016 45.8093 60.416L48.5933 62.048C49.1453 60.848 50.1053 60.08 51.4013 60.08C52.6733 60.08 53.5853 60.92 53.5853 62.264C53.5853 63.392 52.7453 64.496 51.6653 65.624L45.9293 71.528V74Z" fill="#172B4D"/>
<path d="M65.3569 74.336C69.6529 74.336 72.0769 70.784 72.0769 65.6C72.0769 60.416 69.6529 56.864 65.3569 56.864C61.0849 56.864 58.6369 60.416 58.6369 65.6C58.6369 70.784 61.0849 74.336 65.3569 74.336ZM65.3569 71.096C63.1009 71.096 61.9489 69.152 61.9489 65.6C61.9489 62.048 63.1009 60.08 65.3569 60.08C67.6129 60.08 68.7889 62.048 68.7889 65.6C68.7889 69.152 67.6129 71.096 65.3569 71.096Z" fill="#172B4D"/>
<path d="M80.7064 64.016L83.8504 59.936V57.2H73.2904V60.296H79.8664L76.5544 64.616L77.8264 66.536H78.5464C80.2744 66.536 81.2344 67.472 81.2344 68.816C81.2344 70.184 80.2744 71.096 78.5464 71.096C76.9624 71.096 76.0264 70.4 75.6184 69.152L72.7864 70.784C73.7464 73.184 76.0264 74.336 78.5464 74.336C81.7144 74.336 84.5464 72.416 84.5464 68.816C84.5464 66.344 82.8904 64.664 80.7064 64.016Z" fill="#172B4D"/>
<path d="M39.28 32H36.7V39H37.85V36.6H39.28C40.6 36.6 41.6 35.59 41.6 34.3C41.6 33 40.6 32 39.28 32ZM39.28 35.52H37.85V33.08H39.28C39.96 33.08 40.45 33.59 40.45 34.3C40.45 35 39.96 35.52 39.28 35.52Z" fill="#8993A4"/>
<path d="M46.5884 39H47.8484L46.2584 36.28C47.0784 35.95 47.6484 35.15 47.6484 34.25C47.6484 33 46.6484 32 45.3984 32H42.5984V39H43.7484V36.45H45.1084L46.5884 39ZM43.7484 33.08H45.3984C46.0084 33.08 46.4984 33.59 46.4984 34.25C46.4984 34.9 46.0084 35.42 45.3984 35.42H43.7484V33.08Z" fill="#8993A4"/>
<path d="M49.8812 37.9V36.01H52.6812V34.92H49.8812V33.1H52.9312V32H48.7312V39H52.9812V37.9H49.8812Z" fill="#8993A4"/>
<path d="M54.0339 36.48H57.7339V35.44H54.0339V36.48Z" fill="#8993A4"/>
<path d="M63.1216 39H64.3816L62.7916 36.28C63.6116 35.95 64.1816 35.15 64.1816 34.25C64.1816 33 63.1816 32 61.9316 32H59.1316V39H60.2816V36.45H61.6416L63.1216 39ZM60.2816 33.08H61.9316C62.5416 33.08 63.0316 33.59 63.0316 34.25C63.0316 34.9 62.5416 35.42 61.9316 35.42H60.2816V33.08Z" fill="#8993A4"/>
<path d="M66.4144 37.9V36.01H69.2144V34.92H66.4144V33.1H69.4644V32H65.2644V39H69.5144V37.9H66.4144Z" fill="#8993A4"/>
<path d="M77.3185 35.38H73.8185V36.41H76.1585C75.9485 37.35 75.1685 38.01 73.8985 38.01C72.3285 38.01 71.3085 36.92 71.3085 35.51C71.3085 34.08 72.3485 32.99 73.8285 32.99C74.7485 32.99 75.5285 33.45 75.8885 34.1L76.8785 33.53C76.2885 32.54 75.1585 31.87 73.8285 31.87C71.7285 31.87 70.1585 33.49 70.1585 35.5C70.1585 37.51 71.7085 39.13 73.8885 39.13C75.9385 39.13 77.3185 37.77 77.3185 35.86V35.38Z" fill="#8993A4"/>
<path d="M78.3699 32V39H79.5199V32H78.3699Z" fill="#8993A4"/>
<path d="M83.151 39.13C84.611 39.13 85.631 38.35 85.631 37.07C85.631 35.68 84.461 35.32 83.301 34.95C82.281 34.63 81.891 34.4 81.891 33.86C81.891 33.33 82.321 32.99 82.991 32.99C83.771 32.99 84.211 33.41 84.461 33.97L85.431 33.41C84.991 32.48 84.141 31.87 82.991 31.87C81.811 31.87 80.741 32.6 80.741 33.89C80.741 35.21 81.801 35.61 82.891 35.94C83.931 36.26 84.481 36.47 84.481 37.09C84.481 37.6 84.091 38.01 83.181 38.01C82.231 38.01 81.691 37.54 81.441 36.83L80.451 37.41C80.821 38.45 81.771 39.13 83.151 39.13Z" fill="#8993A4"/>
<path d="M90.9179 32H85.8179V33.1H87.7979V39H88.9479V33.1H90.9179V32Z" fill="#8993A4"/>
<path d="M92.9183 37.9V36.01H95.7183V34.92H92.9183V33.1H95.9683V32H91.7683V39H96.0183V37.9H92.9183Z" fill="#8993A4"/>
<path d="M101.061 39H102.321L100.731 36.28C101.551 35.95 102.121 35.15 102.121 34.25C102.121 33 101.121 32 99.871 32H97.071V39H98.221V36.45H99.581L101.061 39ZM98.221 33.08H99.871C100.481 33.08 100.971 33.59 100.971 34.25C100.971 34.9 100.481 35.42 99.871 35.42H98.221V33.08Z" fill="#8993A4"/>
<path d="M104.354 37.9V36.01H107.154V34.92H104.354V33.1H107.404V32H103.204V39H107.454V37.9H104.354Z" fill="#8993A4"/>
<path d="M111.257 32H108.507V39H111.257C113.187 39 114.607 37.45 114.607 35.5C114.607 33.54 113.187 32 111.257 32ZM111.257 37.9H109.657V33.1H111.257C112.587 33.1 113.497 34.11 113.497 35.5C113.497 36.88 112.587 37.9 111.257 37.9Z" fill="#8993A4"/>
<path d="M152.68 57.2L148.264 58.76L149.08 61.592L152.248 60.704V74H155.56V57.2H152.68Z" fill="#172B4D"/>
<path d="M161.961 57.2L157.545 58.76L158.361 61.592L161.529 60.704V74H164.841V57.2H161.961Z" fill="#172B4D"/>
<path d="M167.21 74H178.442V70.808H172.13L175.418 67.52C177.002 65.936 178.178 64.184 178.178 62.144C178.178 58.784 175.514 56.864 172.634 56.864C170.354 56.864 168.17 58.016 167.09 60.416L169.874 62.048C170.426 60.848 171.386 60.08 172.682 60.08C173.954 60.08 174.866 60.92 174.866 62.264C174.866 63.392 174.026 64.496 172.946 65.624L167.21 71.528V74Z" fill="#172B4D"/>
<path d="M151.98 39.13C154.01 39.13 155.61 37.53 155.61 35.5C155.61 33.47 154.01 31.87 151.98 31.87C149.96 31.87 148.35 33.47 148.35 35.5C148.35 37.53 149.96 39.13 151.98 39.13ZM151.98 38.01C150.58 38.01 149.5 36.94 149.5 35.5C149.5 34.06 150.58 32.99 151.98 32.99C153.38 32.99 154.46 34.06 154.46 35.5C154.46 36.94 153.38 38.01 151.98 38.01Z" fill="#8993A4"/>
<path d="M160.859 32V36.75L157.559 32H156.659V39H157.809V34.25L161.109 39H162.009V32H160.859Z" fill="#8993A4"/>
<path d="M165.639 39.13C167.099 39.13 168.119 38.35 168.119 37.07C168.119 35.68 166.949 35.32 165.789 34.95C164.769 34.63 164.379 34.4 164.379 33.86C164.379 33.33 164.809 32.99 165.479 32.99C166.259 32.99 166.699 33.41 166.949 33.97L167.919 33.41C167.479 32.48 166.629 31.87 165.479 31.87C164.299 31.87 163.229 32.6 163.229 33.89C163.229 35.21 164.289 35.61 165.379 35.94C166.419 36.26 166.969 36.47 166.969 37.09C166.969 37.6 166.579 38.01 165.669 38.01C164.719 38.01 164.179 37.54 163.929 36.83L162.939 37.41C163.309 38.45 164.259 39.13 165.639 39.13Z" fill="#8993A4"/>
<path d="M171.641 32H169.061V39H170.211V36.6H171.641C172.961 36.6 173.961 35.59 173.961 34.3C173.961 33 172.961 32 171.641 32ZM171.641 35.52H170.211V33.08H171.641C172.321 33.08 172.811 33.59 172.811 34.3C172.811 35 172.321 35.52 171.641 35.52Z" fill="#8993A4"/>
<path d="M178.181 39.13C180.211 39.13 181.811 37.53 181.811 35.5C181.811 33.47 180.211 31.87 178.181 31.87C176.161 31.87 174.551 33.47 174.551 35.5C174.551 37.53 176.161 39.13 178.181 39.13ZM178.181 38.01C176.781 38.01 175.701 36.94 175.701 35.5C175.701 34.06 176.781 32.99 178.181 32.99C179.581 32.99 180.661 34.06 180.661 35.5C180.661 36.94 179.581 38.01 178.181 38.01Z" fill="#8993A4"/>
<path d="M187.01 32H181.91V33.1H183.89V39H185.04V33.1H187.01V32Z" fill="#8993A4"/>
</g>
<defs>
<filter id="filter0_d_2554_458" x="0" y="0" width="232" height="132" filterUnits="userSpaceOnUse" color-interpolation-filters="sRGB">
<feFlood flood-opacity="0" result="BackgroundImageFix"/>
<feColorMatrix in="SourceAlpha" type="matrix" values="0 0 0 0 0 0 0 0 0 0 0 0 0 0 0 0 0 0 127 0" result="hardAlpha"/>
<feOffset dy="10"/>
<feGaussianBlur stdDeviation="10"/>
<feColorMatrix type="matrix" values="0 0 0 0 0.109804 0 0 0 0 0.172549 0 0 0 0 0.25098 0 0 0 0.08 0"/>
<feBlend mode="normal" in2="BackgroundImageFix" result="effect1_dropShadow_2554_458"/>
<feBlend mode="normal" in="SourceGraphic" in2="effect1_dropShadow_2554_458" result="shape"/>
</filter>
</defs>
</svg>
