<svg width="192" height="92" viewBox="0 0 192 92" fill="none" xmlns="http://www.w3.org/2000/svg">
<path d="M0 12C0 5.37259 5.37258 0 12 0H180C186.627 0 192 5.37258 192 12V80C192 86.6274 186.627 92 180 92H12C5.37258 92 0 86.6274 0 80V12Z" fill="white"/>
<path fill-rule="evenodd" clip-rule="evenodd" d="M112.5 14C112.776 14 113 14.2239 113 14.5V14.9846C113 15.2608 112.776 15.4846 112.5 15.4846C112.224 15.4846 112 15.2608 112 14.9846V14.5C112 14.2239 112.224 14 112.5 14ZM112.5 18.3615C112.776 18.3615 113 18.5854 113 18.8615V19.8308C113 20.1069 112.776 20.3308 112.5 20.3308C112.224 20.3308 112 20.1069 112 19.8308V18.8615C112 18.5854 112.224 18.3615 112.5 18.3615ZM112.5 23.2077C112.776 23.2077 113 23.4315 113 23.7077V24.6769C113 24.9531 112.776 25.1769 112.5 25.1769C112.224 25.1769 112 24.9531 112 24.6769V23.7077C112 23.4315 112.224 23.2077 112.5 23.2077ZM112.5 28.0538C112.776 28.0538 113 28.2777 113 28.5538V29.5231C113 29.7992 112.776 30.0231 112.5 30.0231C112.224 30.0231 112 29.7992 112 29.5231V28.5538C112 28.2777 112.224 28.0538 112.5 28.0538ZM112.5 32.9C112.776 32.9 113 33.1239 113 33.4V34.3692C113 34.6454 112.776 34.8692 112.5 34.8692C112.224 34.8692 112 34.6454 112 34.3692V33.4C112 33.1239 112.224 32.9 112.5 32.9ZM112.5 37.7462C112.776 37.7462 113 37.97 113 38.2462V39.2154C113 39.4915 112.776 39.7154 112.5 39.7154C112.224 39.7154 112 39.4915 112 39.2154V38.2462C112 37.97 112.224 37.7462 112.5 37.7462ZM112.5 42.5923C112.776 42.5923 113 42.8162 113 43.0923V44.0615C113 44.3377 112.776 44.5615 112.5 44.5615C112.224 44.5615 112 44.3377 112 44.0615V43.0923C112 42.8162 112.224 42.5923 112.5 42.5923ZM112.5 47.4385C112.776 47.4385 113 47.6623 113 47.9385V48.9077C113 49.1838 112.776 49.4077 112.5 49.4077C112.224 49.4077 112 49.1838 112 48.9077V47.9385C112 47.6623 112.224 47.4385 112.5 47.4385ZM112.5 52.2846C112.776 52.2846 113 52.5085 113 52.7846V53.7538C113 54.03 112.776 54.2538 112.5 54.2538C112.224 54.2538 112 54.03 112 53.7538V52.7846C112 52.5085 112.224 52.2846 112.5 52.2846ZM112.5 57.1308C112.776 57.1308 113 57.3546 113 57.6308V58.6C113 58.8761 112.776 59.1 112.5 59.1C112.224 59.1 112 58.8761 112 58.6V57.6308C112 57.3546 112.224 57.1308 112.5 57.1308ZM112.5 61.9769C112.776 61.9769 113 62.2008 113 62.4769V63.4462C113 63.7223 112.776 63.9462 112.5 63.9462C112.224 63.9462 112 63.7223 112 63.4462V62.4769C112 62.2008 112.224 61.9769 112.5 61.9769ZM112.5 66.8231C112.776 66.8231 113 67.0469 113 67.3231V68.2923C113 68.5684 112.776 68.7923 112.5 68.7923C112.224 68.7923 112 68.5684 112 68.2923V67.3231C112 67.0469 112.224 66.8231 112.5 66.8231ZM112.5 71.6692C112.776 71.6692 113 71.8931 113 72.1692V73.1385C113 73.4146 112.776 73.6385 112.5 73.6385C112.224 73.6385 112 73.4146 112 73.1385V72.1692C112 71.8931 112.224 71.6692 112.5 71.6692ZM112.5 76.5154C112.776 76.5154 113 76.7392 113 77.0154V77.5C113 77.7761 112.776 78 112.5 78C112.224 78 112 77.7761 112 77.5V77.0154C112 76.7392 112.224 76.5154 112.5 76.5154Z" fill="#C1C7D0"/>
<path d="M20.68 47.2L16.264 48.76L17.08 51.592L20.248 50.704V64H23.56V47.2H20.68Z" fill="#172B4D"/>
<path d="M25.9293 64H37.1613V60.808H30.8493L34.1373 57.52C35.7213 55.936 36.8973 54.184 36.8973 52.144C36.8973 48.784 34.2333 46.864 31.3533 46.864C29.0733 46.864 26.8893 48.016 25.8093 50.416L28.5933 52.048C29.1453 50.848 30.1053 50.08 31.4013 50.08C32.6733 50.08 33.5853 50.92 33.5853 52.264C33.5853 53.392 32.7453 54.496 31.6653 55.624L25.9293 61.528V64Z" fill="#172B4D"/>
<path d="M45.3569 64.336C49.6529 64.336 52.0769 60.784 52.0769 55.6C52.0769 50.416 49.6529 46.864 45.3569 46.864C41.0849 46.864 38.6369 50.416 38.6369 55.6C38.6369 60.784 41.0849 64.336 45.3569 64.336ZM45.3569 61.096C43.1009 61.096 41.9489 59.152 41.9489 55.6C41.9489 52.048 43.1009 50.08 45.3569 50.08C47.6129 50.08 48.7889 52.048 48.7889 55.6C48.7889 59.152 47.6129 61.096 45.3569 61.096Z" fill="#172B4D"/>
<path d="M60.7064 54.016L63.8504 49.936V47.2H53.2904V50.296H59.8664L56.5544 54.616L57.8264 56.536H58.5464C60.2744 56.536 61.2344 57.472 61.2344 58.816C61.2344 60.184 60.2744 61.096 58.5464 61.096C56.9624 61.096 56.0264 60.4 55.6184 59.152L52.7864 60.784C53.7464 63.184 56.0264 64.336 58.5464 64.336C61.7144 64.336 64.5464 62.416 64.5464 58.816C64.5464 56.344 62.8904 54.664 60.7064 54.016Z" fill="#172B4D"/>
<path d="M19.28 22H16.7V29H17.85V26.6H19.28C20.6 26.6 21.6 25.59 21.6 24.3C21.6 23 20.6 22 19.28 22ZM19.28 25.52H17.85V23.08H19.28C19.96 23.08 20.45 23.59 20.45 24.3C20.45 25 19.96 25.52 19.28 25.52Z" fill="#8993A4"/>
<path d="M26.5884 29H27.8484L26.2584 26.28C27.0784 25.95 27.6484 25.15 27.6484 24.25C27.6484 23 26.6484 22 25.3984 22H22.5984V29H23.7484V26.45H25.1084L26.5884 29ZM23.7484 23.08H25.3984C26.0084 23.08 26.4984 23.59 26.4984 24.25C26.4984 24.9 26.0084 25.42 25.3984 25.42H23.7484V23.08Z" fill="#8993A4"/>
<path d="M29.8812 27.9V26.01H32.6812V24.92H29.8812V23.1H32.9312V22H28.7312V29H32.9812V27.9H29.8812Z" fill="#8993A4"/>
<path d="M34.034 26.48H37.734V25.44H34.034V26.48Z" fill="#8993A4"/>
<path d="M43.1216 29H44.3816L42.7916 26.28C43.6116 25.95 44.1816 25.15 44.1816 24.25C44.1816 23 43.1816 22 41.9316 22H39.1316V29H40.2816V26.45H41.6416L43.1216 29ZM40.2816 23.08H41.9316C42.5416 23.08 43.0316 23.59 43.0316 24.25C43.0316 24.9 42.5416 25.42 41.9316 25.42H40.2816V23.08Z" fill="#8993A4"/>
<path d="M46.4144 27.9V26.01H49.2145V24.92H46.4144V23.1H49.4645V22H45.2645V29H49.5145V27.9H46.4144Z" fill="#8993A4"/>
<path d="M57.3186 25.38H53.8186V26.41H56.1586C55.9486 27.35 55.1686 28.01 53.8986 28.01C52.3286 28.01 51.3086 26.92 51.3086 25.51C51.3086 24.08 52.3486 22.99 53.8286 22.99C54.7486 22.99 55.5286 23.45 55.8886 24.1L56.8786 23.53C56.2886 22.54 55.1586 21.87 53.8286 21.87C51.7286 21.87 50.1586 23.49 50.1586 25.5C50.1586 27.51 51.7086 29.13 53.8886 29.13C55.9386 29.13 57.3186 27.77 57.3186 25.86V25.38Z" fill="#8993A4"/>
<path d="M58.3699 22V29H59.5199V22H58.3699Z" fill="#8993A4"/>
<path d="M63.1511 29.13C64.6111 29.13 65.6311 28.35 65.6311 27.07C65.6311 25.68 64.4611 25.32 63.3011 24.95C62.2811 24.63 61.8911 24.4 61.8911 23.86C61.8911 23.33 62.3211 22.99 62.9911 22.99C63.7711 22.99 64.2111 23.41 64.4611 23.97L65.4311 23.41C64.9911 22.48 64.1411 21.87 62.9911 21.87C61.8111 21.87 60.7411 22.6 60.7411 23.89C60.7411 25.21 61.8011 25.61 62.8911 25.94C63.9311 26.26 64.4811 26.47 64.4811 27.09C64.4811 27.6 64.0911 28.01 63.1811 28.01C62.2311 28.01 61.6911 27.54 61.4411 26.83L60.4511 27.41C60.8211 28.45 61.7711 29.13 63.1511 29.13Z" fill="#8993A4"/>
<path d="M70.918 22H65.818V23.1H67.798V29H68.948V23.1H70.918V22Z" fill="#8993A4"/>
<path d="M72.9184 27.9V26.01H75.7184V24.92H72.9184V23.1H75.9684V22H71.7684V29H76.0184V27.9H72.9184Z" fill="#8993A4"/>
<path d="M81.0611 29H82.3211L80.7311 26.28C81.5511 25.95 82.1211 25.15 82.1211 24.25C82.1211 23 81.1211 22 79.8711 22H77.0711V29H78.2211V26.45H79.5811L81.0611 29ZM78.2211 23.08H79.8711C80.4811 23.08 80.9711 23.59 80.9711 24.25C80.9711 24.9 80.4811 25.42 79.8711 25.42H78.2211V23.08Z" fill="#8993A4"/>
<path d="M84.3539 27.9V26.01H87.1539V24.92H84.3539V23.1H87.4039V22H83.2039V29H87.4539V27.9H84.3539Z" fill="#8993A4"/>
<path d="M91.2566 22H88.5066V29H91.2566C93.1866 29 94.6066 27.45 94.6066 25.5C94.6066 23.54 93.1866 22 91.2566 22ZM91.2566 27.9H89.6566V23.1H91.2566C92.5866 23.1 93.4966 24.11 93.4966 25.5C93.4966 26.88 92.5866 27.9 91.2566 27.9Z" fill="#8993A4"/>
<path d="M132.68 47.2L128.264 48.76L129.08 51.592L132.248 50.704V64H135.56V47.2H132.68Z" fill="#172B4D"/>
<path d="M141.961 47.2L137.545 48.76L138.361 51.592L141.529 50.704V64H144.841V47.2H141.961Z" fill="#172B4D"/>
<path d="M147.211 64H158.443V60.808H152.131L155.419 57.52C157.003 55.936 158.179 54.184 158.179 52.144C158.179 48.784 155.515 46.864 152.635 46.864C150.355 46.864 148.171 48.016 147.091 50.416L149.875 52.048C150.427 50.848 151.387 50.08 152.683 50.08C153.955 50.08 154.867 50.92 154.867 52.264C154.867 53.392 154.027 54.496 152.947 55.624L147.211 61.528V64Z" fill="#172B4D"/>
<path d="M131.98 29.13C134.01 29.13 135.61 27.53 135.61 25.5C135.61 23.47 134.01 21.87 131.98 21.87C129.96 21.87 128.35 23.47 128.35 25.5C128.35 27.53 129.96 29.13 131.98 29.13ZM131.98 28.01C130.58 28.01 129.5 26.94 129.5 25.5C129.5 24.06 130.58 22.99 131.98 22.99C133.38 22.99 134.46 24.06 134.46 25.5C134.46 26.94 133.38 28.01 131.98 28.01Z" fill="#8993A4"/>
<path d="M140.859 22V26.75L137.559 22H136.659V29H137.809V24.25L141.109 29H142.009V22H140.859Z" fill="#8993A4"/>
<path d="M145.639 29.13C147.099 29.13 148.119 28.35 148.119 27.07C148.119 25.68 146.949 25.32 145.789 24.95C144.769 24.63 144.379 24.4 144.379 23.86C144.379 23.33 144.809 22.99 145.479 22.99C146.259 22.99 146.699 23.41 146.949 23.97L147.919 23.41C147.479 22.48 146.629 21.87 145.479 21.87C144.299 21.87 143.229 22.6 143.229 23.89C143.229 25.21 144.289 25.61 145.379 25.94C146.419 26.26 146.969 26.47 146.969 27.09C146.969 27.6 146.579 28.01 145.669 28.01C144.719 28.01 144.179 27.54 143.929 26.83L142.939 27.41C143.309 28.45 144.259 29.13 145.639 29.13Z" fill="#8993A4"/>
<path d="M151.641 22H149.061V29H150.211V26.6H151.641C152.961 26.6 153.961 25.59 153.961 24.3C153.961 23 152.961 22 151.641 22ZM151.641 25.52H150.211V23.08H151.641C152.321 23.08 152.811 23.59 152.811 24.3C152.811 25 152.321 25.52 151.641 25.52Z" fill="#8993A4"/>
<path d="M158.181 29.13C160.211 29.13 161.811 27.53 161.811 25.5C161.811 23.47 160.211 21.87 158.181 21.87C156.161 21.87 154.551 23.47 154.551 25.5C154.551 27.53 156.161 29.13 158.181 29.13ZM158.181 28.01C156.781 28.01 155.701 26.94 155.701 25.5C155.701 24.06 156.781 22.99 158.181 22.99C159.581 22.99 160.661 24.06 160.661 25.5C160.661 26.94 159.581 28.01 158.181 28.01Z" fill="#8993A4"/>
<path d="M167.01 22H161.91V23.1H163.89V29H165.04V23.1H167.01V22Z" fill="#8993A4"/>
</svg>
