<svg width="160" height="219" viewBox="0 0 160 219" fill="none" xmlns="http://www.w3.org/2000/svg">
<g clip-path="url(#clip0_3919_796)">
<path d="M0 12C0 5.37259 5.37258 0 12 0H148C154.627 0 160 5.37258 160 12V207C160 213.627 154.627 219 148 219H12C5.37258 219 0 213.627 0 207V12Z" fill="white"/>
<path d="M109.884 154.448C110.694 153.872 111.198 153.008 111.198 151.838C111.198 149.408 109.326 148.148 107.112 148.148C104.898 148.148 103.008 149.408 103.008 151.838C103.008 153.008 103.53 153.872 104.322 154.448C103.224 155.114 102.594 156.212 102.594 157.49C102.594 159.812 104.304 161.252 107.112 161.252C109.902 161.252 111.63 159.812 111.63 157.49C111.63 156.212 111 155.114 109.884 154.448ZM107.112 150.488C108.048 150.488 108.732 151.028 108.732 151.964C108.732 152.882 108.048 153.458 107.112 153.458C106.176 153.458 105.492 152.882 105.492 151.964C105.492 151.028 106.176 150.488 107.112 150.488ZM107.112 158.912C105.924 158.912 105.06 158.3 105.06 157.166C105.06 156.05 105.924 155.438 107.112 155.438C108.3 155.438 109.164 156.05 109.164 157.166C109.164 158.3 108.3 158.912 107.112 158.912Z" fill="#172B4D"/>
<path d="M122.594 156.554H121.244V153.566H118.742V156.554H115.466L119.642 148.4H116.978L112.784 156.554V158.858H118.742V161H121.244V158.858H122.594V156.554Z" fill="#172B4D"/>
<path d="M39.03 158.13C40.49 158.13 41.51 157.35 41.51 156.07C41.51 154.68 40.34 154.32 39.18 153.95C38.16 153.63 37.77 153.4 37.77 152.86C37.77 152.33 38.2 151.99 38.87 151.99C39.65 151.99 40.09 152.41 40.34 152.97L41.31 152.41C40.87 151.48 40.02 150.87 38.87 150.87C37.69 150.87 36.62 151.6 36.62 152.89C36.62 154.21 37.68 154.61 38.77 154.94C39.81 155.26 40.36 155.47 40.36 156.09C40.36 156.6 39.97 157.01 39.06 157.01C38.11 157.01 37.57 156.54 37.32 155.83L36.33 156.41C36.7 157.45 37.65 158.13 39.03 158.13Z" fill="#8993A4"/>
<path d="M45.732 158.13C47.762 158.13 49.362 156.53 49.362 154.5C49.362 152.47 47.762 150.87 45.732 150.87C43.712 150.87 42.102 152.47 42.102 154.5C42.102 156.53 43.712 158.13 45.732 158.13ZM45.732 157.01C44.332 157.01 43.252 155.94 43.252 154.5C43.252 153.06 44.332 151.99 45.732 151.99C47.132 151.99 48.212 153.06 48.212 154.5C48.212 155.94 47.132 157.01 45.732 157.01Z" fill="#8993A4"/>
<path d="M51.5609 156.9V151H50.4109V158H54.4109V156.9H51.5609Z" fill="#8993A4"/>
<path d="M58.0145 151H55.2645V158H58.0145C59.9445 158 61.3645 156.45 61.3645 154.5C61.3645 152.54 59.9445 151 58.0145 151ZM58.0145 156.9H56.4145V152.1H58.0145C59.3445 152.1 60.2545 153.11 60.2545 154.5C60.2545 155.88 59.3445 156.9 58.0145 156.9Z" fill="#8993A4"/>
<path d="M102.234 180.4V182.776H107.616L103.476 193H106.104L110.37 182.506V180.4H102.234Z" fill="#172B4D"/>
<path d="M115.234 184.486L118.024 180.4H115.18L111.256 186.322C110.788 187.024 110.518 187.888 110.518 188.86C110.518 191.434 112.372 193.252 115.072 193.252C117.772 193.252 119.644 191.434 119.644 188.86C119.644 186.34 117.844 184.558 115.234 184.486ZM115.072 190.912C113.902 190.912 112.984 190.138 112.984 188.86C112.984 187.582 113.902 186.826 115.072 186.826C116.242 186.826 117.178 187.6 117.178 188.86C117.178 190.138 116.242 190.912 115.072 190.912Z" fill="#172B4D"/>
<path d="M41.26 190H42.5L39.97 183H38.59L36.05 190H37.3L37.79 188.59H40.77L41.26 190ZM38.17 187.51L39.28 184.35L40.39 187.51H38.17Z" fill="#8993A4"/>
<path d="M44.6323 190H46.0123L48.4423 183H47.1923L45.3223 188.61L43.4623 183H42.2023L44.6323 190Z" fill="#8993A4"/>
<path d="M53.3498 190H54.5898L52.0598 183H50.6798L48.1398 190H49.3898L49.8798 188.59H52.8598L53.3498 190ZM50.2598 187.51L51.3698 184.35L52.4798 187.51H50.2598Z" fill="#8993A4"/>
<path d="M55.3426 183V190H56.4926V183H55.3426Z" fill="#8993A4"/>
<path d="M59.0414 188.9V183H57.8914V190H61.8914V188.9H59.0414Z" fill="#8993A4"/>
<path d="M67.5002 190H68.7402L66.2102 183H64.8302L62.2902 190H63.5402L64.0302 188.59H67.0102L67.5002 190ZM64.4102 187.51L65.5202 184.35L66.6302 187.51H64.4102Z" fill="#8993A4"/>
<path d="M73.613 186.37C74.053 186.05 74.323 185.55 74.323 184.94C74.323 183.82 73.403 183 72.273 183H69.493V190H72.493C73.653 190 74.593 189.16 74.593 188C74.593 187.25 74.203 186.68 73.613 186.37ZM72.273 184.08C72.783 184.08 73.173 184.48 73.173 185C73.173 185.52 72.783 185.92 72.273 185.92H70.643V184.08H72.273ZM72.493 188.92H70.643V186.96H72.493C73.033 186.96 73.443 187.39 73.443 187.94C73.443 188.49 73.033 188.92 72.493 188.92Z" fill="#8993A4"/>
<path d="M76.7465 188.9V183H75.5965V190H79.5965V188.9H76.7465Z" fill="#8993A4"/>
<path d="M81.6 188.9V187.01H84.4V185.92H81.6V184.1H84.65V183H80.45V190H84.7V188.9H81.6Z" fill="#8993A4"/>
<path opacity="0.5" fill-rule="evenodd" clip-rule="evenodd" d="M103.688 63.3119C90.6054 50.2294 69.3944 50.2294 56.3119 63.3119C43.2294 76.3944 43.2294 97.6054 56.3119 110.688C69.3944 123.77 90.6054 123.77 103.688 110.688C116.77 97.6054 116.77 76.3944 103.688 63.3119ZM52.7764 59.7764C67.8115 44.7412 92.1883 44.7412 107.223 59.7764C122.259 74.8115 122.259 99.1883 107.223 114.223C92.1883 129.259 67.8115 129.259 52.7764 114.223C37.7412 99.1883 37.7412 74.8115 52.7764 59.7764Z" fill="#DDA5E9"/>
<path fill-rule="evenodd" clip-rule="evenodd" d="M77.4997 51.0002C77.4997 49.6195 78.619 48.5002 79.9997 48.5002C86.331 48.5002 92.5647 50.0617 98.1484 53.0463C103.732 56.0308 108.494 60.3464 112.011 65.6107C115.529 70.8751 117.694 76.9256 118.314 83.2265C118.935 89.5274 117.992 95.884 115.569 101.733C113.146 107.583 109.318 112.744 104.424 116.761C99.5296 120.778 93.7203 123.525 87.5106 124.76C81.301 125.995 74.8825 125.68 68.8238 123.842C62.765 122.004 57.2531 118.701 52.7761 114.224C51.7998 113.247 51.7998 111.664 52.7761 110.688C53.7525 109.712 55.3354 109.712 56.3117 110.688C60.2072 114.584 65.0033 117.458 70.2752 119.058C75.5471 120.657 81.132 120.931 86.5352 119.856C91.9384 118.782 96.9932 116.391 101.252 112.896C105.51 109.401 108.841 104.91 110.95 99.82C113.058 94.7303 113.878 89.1992 113.338 83.7166C112.798 78.234 110.915 72.9692 107.854 68.3886C104.793 63.808 100.65 60.0528 95.7914 57.4559C90.9329 54.8589 85.5088 53.5002 79.9997 53.5002C78.619 53.5002 77.4997 52.381 77.4997 51.0002Z" fill="#AC5DD9"/>
<path d="M69.0496 85.152H67.4656L67.6816 82.344H72.7936V80.4H65.7736L65.2876 87.168H68.9596C70.3276 87.168 71.2636 87.924 71.2636 89.184C71.2636 90.444 70.3276 91.218 68.9236 91.218C67.6096 91.218 66.7456 90.624 66.4216 89.508L64.6396 90.534C65.3056 92.352 67.0156 93.234 68.9236 93.234C71.2456 93.234 73.3336 91.83 73.3336 89.184C73.3336 86.556 71.3356 85.152 69.0496 85.152Z" fill="#AC5DD9"/>
<path d="M84.0422 88.806H82.6022V85.53H80.5142V88.806H76.5722L80.9102 80.4H78.6602L74.3222 88.806V90.732H80.5142V93H82.6022V90.732H84.0422V88.806Z" fill="#AC5DD9"/>
<path d="M87.3051 85.926C88.9971 85.926 90.2391 84.63 90.2391 83.046C90.2391 81.426 88.9791 80.166 87.3051 80.166C85.6131 80.166 84.3531 81.444 84.3531 83.046C84.3531 84.63 85.6131 85.926 87.3051 85.926ZM87.2871 84.342C86.5311 84.342 86.0091 83.766 86.0091 83.046C86.0091 82.308 86.5311 81.732 87.2871 81.732C88.0611 81.732 88.5831 82.308 88.5831 83.046C88.5831 83.748 88.0611 84.342 87.2871 84.342ZM85.4151 91.146L86.3871 91.722L94.6851 82.47L93.7131 81.912L85.4151 91.146ZM93.0651 93.216C94.7391 93.216 95.9991 91.92 95.9991 90.336C95.9991 88.734 94.7391 87.456 93.0651 87.456C91.3731 87.456 90.1131 88.734 90.1131 90.336C90.1131 91.92 91.3731 93.216 93.0651 93.216ZM93.0471 91.632C92.2911 91.632 91.7691 91.056 91.7691 90.336C91.7691 89.598 92.2911 89.022 93.0471 89.022C93.8211 89.022 94.3431 89.598 94.3431 90.336C94.3431 91.038 93.8211 91.632 93.0471 91.632Z" fill="#AC5DD9"/>
<path d="M48.4072 21H43.3072V22.1H45.2872V28H46.4372V22.1H48.4072V21Z" fill="#42526E"/>
<path d="M50.2576 21V28H51.4076V21H50.2576Z" fill="#42526E"/>
<path d="M57.1164 28.13C58.4064 28.13 59.5464 27.47 60.1264 26.45L59.1264 25.88C58.7664 26.57 57.9964 27.01 57.1164 27.01C55.6064 27.01 54.6064 25.94 54.6064 24.5C54.6064 23.06 55.6064 21.99 57.1164 21.99C57.9964 21.99 58.7564 22.43 59.1264 23.12L60.1264 22.54C59.5364 21.52 58.3964 20.87 57.1164 20.87C54.9864 20.87 53.4564 22.47 53.4564 24.5C53.4564 26.53 54.9864 28.13 57.1164 28.13Z" fill="#42526E"/>
<path d="M67.3618 28L64.4318 24.41L67.2618 21H65.8918L63.2318 24.14V21H62.0818V28H63.2318V24.67L65.9918 28H67.3618Z" fill="#42526E"/>
<path d="M70.2572 26.9V25.01H73.0572V23.92H70.2572V22.1H73.3072V21H69.1072V28H73.3572V26.9H70.2572Z" fill="#42526E"/>
<path d="M79.96 21H74.86V22.1H76.84V28H77.99V22.1H79.96V21Z" fill="#42526E"/>
<path d="M87.6404 28.13C89.1003 28.13 90.1203 27.35 90.1203 26.07C90.1203 24.68 88.9504 24.32 87.7904 23.95C86.7704 23.63 86.3804 23.4 86.3804 22.86C86.3804 22.33 86.8104 21.99 87.4804 21.99C88.2603 21.99 88.7004 22.41 88.9504 22.97L89.9204 22.41C89.4804 21.48 88.6304 20.87 87.4804 20.87C86.3004 20.87 85.2304 21.6 85.2304 22.89C85.2304 24.21 86.2904 24.61 87.3804 24.94C88.4204 25.26 88.9704 25.47 88.9704 26.09C88.9704 26.6 88.5804 27.01 87.6704 27.01C86.7204 27.01 86.1804 26.54 85.9304 25.83L84.9404 26.41C85.3104 27.45 86.2603 28.13 87.6404 28.13Z" fill="#42526E"/>
<path d="M96.5832 28H97.8232L95.2932 21H93.9132L91.3732 28H92.6232L93.1132 26.59H96.0932L96.5832 28ZM93.4932 25.51L94.6032 22.35L95.7132 25.51H93.4932Z" fill="#42526E"/>
<path d="M100.726 26.9V21H99.576V28H103.576V26.9H100.726Z" fill="#42526E"/>
<path d="M106.579 26.9V25.01H109.379V23.92H106.579V22.1H109.629V21H105.429V28H109.679V26.9H106.579Z" fill="#42526E"/>
<path d="M114.062 28.13C115.522 28.13 116.542 27.35 116.542 26.07C116.542 24.68 115.372 24.32 114.212 23.95C113.192 23.63 112.802 23.4 112.802 22.86C112.802 22.33 113.232 21.99 113.902 21.99C114.682 21.99 115.122 22.41 115.372 22.97L116.342 22.41C115.902 21.48 115.052 20.87 113.902 20.87C112.722 20.87 111.652 21.6 111.652 22.89C111.652 24.21 112.712 24.61 113.802 24.94C114.842 25.26 115.392 25.47 115.392 26.09C115.392 26.6 115.002 27.01 114.092 27.01C113.142 27.01 112.602 26.54 112.352 25.83L111.362 26.41C111.732 27.45 112.682 28.13 114.062 28.13Z" fill="#42526E"/>
</g>
<defs>
<clipPath id="clip0_3919_796">
<rect width="160" height="219" fill="white"/>
</clipPath>
</defs>
</svg>
