<svg width="200" height="259" viewBox="0 0 200 259" fill="none" xmlns="http://www.w3.org/2000/svg">
<g clip-path="url(#clip0_2554_561)" filter="url(#filter0_d_2554_561)">
<path d="M20 22C20 15.3726 25.3726 10 32 10H168C174.627 10 180 15.3726 180 22V217C180 223.627 174.627 229 168 229H32C25.3726 229 20 223.627 20 217V22Z" fill="white"/>
<path d="M129.884 164.448C130.694 163.872 131.198 163.008 131.198 161.838C131.198 159.408 129.326 158.148 127.112 158.148C124.898 158.148 123.008 159.408 123.008 161.838C123.008 163.008 123.53 163.872 124.322 164.448C123.224 165.114 122.594 166.212 122.594 167.49C122.594 169.812 124.304 171.252 127.112 171.252C129.902 171.252 131.63 169.812 131.63 167.49C131.63 166.212 131 165.114 129.884 164.448ZM127.112 160.488C128.048 160.488 128.732 161.028 128.732 161.964C128.732 162.882 128.048 163.458 127.112 163.458C126.176 163.458 125.492 162.882 125.492 161.964C125.492 161.028 126.176 160.488 127.112 160.488ZM127.112 168.912C125.924 168.912 125.06 168.3 125.06 167.166C125.06 166.05 125.924 165.438 127.112 165.438C128.3 165.438 129.164 166.05 129.164 167.166C129.164 168.3 128.3 168.912 127.112 168.912Z" fill="#172B4D"/>
<path d="M142.594 166.554H141.244V163.566H138.742V166.554H135.466L139.642 158.4H136.978L132.784 166.554V168.858H138.742V171H141.244V168.858H142.594V166.554Z" fill="#172B4D"/>
<path d="M59.0301 168.13C60.4901 168.13 61.5101 167.35 61.5101 166.07C61.5101 164.68 60.3401 164.32 59.1801 163.95C58.1601 163.63 57.7701 163.4 57.7701 162.86C57.7701 162.33 58.2001 161.99 58.8701 161.99C59.6501 161.99 60.0901 162.41 60.3401 162.97L61.3101 162.41C60.8701 161.48 60.0201 160.87 58.8701 160.87C57.6901 160.87 56.6201 161.6 56.6201 162.89C56.6201 164.21 57.6801 164.61 58.7701 164.94C59.8101 165.26 60.3601 165.47 60.3601 166.09C60.3601 166.6 59.9701 167.01 59.0601 167.01C58.1101 167.01 57.5701 166.54 57.3201 165.83L56.3301 166.41C56.7001 167.45 57.6501 168.13 59.0301 168.13Z" fill="#8993A4"/>
<path d="M65.732 168.13C67.762 168.13 69.362 166.53 69.362 164.5C69.362 162.47 67.762 160.87 65.732 160.87C63.712 160.87 62.102 162.47 62.102 164.5C62.102 166.53 63.712 168.13 65.732 168.13ZM65.732 167.01C64.332 167.01 63.252 165.94 63.252 164.5C63.252 163.06 64.332 161.99 65.732 161.99C67.132 161.99 68.212 163.06 68.212 164.5C68.212 165.94 67.132 167.01 65.732 167.01Z" fill="#8993A4"/>
<path d="M71.561 166.9V161H70.411V168H74.411V166.9H71.561Z" fill="#8993A4"/>
<path d="M78.0145 161H75.2645V168H78.0145C79.9445 168 81.3645 166.45 81.3645 164.5C81.3645 162.54 79.9445 161 78.0145 161ZM78.0145 166.9H76.4145V162.1H78.0145C79.3445 162.1 80.2545 163.11 80.2545 164.5C80.2545 165.88 79.3445 166.9 78.0145 166.9Z" fill="#8993A4"/>
<path d="M122.234 190.4V192.776H127.616L123.476 203H126.104L130.37 192.506V190.4H122.234Z" fill="#172B4D"/>
<path d="M135.233 194.486L138.023 190.4H135.179L131.255 196.322C130.787 197.024 130.517 197.888 130.517 198.86C130.517 201.434 132.371 203.252 135.071 203.252C137.771 203.252 139.643 201.434 139.643 198.86C139.643 196.34 137.843 194.558 135.233 194.486ZM135.071 200.912C133.901 200.912 132.983 200.138 132.983 198.86C132.983 197.582 133.901 196.826 135.071 196.826C136.241 196.826 137.177 197.6 137.177 198.86C137.177 200.138 136.241 200.912 135.071 200.912Z" fill="#172B4D"/>
<path d="M61.26 200H62.5L59.97 193H58.59L56.05 200H57.3L57.79 198.59H60.77L61.26 200ZM58.17 197.51L59.28 194.35L60.39 197.51H58.17Z" fill="#8993A4"/>
<path d="M64.6324 200H66.0124L68.4424 193H67.1924L65.3224 198.61L63.4624 193H62.2024L64.6324 200Z" fill="#8993A4"/>
<path d="M73.3499 200H74.5899L72.0599 193H70.6799L68.1399 200H69.3899L69.8799 198.59H72.8599L73.3499 200ZM70.2599 197.51L71.3699 194.35L72.4799 197.51H70.2599Z" fill="#8993A4"/>
<path d="M75.3426 193V200H76.4926V193H75.3426Z" fill="#8993A4"/>
<path d="M79.0415 198.9V193H77.8915V200H81.8915V198.9H79.0415Z" fill="#8993A4"/>
<path d="M87.5003 200H88.7403L86.2103 193H84.8303L82.2903 200H83.5403L84.0303 198.59H87.0103L87.5003 200ZM84.4103 197.51L85.5203 194.35L86.6303 197.51H84.4103Z" fill="#8993A4"/>
<path d="M93.613 196.37C94.053 196.05 94.323 195.55 94.323 194.94C94.323 193.82 93.403 193 92.273 193H89.493V200H92.493C93.653 200 94.593 199.16 94.593 198C94.593 197.25 94.203 196.68 93.613 196.37ZM92.273 194.08C92.783 194.08 93.173 194.48 93.173 195C93.173 195.52 92.783 195.92 92.273 195.92H90.643V194.08H92.273ZM92.493 198.92H90.643V196.96H92.493C93.033 196.96 93.443 197.39 93.443 197.94C93.443 198.49 93.033 198.92 92.493 198.92Z" fill="#8993A4"/>
<path d="M96.7465 198.9V193H95.5965V200H99.5965V198.9H96.7465Z" fill="#8993A4"/>
<path d="M101.6 198.9V197.01H104.4V195.92H101.6V194.1H104.65V193H100.45V200H104.7V198.9H101.6Z" fill="#8993A4"/>
<path opacity="0.5" fill-rule="evenodd" clip-rule="evenodd" d="M123.688 73.3119C110.605 60.2294 89.3944 60.2294 76.3119 73.3119C63.2294 86.3944 63.2294 107.605 76.3119 120.688C89.3944 133.77 110.605 133.77 123.688 120.688C136.77 107.605 136.77 86.3944 123.688 73.3119ZM72.7764 69.7764C87.8115 54.7412 112.188 54.7412 127.223 69.7764C142.259 84.8115 142.259 109.188 127.223 124.223C112.188 139.259 87.8115 139.259 72.7764 124.223C57.7412 109.188 57.7412 84.8115 72.7764 69.7764Z" fill="#DDA5E9"/>
<path fill-rule="evenodd" clip-rule="evenodd" d="M97.4997 61.0002C97.4997 59.6195 98.619 58.5002 99.9997 58.5002C106.331 58.5002 112.565 60.0616 118.148 63.0462C123.732 66.0308 128.494 70.3464 132.011 75.6107C135.529 80.875 137.694 86.9256 138.314 93.2264C138.935 99.5273 137.992 105.884 135.569 111.733C133.146 117.583 129.318 122.744 124.424 126.761C119.53 130.777 113.72 133.525 107.511 134.76C101.301 135.995 94.8825 135.68 88.8238 133.842C82.7651 132.004 77.2531 128.701 72.7762 124.224C71.7999 123.247 71.7999 121.664 72.7762 120.688C73.7525 119.712 75.3354 119.712 76.3117 120.688C80.2072 124.584 85.0033 127.458 90.2752 129.058C95.5471 130.657 101.132 130.931 106.535 129.856C111.938 128.782 116.993 126.391 121.252 122.896C125.51 119.401 128.841 114.91 130.95 109.82C133.058 104.73 133.878 99.1991 133.338 93.7165C132.798 88.234 130.915 82.9692 127.854 78.3885C124.793 73.8079 120.65 70.0528 115.791 67.4558C110.933 64.8588 105.509 63.5002 99.9997 63.5002C98.619 63.5002 97.4997 62.3809 97.4997 61.0002Z" fill="#AC5DD9"/>
<path d="M89.0496 95.152H87.4656L87.6816 92.344H92.7936V90.4H85.7736L85.2876 97.168H88.9596C90.3276 97.168 91.2636 97.924 91.2636 99.184C91.2636 100.444 90.3276 101.218 88.9236 101.218C87.6096 101.218 86.7456 100.624 86.4216 99.508L84.6396 100.534C85.3056 102.352 87.0156 103.234 88.9236 103.234C91.2456 103.234 93.3336 101.83 93.3336 99.184C93.3336 96.556 91.3356 95.152 89.0496 95.152Z" fill="#AC5DD9"/>
<path d="M104.042 98.806H102.602V95.53H100.514V98.806H96.5722L100.91 90.4H98.6602L94.3222 98.806V100.732H100.514V103H102.602V100.732H104.042V98.806Z" fill="#AC5DD9"/>
<path d="M107.305 95.926C108.997 95.926 110.239 94.63 110.239 93.046C110.239 91.426 108.979 90.166 107.305 90.166C105.613 90.166 104.353 91.444 104.353 93.046C104.353 94.63 105.613 95.926 107.305 95.926ZM107.287 94.342C106.531 94.342 106.009 93.766 106.009 93.046C106.009 92.308 106.531 91.732 107.287 91.732C108.061 91.732 108.583 92.308 108.583 93.046C108.583 93.748 108.061 94.342 107.287 94.342ZM105.415 101.146L106.387 101.722L114.685 92.47L113.713 91.912L105.415 101.146ZM113.065 103.216C114.739 103.216 115.999 101.92 115.999 100.336C115.999 98.734 114.739 97.456 113.065 97.456C111.373 97.456 110.113 98.734 110.113 100.336C110.113 101.92 111.373 103.216 113.065 103.216ZM113.047 101.632C112.291 101.632 111.769 101.056 111.769 100.336C111.769 99.598 112.291 99.022 113.047 99.022C113.821 99.022 114.343 99.598 114.343 100.336C114.343 101.038 113.821 101.632 113.047 101.632Z" fill="#AC5DD9"/>
<path d="M68.4071 31H63.3071V32.1H65.2871V38H66.4371V32.1H68.4071V31Z" fill="#42526E"/>
<path d="M70.2575 31V38H71.4075V31H70.2575Z" fill="#42526E"/>
<path d="M77.1163 38.13C78.4063 38.13 79.5463 37.47 80.1263 36.45L79.1263 35.88C78.7663 36.57 77.9963 37.01 77.1163 37.01C75.6063 37.01 74.6063 35.94 74.6063 34.5C74.6063 33.06 75.6063 31.99 77.1163 31.99C77.9963 31.99 78.7563 32.43 79.1263 33.12L80.1263 32.54C79.5363 31.52 78.3963 30.87 77.1163 30.87C74.9863 30.87 73.4563 32.47 73.4563 34.5C73.4563 36.53 74.9863 38.13 77.1163 38.13Z" fill="#42526E"/>
<path d="M87.3617 38L84.4317 34.41L87.2617 31H85.8917L83.2317 34.14V31H82.0817V38H83.2317V34.67L85.9917 38H87.3617Z" fill="#42526E"/>
<path d="M90.2571 36.9V35.01H93.0571V33.92H90.2571V32.1H93.3071V31H89.1071V38H93.3571V36.9H90.2571Z" fill="#42526E"/>
<path d="M99.9599 31H94.8599V32.1H96.8399V38H97.9899V32.1H99.9599V31Z" fill="#42526E"/>
<path d="M107.64 38.13C109.1 38.13 110.12 37.35 110.12 36.07C110.12 34.68 108.95 34.32 107.79 33.95C106.77 33.63 106.38 33.4 106.38 32.86C106.38 32.33 106.81 31.99 107.48 31.99C108.26 31.99 108.7 32.41 108.95 32.97L109.92 32.41C109.48 31.48 108.63 30.87 107.48 30.87C106.3 30.87 105.23 31.6 105.23 32.89C105.23 34.21 106.29 34.61 107.38 34.94C108.42 35.26 108.97 35.47 108.97 36.09C108.97 36.6 108.58 37.01 107.67 37.01C106.72 37.01 106.18 36.54 105.93 35.83L104.94 36.41C105.31 37.45 106.26 38.13 107.64 38.13Z" fill="#42526E"/>
<path d="M116.583 38H117.823L115.293 31H113.913L111.373 38H112.623L113.113 36.59H116.093L116.583 38ZM113.493 35.51L114.603 32.35L115.713 35.51H113.493Z" fill="#42526E"/>
<path d="M120.726 36.9V31H119.576V38H123.576V36.9H120.726Z" fill="#42526E"/>
<path d="M126.579 36.9V35.01H129.379V33.92H126.579V32.1H129.629V31H125.429V38H129.679V36.9H126.579Z" fill="#42526E"/>
<path d="M134.062 38.13C135.522 38.13 136.542 37.35 136.542 36.07C136.542 34.68 135.372 34.32 134.212 33.95C133.192 33.63 132.802 33.4 132.802 32.86C132.802 32.33 133.232 31.99 133.902 31.99C134.682 31.99 135.122 32.41 135.372 32.97L136.342 32.41C135.902 31.48 135.052 30.87 133.902 30.87C132.722 30.87 131.652 31.6 131.652 32.89C131.652 34.21 132.712 34.61 133.802 34.94C134.842 35.26 135.392 35.47 135.392 36.09C135.392 36.6 135.002 37.01 134.092 37.01C133.142 37.01 132.602 36.54 132.352 35.83L131.362 36.41C131.732 37.45 132.682 38.13 134.062 38.13Z" fill="#42526E"/>
</g>
<defs>
<filter id="filter0_d_2554_561" x="0" y="0" width="200" height="259" filterUnits="userSpaceOnUse" color-interpolation-filters="sRGB">
<feFlood flood-opacity="0" result="BackgroundImageFix"/>
<feColorMatrix in="SourceAlpha" type="matrix" values="0 0 0 0 0 0 0 0 0 0 0 0 0 0 0 0 0 0 127 0" result="hardAlpha"/>
<feOffset dy="10"/>
<feGaussianBlur stdDeviation="10"/>
<feColorMatrix type="matrix" values="0 0 0 0 0.109804 0 0 0 0 0.172549 0 0 0 0 0.25098 0 0 0 0.08 0"/>
<feBlend mode="normal" in2="BackgroundImageFix" result="effect1_dropShadow_2554_561"/>
<feBlend mode="normal" in="SourceGraphic" in2="effect1_dropShadow_2554_561" result="shape"/>
</filter>
<clipPath id="clip0_2554_561">
<rect width="160" height="219" fill="white" transform="translate(20 10)"/>
</clipPath>
</defs>
</svg>
