<svg width="192" height="282" viewBox="0 0 192 282" fill="none" xmlns="http://www.w3.org/2000/svg">
<g clip-path="url(#clip0_3919_814)">
<path fill-rule="evenodd" clip-rule="evenodd" d="M0 12C0 5.37258 5.37258 0 12 0H180C186.627 0 192 5.37258 192 12V102.545C187.582 102.545 184 106.077 184 110.434C184 114.79 187.582 118.322 192 118.322V270C192 276.627 186.627 282 180 282H12C5.37258 282 0 276.627 0 270V118.322C4.41828 118.322 8 114.79 8 110.434C8 106.077 4.41828 102.545 0 102.545V12Z" fill="white"/>
<path d="M36.75 204V211H37.68V204H36.75Z" fill="#172B4D"/>
<path d="M43.6616 204H38.6116V204.88H40.6716V211H41.5916V204.88H43.6616V204Z" fill="#172B4D"/>
<path d="M47.4716 211.13C48.7716 211.13 49.9116 210.45 50.4916 209.42L49.6816 208.96C49.2816 209.72 48.4316 210.22 47.4716 210.22C45.8316 210.22 44.7316 209.03 44.7316 207.5C44.7316 205.96 45.8316 204.77 47.4716 204.77C48.4316 204.77 49.2816 205.27 49.6816 206.04L50.4916 205.57C49.9016 204.54 48.7616 203.87 47.4716 203.87C45.3316 203.87 43.8116 205.48 43.8116 207.5C43.8116 209.51 45.3316 211.13 47.4716 211.13Z" fill="#172B4D"/>
<path d="M60.8242 207.53H57.3242V208.37H59.8942C59.7142 209.42 58.8542 210.22 57.4042 210.22C55.7342 210.22 54.6242 209.02 54.6242 207.5C54.6242 205.97 55.7442 204.77 57.3642 204.77C58.3542 204.77 59.2042 205.28 59.6042 206.03L60.4042 205.56C59.8242 204.56 58.6842 203.87 57.3742 203.87C55.2442 203.87 53.7042 205.49 53.7042 207.5C53.7042 209.5 55.2342 211.13 57.3942 211.13C59.5042 211.13 60.8242 209.73 60.8242 207.95V207.53Z" fill="#172B4D"/>
<path d="M66.0051 206V206.86C65.6051 206.25 64.9651 205.87 64.1151 205.87C62.7251 205.87 61.5851 207.02 61.5851 208.5C61.5851 209.98 62.7251 211.13 64.1151 211.13C64.9651 211.13 65.6051 210.75 66.0051 210.14V211H66.8751V206H66.0051ZM64.2251 210.29C63.2251 210.29 62.4551 209.52 62.4551 208.5C62.4551 207.48 63.2251 206.71 64.2251 206.71C65.2351 206.71 66.0051 207.48 66.0051 208.5C66.0051 209.52 65.2351 210.29 64.2251 210.29Z" fill="#172B4D"/>
<path d="M69.0632 206.84V206H68.1932V211H69.0632V208.35C69.0632 207.17 69.8732 206.79 70.6232 206.82V205.91C69.9932 205.91 69.3832 206.14 69.0632 206.84Z" fill="#172B4D"/>
<path d="M75.341 204V206.86C74.941 206.25 74.301 205.87 73.451 205.87C72.061 205.87 70.921 207.02 70.921 208.5C70.921 209.98 72.061 211.13 73.451 211.13C74.301 211.13 74.941 210.75 75.341 210.14V211H76.211V204H75.341ZM73.561 210.29C72.561 210.29 71.791 209.52 71.791 208.5C71.791 207.48 72.561 206.71 73.561 206.71C74.571 206.71 75.341 207.48 75.341 208.5C75.341 209.52 74.571 210.29 73.561 210.29Z" fill="#172B4D"/>
<path d="M78.1391 208.9H82.3291C82.3491 208.77 82.3591 208.64 82.3591 208.51C82.3591 207.11 81.3791 205.87 79.8691 205.87C78.3091 205.87 77.2491 207.02 77.2491 208.5C77.2491 210 78.3191 211.13 79.9291 211.13C80.9291 211.13 81.6891 210.68 82.1291 210L81.3891 209.58C81.1391 209.99 80.6391 210.31 79.9491 210.31C79.0191 210.31 78.3091 209.8 78.1391 208.9ZM79.8691 206.69C80.6191 206.69 81.3291 207.15 81.4791 208.14H78.1391C78.2791 207.27 78.9291 206.69 79.8691 206.69Z" fill="#172B4D"/>
<path d="M85.8492 205.87C85.1492 205.87 84.5992 206.13 84.2292 206.72V206H83.3592V211H84.2292V208.35C84.2292 207.17 84.8792 206.7 85.6792 206.7C86.4492 206.7 86.9192 207.16 86.9192 207.98V211H87.7892V207.93C87.7892 206.65 87.0192 205.87 85.8492 205.87Z" fill="#172B4D"/>
<path d="M89.4437 205.09C89.7637 205.09 90.0238 204.83 90.0238 204.51C90.0238 204.19 89.7637 203.92 89.4437 203.92C89.1137 203.92 88.8537 204.19 88.8537 204.51C88.8537 204.83 89.1137 205.09 89.4437 205.09ZM89.0037 211H89.8737V206H89.0037V211Z" fill="#172B4D"/>
<path d="M95.341 206V206.86C94.941 206.25 94.301 205.87 93.451 205.87C92.061 205.87 90.921 207.02 90.921 208.5C90.921 209.98 92.061 211.13 93.451 211.13C94.301 211.13 94.941 210.75 95.341 210.14V211H96.211V206H95.341ZM93.561 210.29C92.561 210.29 91.791 209.52 91.791 208.5C91.791 207.48 92.561 206.71 93.561 206.71C94.571 206.71 95.341 207.48 95.341 208.5C95.341 209.52 94.571 210.29 93.561 210.29Z" fill="#172B4D"/>
<path d="M98.8291 209.97H97.8291L97.4291 212.4H98.1791L98.8291 209.97Z" fill="#172B4D"/>
<path d="M106.648 207.37C107.108 207.05 107.408 206.54 107.408 205.91C107.408 204.83 106.538 204 105.448 204H102.648V211H105.668C106.798 211 107.698 210.14 107.698 209.02C107.698 208.26 107.278 207.67 106.648 207.37ZM105.448 204.87C106.028 204.87 106.488 205.35 106.488 205.94C106.488 206.54 106.028 207.01 105.448 207.01H103.578V204.87H105.448ZM105.668 210.13H103.578V207.86H105.668C106.288 207.86 106.778 208.36 106.778 208.99C106.778 209.63 106.288 210.13 105.668 210.13Z" fill="#172B4D"/>
<path d="M112.88 206V206.86C112.48 206.25 111.84 205.87 110.99 205.87C109.6 205.87 108.46 207.02 108.46 208.5C108.46 209.98 109.6 211.13 110.99 211.13C111.84 211.13 112.48 210.75 112.88 210.14V211H113.75V206H112.88ZM111.1 210.29C110.1 210.29 109.33 209.52 109.33 208.5C109.33 207.48 110.1 206.71 111.1 206.71C112.11 206.71 112.88 207.48 112.88 208.5C112.88 209.52 112.11 210.29 111.1 210.29Z" fill="#172B4D"/>
<path d="M117.558 205.87C116.858 205.87 116.308 206.13 115.938 206.72V206H115.068V211H115.938V208.35C115.938 207.17 116.588 206.7 117.388 206.7C118.158 206.7 118.628 207.16 118.628 207.98V211H119.498V207.93C119.498 206.65 118.728 205.87 117.558 205.87Z" fill="#172B4D"/>
<path d="M124.863 206V206.86C124.463 206.25 123.823 205.87 122.983 205.87C121.563 205.87 120.433 207.02 120.433 208.47C120.433 209.93 121.563 211.08 122.983 211.08C123.823 211.08 124.463 210.69 124.863 210.08V210.79C124.863 211.73 124.233 212.32 123.193 212.32C122.213 212.32 121.793 211.95 121.563 211.48L120.803 211.91C121.213 212.7 122.053 213.13 123.173 213.13C124.473 213.13 125.723 212.35 125.723 210.79V206H124.863ZM123.083 210.25C122.073 210.25 121.303 209.48 121.303 208.47C121.303 207.47 122.073 206.7 123.083 206.7C124.093 206.7 124.863 207.47 124.863 208.47C124.863 209.48 124.093 210.25 123.083 210.25Z" fill="#172B4D"/>
<path d="M131.181 206V206.86C130.781 206.25 130.141 205.87 129.291 205.87C127.901 205.87 126.761 207.02 126.761 208.5C126.761 209.98 127.901 211.13 129.291 211.13C130.141 211.13 130.781 210.75 131.181 210.14V211H132.051V206H131.181ZM129.401 210.29C128.401 210.29 127.631 209.52 127.631 208.5C127.631 207.48 128.401 206.71 129.401 206.71C130.411 206.71 131.181 207.48 131.181 208.5C131.181 209.52 130.411 210.29 129.401 210.29Z" fill="#172B4D"/>
<path d="M133.369 211H134.239V203.7H133.369V211Z" fill="#172B4D"/>
<path d="M137.916 211.13C139.376 211.13 140.556 209.98 140.556 208.5C140.556 207.02 139.376 205.87 137.916 205.87C136.456 205.87 135.286 207.02 135.286 208.5C135.286 209.98 136.456 211.13 137.916 211.13ZM137.916 210.28C136.926 210.28 136.156 209.51 136.156 208.5C136.156 207.49 136.926 206.72 137.916 206.72C138.916 206.72 139.686 207.49 139.686 208.5C139.686 209.51 138.916 210.28 137.916 210.28Z" fill="#172B4D"/>
<path d="M142.452 206.84V206H141.582V211H142.452V208.35C142.452 207.17 143.262 206.79 144.012 206.82V205.91C143.382 205.91 142.772 206.14 142.452 206.84Z" fill="#172B4D"/>
<path d="M145.2 208.9H149.39C149.41 208.77 149.42 208.64 149.42 208.51C149.42 207.11 148.44 205.87 146.93 205.87C145.37 205.87 144.31 207.02 144.31 208.5C144.31 210 145.38 211.13 146.99 211.13C147.99 211.13 148.75 210.68 149.19 210L148.45 209.58C148.2 209.99 147.7 210.31 147.01 210.31C146.08 210.31 145.37 209.8 145.2 208.9ZM146.93 206.69C147.68 206.69 148.39 207.15 148.54 208.14H145.2C145.34 207.27 145.99 206.69 146.93 206.69Z" fill="#172B4D"/>
<path d="M23.6298 215.888C23.6298 215.888 23.6302 215.888 24 215.333L24.3698 215.888C24.1459 216.037 23.8538 216.037 23.6298 215.888Z" fill="#719F64"/>
<path fill-rule="evenodd" clip-rule="evenodd" d="M24 204C22.5272 204 21.3333 205.194 21.3333 206.667C21.3333 208.139 22.5272 209.333 24 209.333C25.4728 209.333 26.6667 208.139 26.6667 206.667C26.6667 205.194 25.4728 204 24 204ZM22.6667 206.667C22.6667 205.93 23.2636 205.333 24 205.333C24.7364 205.333 25.3333 205.93 25.3333 206.667C25.3333 207.403 24.7364 208 24 208C23.2636 208 22.6667 207.403 22.6667 206.667Z" fill="#719F64"/>
<path fill-rule="evenodd" clip-rule="evenodd" d="M23.6298 215.888L24 215.333C24.3698 215.888 24.3707 215.887 24.3707 215.887L24.3721 215.887L24.3765 215.884L24.3918 215.873C24.4048 215.864 24.4233 215.852 24.447 215.835C24.4943 215.803 24.5624 215.755 24.6481 215.693C24.8196 215.569 25.0624 215.388 25.3528 215.157C25.9324 214.695 26.7071 214.029 27.484 213.208C29.0105 211.597 30.6667 209.268 30.6667 206.667C30.6667 204.899 29.9643 203.203 28.714 201.953C27.4638 200.702 25.7681 200 24 200C22.2319 200 20.5362 200.702 19.2859 201.953C18.0357 203.203 17.3333 204.899 17.3333 206.667C17.3333 209.268 18.9895 211.597 20.516 213.208C21.2929 214.029 22.0675 214.695 22.6472 215.157C22.9376 215.388 23.1804 215.569 23.3519 215.693C23.4376 215.755 23.5057 215.803 23.553 215.835C23.5767 215.852 23.5952 215.864 23.6082 215.873L23.6235 215.884L23.6279 215.887L23.6298 215.888ZM20.2288 202.895C21.229 201.895 22.5855 201.333 24 201.333C25.4145 201.333 26.771 201.895 27.7712 202.895C28.7714 203.896 29.3333 205.252 29.3333 206.667C29.3333 208.732 27.9895 210.736 26.516 212.292C25.7929 213.055 25.0676 213.68 24.5222 214.114C24.3193 214.276 24.142 214.41 24 214.515C23.858 214.41 23.6807 214.276 23.4778 214.114C22.9324 213.68 22.2071 213.055 21.484 212.292C20.0105 210.736 18.6667 208.732 18.6667 206.667C18.6667 205.252 19.2286 203.896 20.2288 202.895Z" fill="#719F64"/>
<path d="M123.049 39L119.449 32.72V31.24H120.649C121.355 31.24 121.949 31.0866 122.429 30.78C122.909 30.46 123.215 30.02 123.349 29.46H119.449V27.98H123.329C123.209 27.4733 122.962 27.0533 122.589 26.72C122.215 26.3733 121.695 26.2 121.029 26.2H119.449V24.72H128.469V26.2H125.329C125.795 26.7066 126.089 27.3 126.209 27.98H128.469V29.46H126.249C126.115 30.4466 125.735 31.22 125.109 31.78C124.482 32.3266 123.675 32.7 122.689 32.9L126.609 39H123.049Z" fill="#719F64"/>
<path d="M130.134 39H139.494V36.34H134.234L136.974 33.6C138.294 32.28 139.274 30.82 139.274 29.12C139.274 26.32 137.054 24.72 134.654 24.72C132.754 24.72 130.934 25.68 130.034 27.68L132.354 29.04C132.814 28.04 133.614 27.4 134.694 27.4C135.754 27.4 136.514 28.1 136.514 29.22C136.514 30.16 135.814 31.08 134.914 32.02L130.134 36.94V39Z" fill="#719F64"/>
<path d="M145.565 30.1H144.125L144.305 27.58H149.685V25H141.745L141.185 32.78H145.425C146.785 32.78 147.585 33.56 147.585 34.68C147.585 35.82 146.785 36.58 145.345 36.58C143.945 36.58 143.165 35.98 142.825 34.9L140.465 36.28C141.265 38.32 143.165 39.28 145.345 39.28C147.985 39.28 150.345 37.68 150.345 34.68C150.345 31.68 148.125 30.1 145.565 30.1Z" fill="#719F64"/>
<path d="M157.105 39.28C160.685 39.28 162.705 36.32 162.705 32C162.705 27.68 160.685 24.72 157.105 24.72C153.545 24.72 151.505 27.68 151.505 32C151.505 36.32 153.545 39.28 157.105 39.28ZM157.105 36.58C155.225 36.58 154.265 34.96 154.265 32C154.265 29.04 155.225 27.4 157.105 27.4C158.985 27.4 159.965 29.04 159.965 32C159.965 34.96 158.985 36.58 157.105 36.58Z" fill="#719F64"/>
<path d="M169.702 39.28C173.282 39.28 175.302 36.32 175.302 32C175.302 27.68 173.282 24.72 169.702 24.72C166.142 24.72 164.102 27.68 164.102 32C164.102 36.32 166.142 39.28 169.702 39.28ZM169.702 36.58C167.822 36.58 166.862 34.96 166.862 32C166.862 29.04 167.822 27.4 169.702 27.4C171.582 27.4 172.562 29.04 172.562 32C172.562 34.96 171.582 36.58 169.702 36.58Z" fill="#719F64"/>
<path d="M17.85 33.9V32.01H20.65V30.92H17.85V29.1H20.9V28H16.7V35H20.95V33.9H17.85Z" fill="#42526E"/>
<path d="M27.6604 35H28.9004L26.3704 28H24.9904L22.4504 35H23.7004L24.1904 33.59H27.1704L27.6604 35ZM24.5704 32.51L25.6804 29.35L26.7904 32.51H24.5704Z" fill="#42526E"/>
<path d="M34.6431 35H35.9031L34.3131 32.28C35.1331 31.95 35.7031 31.15 35.7031 30.25C35.7031 29 34.7031 28 33.4531 28H30.6531V35H31.8031V32.45H33.1631L34.6431 35ZM31.8031 29.08H33.4531C34.0631 29.08 34.5531 29.59 34.5531 30.25C34.5531 30.9 34.0631 31.42 33.4531 31.42H31.8031V29.08Z" fill="#42526E"/>
<path d="M38.9359 33.9V28H37.7859V35H41.7859V33.9H38.9359Z" fill="#42526E"/>
<path d="M48.121 28H46.811L45.111 31.1L43.401 28H42.091L44.531 32.22V35H45.681V32.22L48.121 28Z" fill="#42526E"/>
<path d="M57.4938 31.37C57.9338 31.05 58.2038 30.55 58.2038 29.94C58.2038 28.82 57.2838 28 56.1538 28H53.3738V35H56.3738C57.5338 35 58.4738 34.16 58.4738 33C58.4738 32.25 58.0838 31.68 57.4938 31.37ZM56.1538 29.08C56.6638 29.08 57.0538 29.48 57.0538 30C57.0538 30.52 56.6638 30.92 56.1538 30.92H54.5238V29.08H56.1538ZM56.3738 33.92H54.5238V31.96H56.3738C56.9138 31.96 57.3238 32.39 57.3238 32.94C57.3238 33.49 56.9138 33.92 56.3738 33.92Z" fill="#42526E"/>
<path d="M60.4774 28V35H61.6274V28H60.4774Z" fill="#42526E"/>
<path d="M68.0162 35H69.2762L67.6862 32.28C68.5062 31.95 69.0762 31.15 69.0762 30.25C69.0762 29 68.0762 28 66.8262 28H64.0262V35H65.1762V32.45H66.5362L68.0162 35ZM65.1762 29.08H66.8262C67.4362 29.08 67.9262 29.59 67.9262 30.25C67.9262 30.9 67.4362 31.42 66.8262 31.42H65.1762V29.08Z" fill="#42526E"/>
<path d="M73.909 28H71.159V35H73.909C75.839 35 77.259 33.45 77.259 31.5C77.259 29.54 75.839 28 73.909 28ZM73.909 33.9H72.309V29.1H73.909C75.239 29.1 76.149 30.11 76.149 31.5C76.149 32.88 75.239 33.9 73.909 33.9Z" fill="#42526E"/>
<path d="M23.5 66.53H20V67.37H22.57C22.39 68.42 21.53 69.22 20.08 69.22C18.41 69.22 17.3 68.02 17.3 66.5C17.3 64.97 18.42 63.77 20.04 63.77C21.03 63.77 21.88 64.28 22.28 65.03L23.08 64.56C22.5 63.56 21.36 62.87 20.05 62.87C17.92 62.87 16.38 64.49 16.38 66.5C16.38 68.5 17.91 70.13 20.07 70.13C22.18 70.13 23.5 68.73 23.5 66.95V66.53Z" fill="#7A869A"/>
<path d="M25.4109 65.84V65H24.5409V70H25.4109V67.35C25.4109 66.17 26.2209 65.79 26.9709 65.82V64.91C26.3409 64.91 25.7309 65.14 25.4109 65.84Z" fill="#7A869A"/>
<path d="M31.6887 65V65.86C31.2887 65.25 30.6487 64.87 29.7987 64.87C28.4087 64.87 27.2687 66.02 27.2687 67.5C27.2687 68.98 28.4087 70.13 29.7987 70.13C30.6487 70.13 31.2887 69.75 31.6887 69.14V70H32.5587V65H31.6887ZM29.9087 69.29C28.9087 69.29 28.1387 68.52 28.1387 67.5C28.1387 66.48 28.9087 65.71 29.9087 65.71C30.9187 65.71 31.6887 66.48 31.6887 67.5C31.6887 68.52 30.9187 69.29 29.9087 69.29Z" fill="#7A869A"/>
<path d="M36.3668 64.87C35.6668 64.87 35.1168 65.13 34.7468 65.72V65H33.8768V70H34.7468V67.35C34.7468 66.17 35.3968 65.7 36.1968 65.7C36.9668 65.7 37.4368 66.16 37.4368 66.98V70H38.3068V66.93C38.3068 65.65 37.5368 64.87 36.3668 64.87Z" fill="#7A869A"/>
<path d="M42.2413 65.84V65H40.9113V63.6L40.0413 63.86V65H39.0513V65.84H40.0413V68.55C40.0413 69.8 40.7413 70.2 42.2413 70V69.22C41.3513 69.26 40.9113 69.31 40.9113 68.55V65.84H42.2413Z" fill="#7A869A"/>
<path d="M43.7772 66.35C43.7772 65.9 44.2172 65.68 44.6672 65.68C45.1072 65.68 45.5472 65.87 45.7372 66.32L46.4672 65.91C46.1472 65.26 45.4872 64.87 44.6672 64.87C43.6572 64.87 42.8972 65.48 42.8972 66.36C42.8972 68.17 45.6972 67.56 45.6972 68.63C45.6972 69.12 45.2372 69.31 44.7072 69.31C44.0872 69.31 43.6272 69.01 43.4672 68.53L42.7172 68.96C43.0072 69.65 43.7072 70.13 44.7072 70.13C45.7772 70.13 46.5772 69.56 46.5772 68.63C46.5772 66.79 43.7772 67.42 43.7772 66.35Z" fill="#7A869A"/>
<path d="M54.8073 70H55.7973L53.1873 63H52.1373L49.5273 70H50.5173L51.0873 68.43H54.2373L54.8073 70ZM51.4073 67.56L52.6573 64.11L53.9173 67.56H51.4073Z" fill="#7A869A"/>
<path d="M58.7659 70.13C59.7459 70.13 60.5959 69.61 61.0159 68.83L60.2759 68.4C59.9959 68.92 59.4459 69.27 58.7659 69.27C57.7659 69.27 57.0059 68.5 57.0059 67.5C57.0059 66.49 57.7659 65.72 58.7659 65.72C59.4359 65.72 59.9959 66.07 60.2459 66.6L60.9759 66.18C60.5959 65.39 59.7559 64.87 58.7659 64.87C57.2559 64.87 56.1359 66.02 56.1359 67.5C56.1359 68.98 57.2559 70.13 58.7659 70.13Z" fill="#7A869A"/>
<path d="M64.1565 70.13C65.1365 70.13 65.9865 69.61 66.4065 68.83L65.6665 68.4C65.3865 68.92 64.8365 69.27 64.1565 69.27C63.1565 69.27 62.3965 68.5 62.3965 67.5C62.3965 66.49 63.1565 65.72 64.1565 65.72C64.8265 65.72 65.3865 66.07 65.6365 66.6L66.3665 66.18C65.9865 65.39 65.1465 64.87 64.1565 64.87C62.6465 64.87 61.5265 66.02 61.5265 67.5C61.5265 68.98 62.6465 70.13 64.1565 70.13Z" fill="#7A869A"/>
<path d="M67.8071 67.9H71.9971C72.0171 67.77 72.0271 67.64 72.0271 67.51C72.0271 66.11 71.0471 64.87 69.5371 64.87C67.9771 64.87 66.9171 66.02 66.9171 67.5C66.9171 69 67.9871 70.13 69.5971 70.13C70.5971 70.13 71.3571 69.68 71.7971 69L71.0571 68.58C70.8071 68.99 70.3071 69.31 69.6171 69.31C68.6871 69.31 67.9771 68.8 67.8071 67.9ZM69.5371 65.69C70.2871 65.69 70.9971 66.15 71.1471 67.14H67.8071C67.9471 66.27 68.5971 65.69 69.5371 65.69Z" fill="#7A869A"/>
<path d="M73.5819 66.35C73.5819 65.9 74.0219 65.68 74.4719 65.68C74.9119 65.68 75.3519 65.87 75.5419 66.32L76.2719 65.91C75.9519 65.26 75.2919 64.87 74.4719 64.87C73.4619 64.87 72.7019 65.48 72.7019 66.36C72.7019 68.17 75.5019 67.56 75.5019 68.63C75.5019 69.12 75.0419 69.31 74.5119 69.31C73.8919 69.31 73.4319 69.01 73.2719 68.53L72.5219 68.96C72.8119 69.65 73.5119 70.13 74.5119 70.13C75.5819 70.13 76.3819 69.56 76.3819 68.63C76.3819 66.79 73.5819 67.42 73.5819 66.35Z" fill="#7A869A"/>
<path d="M77.8495 66.35C77.8495 65.9 78.2895 65.68 78.7395 65.68C79.1795 65.68 79.6195 65.87 79.8095 66.32L80.5395 65.91C80.2195 65.26 79.5595 64.87 78.7395 64.87C77.7295 64.87 76.9695 65.48 76.9695 66.36C76.9695 68.17 79.7695 67.56 79.7695 68.63C79.7695 69.12 79.3095 69.31 78.7795 69.31C78.1595 69.31 77.6995 69.01 77.5395 68.53L76.7895 68.96C77.0795 69.65 77.7795 70.13 78.7795 70.13C79.8495 70.13 80.6495 69.56 80.6495 68.63C80.6495 66.79 77.8495 67.42 77.8495 66.35Z" fill="#7A869A"/>
<path d="M86.8095 63H84.2695V70H85.1995V67.5H86.8095C88.0995 67.5 89.0695 66.52 89.0695 65.25C89.0695 63.97 88.0995 63 86.8095 63ZM86.8095 66.63H85.1995V63.87H86.8095C87.5795 63.87 88.1495 64.45 88.1495 65.25C88.1495 66.04 87.5795 66.63 86.8095 66.63Z" fill="#7A869A"/>
<path d="M90.3071 67.9H94.4971C94.5171 67.77 94.5271 67.64 94.5271 67.51C94.5271 66.11 93.5471 64.87 92.0371 64.87C90.4771 64.87 89.4171 66.02 89.4171 67.5C89.4171 69 90.4871 70.13 92.0971 70.13C93.0971 70.13 93.8571 69.68 94.2971 69L93.5571 68.58C93.3071 68.99 92.8071 69.31 92.1171 69.31C91.1871 69.31 90.4771 68.8 90.3071 67.9ZM92.0371 65.69C92.7871 65.69 93.4971 66.15 93.6471 67.14H90.3071C90.4471 66.27 91.0971 65.69 92.0371 65.69Z" fill="#7A869A"/>
<path d="M96.3972 65.84V65H95.5272V70H96.3972V67.35C96.3972 66.17 97.2072 65.79 97.9572 65.82V64.91C97.3272 64.91 96.7172 65.14 96.3972 65.84Z" fill="#7A869A"/>
<path d="M106.008 70H106.998L104.388 63H103.338L100.728 70H101.718L102.288 68.43H105.438L106.008 70ZM102.608 67.56L103.858 64.11L105.118 67.56H102.608Z" fill="#7A869A"/>
<path d="M111.757 63V65.86C111.357 65.25 110.717 64.87 109.867 64.87C108.477 64.87 107.337 66.02 107.337 67.5C107.337 68.98 108.477 70.13 109.867 70.13C110.717 70.13 111.357 69.75 111.757 69.14V70H112.627V63H111.757ZM109.977 69.29C108.977 69.29 108.207 68.52 108.207 67.5C108.207 66.48 108.977 65.71 109.977 65.71C110.987 65.71 111.757 66.48 111.757 67.5C111.757 68.52 110.987 69.29 109.977 69.29Z" fill="#7A869A"/>
<path d="M117.395 65V67.65C117.395 68.83 116.745 69.3 115.945 69.3C115.175 69.3 114.705 68.84 114.705 68.02V65H113.835V68.07C113.835 69.35 114.605 70.13 115.775 70.13C116.475 70.13 117.025 69.87 117.395 69.28V70H118.265V65H117.395Z" fill="#7A869A"/>
<path d="M119.59 70H120.46V62.7H119.59V70Z" fill="#7A869A"/>
<path d="M124.507 65.84V65H123.177V63.6L122.307 63.86V65H121.317V65.84H122.307V68.55C122.307 69.8 123.007 70.2 124.507 70V69.22C123.617 69.26 123.177 69.31 123.177 68.55V65.84H124.507Z" fill="#7A869A"/>
<path d="M126.866 68.97H125.866L125.466 71.4H126.216L126.866 68.97Z" fill="#7A869A"/>
<path d="M130.686 63V70H131.616V63H130.686Z" fill="#7A869A"/>
<path d="M135.517 64.87C134.817 64.87 134.267 65.13 133.897 65.72V65H133.027V70H133.897V67.35C133.897 66.17 134.547 65.7 135.347 65.7C136.117 65.7 136.587 66.16 136.587 66.98V70H137.457V66.93C137.457 65.65 136.687 64.87 135.517 64.87Z" fill="#7A869A"/>
<path d="M141.022 70.13C142.002 70.13 142.852 69.61 143.272 68.83L142.532 68.4C142.252 68.92 141.702 69.27 141.022 69.27C140.022 69.27 139.262 68.5 139.262 67.5C139.262 66.49 140.022 65.72 141.022 65.72C141.692 65.72 142.252 66.07 142.502 66.6L143.232 66.18C142.852 65.39 142.012 64.87 141.022 64.87C139.512 64.87 138.392 66.02 138.392 67.5C138.392 68.98 139.512 70.13 141.022 70.13Z" fill="#7A869A"/>
<path d="M144.131 70H145.001V62.7H144.131V70Z" fill="#7A869A"/>
<path d="M149.778 65V67.65C149.778 68.83 149.128 69.3 148.328 69.3C147.558 69.3 147.088 68.84 147.088 68.02V65H146.218V68.07C146.218 69.35 146.988 70.13 148.158 70.13C148.858 70.13 149.408 69.87 149.778 69.28V70H150.648V65H149.778Z" fill="#7A869A"/>
<path d="M156.113 63V65.86C155.713 65.25 155.073 64.87 154.223 64.87C152.833 64.87 151.693 66.02 151.693 67.5C151.693 68.98 152.833 70.13 154.223 70.13C155.073 70.13 155.713 69.75 156.113 69.14V70H156.982V63H156.113ZM154.333 69.29C153.333 69.29 152.562 68.52 152.562 67.5C152.562 66.48 153.333 65.71 154.333 65.71C155.342 65.71 156.113 66.48 156.113 67.5C156.113 68.52 155.342 69.29 154.333 69.29Z" fill="#7A869A"/>
<path d="M158.911 67.9H163.101C163.121 67.77 163.131 67.64 163.131 67.51C163.131 66.11 162.151 64.87 160.641 64.87C159.081 64.87 158.021 66.02 158.021 67.5C158.021 69 159.091 70.13 160.701 70.13C161.701 70.13 162.461 69.68 162.901 69L162.161 68.58C161.911 68.99 161.411 69.31 160.721 69.31C159.791 69.31 159.081 68.8 158.911 67.9ZM160.641 65.69C161.391 65.69 162.101 66.15 162.251 67.14H158.911C159.051 66.27 159.701 65.69 160.641 65.69Z" fill="#7A869A"/>
<path d="M164.685 66.35C164.685 65.9 165.125 65.68 165.575 65.68C166.015 65.68 166.455 65.87 166.645 66.32L167.375 65.91C167.055 65.26 166.395 64.87 165.575 64.87C164.565 64.87 163.805 65.48 163.805 66.36C163.805 68.17 166.605 67.56 166.605 68.63C166.605 69.12 166.145 69.31 165.615 69.31C164.995 69.31 164.535 69.01 164.375 68.53L163.625 68.96C163.915 69.65 164.615 70.13 165.615 70.13C166.685 70.13 167.485 69.56 167.485 68.63C167.485 66.79 164.685 67.42 164.685 66.35Z" fill="#7A869A"/>
<path d="M20.04 84.13C21.34 84.13 22.48 83.45 23.06 82.42L22.25 81.9599C21.85 82.7199 21 83.22 20.04 83.22C18.4 83.22 17.3 82.03 17.3 80.5C17.3 78.96 18.4 77.77 20.04 77.77C21 77.77 21.85 78.27 22.25 79.04L23.06 78.57C22.47 77.54 21.33 76.87 20.04 76.87C17.9 76.87 16.38 78.4799 16.38 80.5C16.38 82.51 17.9 84.13 20.04 84.13Z" fill="#7A869A"/>
<path d="M26.3538 84.13C27.8138 84.13 28.9938 82.9799 28.9938 81.5C28.9938 80.02 27.8138 78.8699 26.3538 78.8699C24.8938 78.8699 23.7238 80.02 23.7238 81.5C23.7238 82.9799 24.8938 84.13 26.3538 84.13ZM26.3538 83.28C25.3638 83.28 24.5938 82.51 24.5938 81.5C24.5938 80.49 25.3638 79.72 26.3538 79.72C27.3538 79.72 28.1238 80.49 28.1238 81.5C28.1238 82.51 27.3538 83.28 26.3538 83.28Z" fill="#7A869A"/>
<path d="M33.4694 79V81.65C33.4694 82.83 32.8194 83.2999 32.0194 83.2999C31.2494 83.2999 30.7794 82.84 30.7794 82.02V79H29.9094V82.07C29.9094 83.35 30.6794 84.13 31.8494 84.13C32.5494 84.13 33.0994 83.87 33.4694 83.28V84H34.3394V79H33.4694Z" fill="#7A869A"/>
<path d="M36.5339 79.84V79H35.6639V84H36.5339V81.35C36.5339 80.17 37.3439 79.7899 38.0939 79.82V78.91C37.4639 78.91 36.8539 79.1399 36.5339 79.84Z" fill="#7A869A"/>
<path d="M39.5096 80.35C39.5096 79.9 39.9496 79.68 40.3996 79.68C40.8396 79.68 41.2796 79.8699 41.4696 80.32L42.1996 79.91C41.8796 79.26 41.2196 78.8699 40.3996 78.8699C39.3896 78.8699 38.6296 79.48 38.6296 80.36C38.6296 82.17 41.4296 81.56 41.4296 82.63C41.4296 83.12 40.9696 83.31 40.4396 83.31C39.8196 83.31 39.3596 83.01 39.1996 82.53L38.4496 82.9599C38.7396 83.65 39.4396 84.13 40.4396 84.13C41.5096 84.13 42.3096 83.56 42.3096 82.63C42.3096 80.79 39.5096 81.42 39.5096 80.35Z" fill="#7A869A"/>
<path d="M43.813 81.9H48.003C48.023 81.77 48.033 81.64 48.033 81.51C48.033 80.11 47.053 78.8699 45.543 78.8699C43.983 78.8699 42.923 80.02 42.923 81.5C42.923 83 43.993 84.13 45.603 84.13C46.603 84.13 47.363 83.68 47.803 83L47.063 82.58C46.813 82.99 46.313 83.31 45.623 83.31C44.693 83.31 43.983 82.8 43.813 81.9ZM45.543 79.69C46.293 79.69 47.003 80.15 47.153 81.1399H43.813C43.953 80.2699 44.603 79.69 45.543 79.69Z" fill="#7A869A"/>
<path d="M58.173 77H57.1231L54.903 80.7L52.673 77H51.6231V84H52.5531V78.54L54.8431 82.34H54.9631L57.2531 78.53V84H58.173V77Z" fill="#7A869A"/>
<path d="M63.7199 79V79.86C63.3199 79.25 62.6799 78.8699 61.8299 78.8699C60.4399 78.8699 59.2999 80.02 59.2999 81.5C59.2999 82.9799 60.4399 84.13 61.8299 84.13C62.6799 84.13 63.3199 83.75 63.7199 83.1399V84H64.5899V79H63.7199ZM61.9399 83.29C60.9399 83.29 60.1699 82.52 60.1699 81.5C60.1699 80.4799 60.9399 79.7099 61.9399 79.7099C62.9499 79.7099 63.7199 80.4799 63.7199 81.5C63.7199 82.52 62.9499 83.29 61.9399 83.29Z" fill="#7A869A"/>
<path d="M68.6281 79.84V79H67.298V77.6L66.4281 77.86V79H65.438V79.84H66.4281V82.5499C66.4281 83.7999 67.1281 84.2 68.6281 84V83.22C67.7381 83.26 67.298 83.3099 67.298 82.5499V79.84H68.6281Z" fill="#7A869A"/>
<path d="M70.0141 81.9H74.2041C74.2241 81.77 74.2341 81.64 74.2341 81.51C74.2341 80.11 73.2541 78.8699 71.7441 78.8699C70.1841 78.8699 69.1241 80.02 69.1241 81.5C69.1241 83 70.1941 84.13 71.8041 84.13C72.8041 84.13 73.5641 83.68 74.0041 83L73.2641 82.58C73.0141 82.99 72.5141 83.31 71.8241 83.31C70.8941 83.31 70.1841 82.8 70.0141 81.9ZM71.7441 79.69C72.4941 79.69 73.2041 80.15 73.3541 81.1399H70.0141C70.1541 80.2699 70.8041 79.69 71.7441 79.69Z" fill="#7A869A"/>
<path d="M76.1042 79.84V79H75.2342V84H76.1042V81.35C76.1042 80.17 76.9142 79.7899 77.6642 79.82V78.91C77.0342 78.91 76.4242 79.1399 76.1042 79.84Z" fill="#7A869A"/>
<path d="M78.9555 78.09C79.2755 78.09 79.5355 77.83 79.5355 77.51C79.5355 77.19 79.2755 76.92 78.9555 76.92C78.6255 76.92 78.3655 77.19 78.3655 77.51C78.3655 77.83 78.6255 78.09 78.9555 78.09ZM78.5155 84H79.3855V79H78.5155V84Z" fill="#7A869A"/>
<path d="M84.8527 79V79.86C84.4527 79.25 83.8127 78.8699 82.9627 78.8699C81.5727 78.8699 80.4327 80.02 80.4327 81.5C80.4327 82.9799 81.5727 84.13 82.9627 84.13C83.8127 84.13 84.4527 83.75 84.8527 83.1399V84H85.7227V79H84.8527ZM83.0727 83.29C82.0727 83.29 81.3027 82.52 81.3027 81.5C81.3027 80.4799 82.0727 79.7099 83.0727 79.7099C84.0827 79.7099 84.8527 80.4799 84.8527 81.5C84.8527 82.52 84.0827 83.29 83.0727 83.29Z" fill="#7A869A"/>
<path d="M87.0409 84H87.9109V76.7H87.0409V84Z" fill="#7A869A"/>
<path d="M89.9784 80.35C89.9784 79.9 90.4184 79.68 90.8684 79.68C91.3084 79.68 91.7484 79.8699 91.9384 80.32L92.6684 79.91C92.3484 79.26 91.6884 78.8699 90.8684 78.8699C89.8584 78.8699 89.0984 79.48 89.0984 80.36C89.0984 82.17 91.8984 81.56 91.8984 82.63C91.8984 83.12 91.4384 83.31 90.9084 83.31C90.2884 83.31 89.8284 83.01 89.6684 82.53L88.9184 82.9599C89.2084 83.65 89.9084 84.13 90.9084 84.13C91.9784 84.13 92.7784 83.56 92.7784 82.63C92.7784 80.79 89.9784 81.42 89.9784 80.35Z" fill="#7A869A"/>
<g clip-path="url(#clip1_3919_814)">
<path d="M24.6668 140C24.6668 139.632 24.3684 139.333 24.0002 139.333C23.632 139.333 23.3335 139.632 23.3335 140V144C23.3335 144.253 23.4762 144.483 23.702 144.596L26.3687 145.93C26.698 146.094 27.0985 145.961 27.2631 145.632C27.4278 145.302 27.2943 144.902 26.965 144.737L24.6668 143.588V140Z" fill="#719F64"/>
<path fill-rule="evenodd" clip-rule="evenodd" d="M23.9998 136.667C19.9497 136.667 16.6665 139.95 16.6665 144C16.6665 148.05 19.9497 151.333 23.9998 151.333C28.0499 151.333 31.3332 148.05 31.3332 144C31.3332 139.95 28.0499 136.667 23.9998 136.667ZM17.9998 144C17.9998 140.686 20.6861 138 23.9998 138C27.3135 138 29.9998 140.686 29.9998 144C29.9998 147.314 27.3135 150 23.9998 150C20.6861 150 17.9998 147.314 17.9998 144Z" fill="#719F64"/>
</g>
<path d="M39.15 147.13C40.89 147.13 41.85 145.66 41.85 143.5C41.85 141.34 40.89 139.87 39.15 139.87C37.42 139.87 36.45 141.34 36.45 143.5C36.45 145.66 37.42 147.13 39.15 147.13ZM39.15 146.22C38.02 146.22 37.38 145.24 37.38 143.5C37.38 141.76 38.02 140.77 39.15 140.77C40.28 140.77 40.93 141.76 40.93 143.5C40.93 145.24 40.28 146.22 39.15 146.22Z" fill="#172B4D"/>
<path d="M47.3988 142.22C47.3988 140.83 46.3988 139.87 44.9888 139.87C43.5788 139.87 42.5788 140.83 42.5788 142.22C42.5788 143.61 43.5788 144.57 44.9888 144.57C45.1088 144.57 45.2188 144.56 45.3288 144.55L43.6688 147H44.7188L46.9788 143.63H46.9688C47.2488 143.24 47.3988 142.77 47.3988 142.22ZM43.4988 142.22C43.4988 141.34 44.1088 140.76 44.9888 140.76C45.8688 140.76 46.4788 141.33 46.4788 142.22C46.4788 143.11 45.8688 143.69 44.9888 143.69C44.1088 143.69 43.4988 143.11 43.4988 142.22Z" fill="#172B4D"/>
<path d="M48.8897 143.18C49.2597 143.18 49.5397 142.89 49.5397 142.53C49.5397 142.17 49.2597 141.88 48.8897 141.88C48.5297 141.88 48.2397 142.17 48.2397 142.53C48.2397 142.89 48.5297 143.18 48.8897 143.18ZM48.8897 147.11C49.2597 147.11 49.5397 146.82 49.5397 146.46C49.5397 146.1 49.2597 145.81 48.8897 145.81C48.5297 145.81 48.2397 146.1 48.2397 146.46C48.2397 146.82 48.5297 147.11 48.8897 147.11Z" fill="#172B4D"/>
<path d="M53.2713 142.87L54.7913 140.82V140H50.5913V140.87H53.7013L52.0813 143.06L52.4513 143.63H52.6913C53.5313 143.63 54.1613 144.09 54.1613 144.93C54.1613 145.76 53.5313 146.22 52.6913 146.22C51.9313 146.22 51.3813 145.9 51.1713 145.25L50.3913 145.71C50.7513 146.65 51.6613 147.13 52.6913 147.13C53.9513 147.13 55.0913 146.35 55.0913 144.93C55.0913 143.77 54.2813 143.06 53.2713 142.87Z" fill="#172B4D"/>
<path d="M58.6129 147.13C60.3529 147.13 61.3129 145.66 61.3129 143.5C61.3129 141.34 60.3529 139.87 58.6129 139.87C56.8829 139.87 55.9129 141.34 55.9129 143.5C55.9129 145.66 56.8829 147.13 58.6129 147.13ZM58.6129 146.22C57.4829 146.22 56.8429 145.24 56.8429 143.5C56.8429 141.76 57.4829 140.77 58.6129 140.77C59.7429 140.77 60.3929 141.76 60.3929 143.5C60.3929 145.24 59.7429 146.22 58.6129 146.22Z" fill="#172B4D"/>
<path d="M66.819 147H67.809L65.199 140H64.149L61.539 147H62.529L63.099 145.43H66.249L66.819 147ZM63.419 144.56L64.669 141.11L65.929 144.56H63.419Z" fill="#172B4D"/>
<path d="M75.1848 140H74.1348L71.9148 143.7L69.6848 140H68.6348V147H69.5648V141.54L71.8548 145.34H71.9748L74.2648 141.53V147H75.1848V140Z" fill="#172B4D"/>
<path d="M79.1816 144.35H82.8316V143.51H79.1816V144.35Z" fill="#172B4D"/>
<path d="M89.2281 147.13C90.9681 147.13 91.9281 145.66 91.9281 143.5C91.9281 141.34 90.9681 139.87 89.2281 139.87C87.4981 139.87 86.5281 141.34 86.5281 143.5C86.5281 145.66 87.4981 147.13 89.2281 147.13ZM89.2281 146.22C88.0981 146.22 87.4581 145.24 87.4581 143.5C87.4581 141.76 88.0981 140.77 89.2281 140.77C90.3581 140.77 91.0081 141.76 91.0081 143.5C91.0081 145.24 90.3581 146.22 89.2281 146.22Z" fill="#172B4D"/>
<path d="M95.0477 142.73H94.0277L94.1477 140.87H97.1377V140H93.3077L93.0477 143.63H95.0277C95.8577 143.63 96.4877 144.09 96.4877 144.93C96.4877 145.76 95.8577 146.22 95.0077 146.22C94.2477 146.22 93.6777 145.87 93.4877 145.18L92.6977 145.63C93.0377 146.63 93.9777 147.13 95.0077 147.13C96.2677 147.13 97.4077 146.35 97.4077 144.93C97.4077 143.5 96.2977 142.73 95.0477 142.73Z" fill="#172B4D"/>
<path d="M98.792 143.18C99.162 143.18 99.442 142.89 99.442 142.53C99.442 142.17 99.162 141.88 98.792 141.88C98.432 141.88 98.142 142.17 98.142 142.53C98.142 142.89 98.432 143.18 98.792 143.18ZM98.792 147.11C99.162 147.11 99.442 146.82 99.442 146.46C99.442 146.1 99.162 145.81 98.792 145.81C98.432 145.81 98.142 146.1 98.142 146.46C98.142 146.82 98.432 147.11 98.792 147.11Z" fill="#172B4D"/>
<path d="M103.174 142.87L104.694 140.82V140H100.494V140.87H103.604L101.984 143.06L102.354 143.63H102.594C103.434 143.63 104.064 144.09 104.064 144.93C104.064 145.76 103.434 146.22 102.594 146.22C101.834 146.22 101.284 145.9 101.074 145.25L100.294 145.71C100.654 146.65 101.564 147.13 102.594 147.13C103.854 147.13 104.994 146.35 104.994 144.93C104.994 143.77 104.184 143.06 103.174 142.87Z" fill="#172B4D"/>
<path d="M108.515 147.13C110.255 147.13 111.215 145.66 111.215 143.5C111.215 141.34 110.255 139.87 108.515 139.87C106.785 139.87 105.815 141.34 105.815 143.5C105.815 145.66 106.785 147.13 108.515 147.13ZM108.515 146.22C107.385 146.22 106.745 145.24 106.745 143.5C106.745 141.76 107.385 140.77 108.515 140.77C109.645 140.77 110.295 141.76 110.295 143.5C110.295 145.24 109.645 146.22 108.515 146.22Z" fill="#172B4D"/>
<path d="M114.954 140H112.414V147H113.344V144.5H114.954C116.244 144.5 117.214 143.52 117.214 142.25C117.214 140.97 116.244 140 114.954 140ZM114.954 143.63H113.344V140.87H114.954C115.724 140.87 116.294 141.45 116.294 142.25C116.294 143.04 115.724 143.63 114.954 143.63Z" fill="#172B4D"/>
<path d="M124.863 140H123.812L121.592 143.7L119.363 140H118.312V147H119.243V141.54L121.533 145.34H121.652L123.942 141.53V147H124.863V140Z" fill="#172B4D"/>
<path fill-rule="evenodd" clip-rule="evenodd" d="M27.3333 169.333C27.3333 168.965 27.0349 168.667 26.6667 168.667C26.2985 168.667 26 168.965 26 169.333V170H22V169.333C22 168.965 21.7015 168.667 21.3333 168.667C20.9652 168.667 20.6667 168.965 20.6667 169.333V170H19.3333C18.2288 170 17.3333 170.895 17.3333 172V181.333C17.3333 182.438 18.2288 183.333 19.3333 183.333H28.6667C29.7712 183.333 30.6667 182.438 30.6667 181.333V172C30.6667 170.895 29.7712 170 28.6667 170H27.3333V169.333ZM29.3333 174V172C29.3333 171.632 29.0349 171.333 28.6667 171.333H27.3333V172C27.3333 172.368 27.0349 172.667 26.6667 172.667C26.2985 172.667 26 172.368 26 172V171.333H22V172C22 172.368 21.7015 172.667 21.3333 172.667C20.9652 172.667 20.6667 172.368 20.6667 172V171.333H19.3333C18.9652 171.333 18.6667 171.632 18.6667 172V174H29.3333ZM18.6667 175.333H29.3333V181.333C29.3333 181.701 29.0349 182 28.6667 182H19.3333C18.9652 182 18.6667 181.701 18.6667 181.333V175.333Z" fill="#719F64"/>
<path d="M39.01 179.13C40.44 179.13 41.43 178.35 41.43 177.12C41.43 175.77 40.28 175.41 39.06 175.01C38.08 174.7 37.59 174.46 37.59 173.81C37.59 173.17 38.11 172.77 38.86 172.77C39.71 172.77 40.2 173.25 40.45 173.85L41.23 173.4C40.84 172.52 40.01 171.87 38.86 171.87C37.69 171.87 36.66 172.59 36.66 173.85C36.66 175.15 37.74 175.5 38.86 175.86C39.89 176.18 40.51 176.42 40.51 177.14C40.51 177.77 40.02 178.22 39.03 178.22C38.01 178.22 37.41 177.72 37.16 176.95L36.36 177.41C36.73 178.46 37.68 179.13 39.01 179.13Z" fill="#172B4D"/>
<path d="M45.8913 174V176.65C45.8913 177.83 45.2413 178.3 44.4413 178.3C43.6713 178.3 43.2013 177.84 43.2013 177.02V174H42.3313V177.07C42.3313 178.35 43.1013 179.13 44.2713 179.13C44.9713 179.13 45.5213 178.87 45.8913 178.28V179H46.7613V174H45.8913Z" fill="#172B4D"/>
<path d="M50.5758 173.87C49.8758 173.87 49.3258 174.13 48.9558 174.72V174H48.0858V179H48.9558V176.35C48.9558 175.17 49.6058 174.7 50.4058 174.7C51.1758 174.7 51.6458 175.16 51.6458 175.98V179H52.5158V175.93C52.5158 174.65 51.7458 173.87 50.5758 173.87Z" fill="#172B4D"/>
<path d="M55.0303 177.97H54.0303L53.6303 180.4H54.3803L55.0303 177.97Z" fill="#172B4D"/>
<path d="M60.0796 172L58.2396 172.64L58.4696 173.44L59.9596 173V179H60.8796V172H60.0796Z" fill="#172B4D"/>
<path d="M65.7441 175.38C66.2541 175.06 66.6041 174.54 66.6041 173.85C66.6041 172.51 65.5441 171.87 64.4341 171.87C63.3341 171.87 62.2741 172.51 62.2741 173.85C62.2741 174.54 62.6241 175.06 63.1341 175.38C62.4641 175.72 62.0441 176.32 62.0441 177.08C62.0441 178.39 63.0741 179.13 64.4341 179.13C65.8041 179.13 66.8341 178.39 66.8341 177.08C66.8341 176.32 66.4141 175.72 65.7441 175.38ZM64.4341 172.76C65.0941 172.76 65.6741 173.09 65.6741 173.87C65.6741 174.61 65.0941 174.99 64.4341 174.99C63.7841 174.99 63.1941 174.61 63.1941 173.87C63.1941 173.09 63.7841 172.76 64.4341 172.76ZM64.4341 178.24C63.5841 178.24 62.9641 177.83 62.9641 177.02C62.9641 176.22 63.5841 175.81 64.4341 175.81C65.2941 175.81 65.9141 176.22 65.9141 177.02C65.9141 177.83 65.2941 178.24 64.4341 178.24Z" fill="#172B4D"/>
<path d="M72.2809 179.13C73.5609 179.13 74.6309 178.41 74.6309 176.95V172H73.7109V176.95C73.7109 177.82 73.1409 178.22 72.2809 178.22C71.6009 178.22 71.1009 177.98 70.8809 177.42L70.0909 177.88C70.4609 178.71 71.2909 179.13 72.2809 179.13Z" fill="#172B4D"/>
<path d="M79.3971 174V176.65C79.3971 177.83 78.7471 178.3 77.9471 178.3C77.1771 178.3 76.7071 177.84 76.7071 177.02V174H75.8371V177.07C75.8371 178.35 76.6071 179.13 77.7771 179.13C78.4771 179.13 79.0271 178.87 79.3971 178.28V179H80.2671V174H79.3971Z" fill="#172B4D"/>
<path d="M81.5916 179H82.4616V171.7H81.5916V179Z" fill="#172B4D"/>
<path d="M85.9889 179H90.5089V178.1H87.3389L89.1289 176.32C89.8189 175.63 90.3789 174.88 90.3789 174.01C90.3789 172.63 89.2889 171.87 88.1989 171.87C87.2889 171.87 86.4389 172.32 85.9889 173.25L86.7689 173.71C87.0689 173.08 87.5689 172.77 88.2089 172.77C88.8589 172.77 89.4489 173.2 89.4489 174.02C89.4489 174.61 89.0089 175.17 88.4589 175.72L85.9889 178.24V179Z" fill="#172B4D"/>
<path d="M93.9547 179.13C95.6947 179.13 96.6547 177.66 96.6547 175.5C96.6547 173.34 95.6947 171.87 93.9547 171.87C92.2247 171.87 91.2547 173.34 91.2547 175.5C91.2547 177.66 92.2247 179.13 93.9547 179.13ZM93.9547 178.22C92.8247 178.22 92.1847 177.24 92.1847 175.5C92.1847 173.76 92.8247 172.77 93.9547 172.77C95.0847 172.77 95.7347 173.76 95.7347 175.5C95.7347 177.24 95.0847 178.22 93.9547 178.22Z" fill="#172B4D"/>
<path d="M97.3366 179H101.857V178.1H98.6866L100.477 176.32C101.167 175.63 101.727 174.88 101.727 174.01C101.727 172.63 100.637 171.87 99.5466 171.87C98.6366 171.87 97.7866 172.32 97.3366 173.25L98.1166 173.71C98.4166 173.08 98.9166 172.77 99.5566 172.77C100.207 172.77 100.797 173.2 100.797 174.02C100.797 174.61 100.357 175.17 99.8066 175.72L97.3366 178.24V179Z" fill="#172B4D"/>
<path d="M105.302 179.13C107.042 179.13 108.002 177.66 108.002 175.5C108.002 173.34 107.042 171.87 105.302 171.87C103.572 171.87 102.602 173.34 102.602 175.5C102.602 177.66 103.572 179.13 105.302 179.13ZM105.302 178.22C104.172 178.22 103.532 177.24 103.532 175.5C103.532 173.76 104.172 172.77 105.302 172.77C106.432 172.77 107.082 173.76 107.082 175.5C107.082 177.24 106.432 178.22 105.302 178.22Z" fill="#172B4D"/>
<path d="M0 236H192V270C192 276.627 186.627 282 180 282H12C5.37258 282 0 276.627 0 270V236Z" fill="#5E8553"/>
<path d="M54.8853 258.644C55.3773 258.248 55.6773 257.684 55.6773 256.964C55.6773 255.56 54.5373 254.6 53.1213 254.6H49.8093V263H53.3733C54.8253 263 55.9893 262.004 55.9893 260.564C55.9893 259.688 55.5573 259.028 54.8853 258.644ZM53.1213 256.148C53.6493 256.148 54.0213 256.544 54.0213 257.072C54.0213 257.6 53.6373 257.996 53.1213 257.996H51.4653V256.148H53.1213ZM53.3733 261.452H51.4653V259.472H53.3733C53.9373 259.472 54.3453 259.892 54.3453 260.456C54.3453 261.032 53.9373 261.452 53.3733 261.452Z" fill="#BEE6A5"/>
<path d="M62.0469 263.168C64.4709 263.168 66.4149 261.248 66.4149 258.8C66.4149 256.34 64.4709 254.432 62.0469 254.432C59.6229 254.432 57.6909 256.34 57.6909 258.8C57.6909 261.248 59.6229 263.168 62.0469 263.168ZM62.0469 261.548C60.5229 261.548 59.3349 260.408 59.3349 258.8C59.3349 257.18 60.5229 256.04 62.0469 256.04C63.5709 256.04 64.7589 257.18 64.7589 258.8C64.7589 260.408 63.5709 261.548 62.0469 261.548Z" fill="#BEE6A5"/>
<path d="M72.5508 263.168C74.9748 263.168 76.9188 261.248 76.9188 258.8C76.9188 256.34 74.9748 254.432 72.5508 254.432C70.1268 254.432 68.1948 256.34 68.1948 258.8C68.1948 261.248 70.1268 263.168 72.5508 263.168ZM72.5508 261.548C71.0268 261.548 69.8388 260.408 69.8388 258.8C69.8388 257.18 71.0268 256.04 72.5508 256.04C74.0748 256.04 75.2628 257.18 75.2628 258.8C75.2628 260.408 74.0748 261.548 72.5508 261.548Z" fill="#BEE6A5"/>
<path d="M85.6467 263L82.4187 258.68L85.5267 254.6H83.6187L80.7387 258.308V254.6H79.0827V263H80.7387V259.064L83.7387 263H85.6467Z" fill="#BEE6A5"/>
<path d="M97.0215 254.6H90.8415V256.184H93.0975V263H94.7535V256.184H97.0215V254.6Z" fill="#BEE6A5"/>
<path d="M98.946 254.6V263H100.602V254.6H98.946Z" fill="#BEE6A5"/>
<path d="M107.141 263.168C108.689 263.168 110.045 262.388 110.753 261.188L109.325 260.36C108.929 261.092 108.101 261.548 107.141 261.548C105.497 261.548 104.417 260.408 104.417 258.8C104.417 257.18 105.497 256.04 107.141 256.04C108.101 256.04 108.917 256.496 109.325 257.24L110.753 256.412C110.033 255.212 108.677 254.432 107.141 254.432C104.597 254.432 102.773 256.34 102.773 258.8C102.773 261.248 104.597 263.168 107.141 263.168Z" fill="#BEE6A5"/>
<path d="M119.334 263L116.106 258.68L119.214 254.6H117.306L114.426 258.308V254.6H112.77V263H114.426V259.064L117.426 263H119.334Z" fill="#BEE6A5"/>
<path d="M122.809 261.416V259.532H125.989V257.972H122.809V256.184H126.289V254.6H121.153V263H126.349V261.416H122.809Z" fill="#BEE6A5"/>
<path d="M134.072 254.6H127.892V256.184H130.148V263H131.804V256.184H134.072V254.6Z" fill="#BEE6A5"/>
<path d="M138.63 263.168C140.418 263.168 141.678 262.208 141.678 260.636C141.678 258.92 140.262 258.476 138.93 258.056C137.658 257.672 137.334 257.396 137.334 256.88C137.334 256.4 137.742 256.04 138.438 256.04C139.29 256.04 139.746 256.484 140.046 257.12L141.438 256.316C140.874 255.14 139.818 254.432 138.438 254.432C136.998 254.432 135.678 255.344 135.678 256.928C135.678 258.524 136.926 259.064 138.21 259.436C139.458 259.796 140.022 260.036 140.022 260.66C140.022 261.128 139.674 261.548 138.678 261.548C137.634 261.548 137.046 261.044 136.746 260.264L135.33 261.092C135.786 262.34 136.914 263.168 138.63 263.168Z" fill="#BEE6A5"/>
<path fill-rule="evenodd" clip-rule="evenodd" d="M16 111.5C16 111.224 16.2239 111 16.5 111H16.9969C17.273 111 17.4969 111.224 17.4969 111.5C17.4969 111.776 17.273 112 16.9969 112H16.5C16.2239 112 16 111.776 16 111.5ZM20.4719 111.5C20.4719 111.224 20.6957 111 20.9719 111H21.9656C22.2418 111 22.4656 111.224 22.4656 111.5C22.4656 111.776 22.2418 112 21.9656 112H20.9719C20.6957 112 20.4719 111.776 20.4719 111.5ZM25.4406 111.5C25.4406 111.224 25.6645 111 25.9406 111H26.9344C27.2105 111 27.4344 111.224 27.4344 111.5C27.4344 111.776 27.2105 112 26.9344 112H25.9406C25.6645 112 25.4406 111.776 25.4406 111.5ZM30.4094 111.5C30.4094 111.224 30.6332 111 30.9094 111H31.9031C32.1793 111 32.4031 111.224 32.4031 111.5C32.4031 111.776 32.1793 112 31.9031 112H30.9094C30.6332 112 30.4094 111.776 30.4094 111.5ZM35.3781 111.5C35.3781 111.224 35.602 111 35.8781 111H36.8719C37.148 111 37.3719 111.224 37.3719 111.5C37.3719 111.776 37.148 112 36.8719 112H35.8781C35.602 112 35.3781 111.776 35.3781 111.5ZM40.3469 111.5C40.3469 111.224 40.5707 111 40.8469 111H41.8406C42.1168 111 42.3406 111.224 42.3406 111.5C42.3406 111.776 42.1168 112 41.8406 112H40.8469C40.5707 112 40.3469 111.776 40.3469 111.5ZM45.3156 111.5C45.3156 111.224 45.5395 111 45.8156 111H46.8094C47.0855 111 47.3094 111.224 47.3094 111.5C47.3094 111.776 47.0855 112 46.8094 112H45.8156C45.5395 112 45.3156 111.776 45.3156 111.5ZM50.2844 111.5C50.2844 111.224 50.5082 111 50.7844 111H51.7781C52.0543 111 52.2781 111.224 52.2781 111.5C52.2781 111.776 52.0543 112 51.7781 112H50.7844C50.5082 112 50.2844 111.776 50.2844 111.5ZM55.2531 111.5C55.2531 111.224 55.477 111 55.7531 111H56.7469C57.023 111 57.2469 111.224 57.2469 111.5C57.2469 111.776 57.023 112 56.7469 112H55.7531C55.477 112 55.2531 111.776 55.2531 111.5ZM60.2219 111.5C60.2219 111.224 60.4457 111 60.7219 111H61.7156C61.9918 111 62.2156 111.224 62.2156 111.5C62.2156 111.776 61.9918 112 61.7156 112H60.7219C60.4457 112 60.2219 111.776 60.2219 111.5ZM65.1906 111.5C65.1906 111.224 65.4145 111 65.6906 111H66.6844C66.9605 111 67.1844 111.224 67.1844 111.5C67.1844 111.776 66.9605 112 66.6844 112H65.6906C65.4145 112 65.1906 111.776 65.1906 111.5ZM70.1594 111.5C70.1594 111.224 70.3832 111 70.6594 111H71.6531C71.9293 111 72.1531 111.224 72.1531 111.5C72.1531 111.776 71.9293 112 71.6531 112H70.6594C70.3832 112 70.1594 111.776 70.1594 111.5ZM75.1281 111.5C75.1281 111.224 75.352 111 75.6281 111H76.6219C76.898 111 77.1219 111.224 77.1219 111.5C77.1219 111.776 76.898 112 76.6219 112H75.6281C75.352 112 75.1281 111.776 75.1281 111.5ZM80.0969 111.5C80.0969 111.224 80.3207 111 80.5969 111H81.5906C81.8668 111 82.0906 111.224 82.0906 111.5C82.0906 111.776 81.8668 112 81.5906 112H80.5969C80.3207 112 80.0969 111.776 80.0969 111.5ZM85.0656 111.5C85.0656 111.224 85.2895 111 85.5656 111H86.5594C86.8355 111 87.0594 111.224 87.0594 111.5C87.0594 111.776 86.8355 112 86.5594 112H85.5656C85.2895 112 85.0656 111.776 85.0656 111.5ZM90.0344 111.5C90.0344 111.224 90.2582 111 90.5344 111H91.5281C91.8043 111 92.0281 111.224 92.0281 111.5C92.0281 111.776 91.8043 112 91.5281 112H90.5344C90.2582 112 90.0344 111.776 90.0344 111.5ZM95.0031 111.5C95.0031 111.224 95.227 111 95.5031 111H96.4969C96.773 111 96.9969 111.224 96.9969 111.5C96.9969 111.776 96.773 112 96.4969 112H95.5031C95.227 112 95.0031 111.776 95.0031 111.5ZM99.9719 111.5C99.9719 111.224 100.196 111 100.472 111H101.466C101.742 111 101.966 111.224 101.966 111.5C101.966 111.776 101.742 112 101.466 112H100.472C100.196 112 99.9719 111.776 99.9719 111.5ZM104.941 111.5C104.941 111.224 105.164 111 105.441 111H106.434C106.711 111 106.934 111.224 106.934 111.5C106.934 111.776 106.711 112 106.434 112H105.441C105.164 112 104.941 111.776 104.941 111.5ZM109.909 111.5C109.909 111.224 110.133 111 110.409 111H111.403C111.679 111 111.903 111.224 111.903 111.5C111.903 111.776 111.679 112 111.403 112H110.409C110.133 112 109.909 111.776 109.909 111.5ZM114.878 111.5C114.878 111.224 115.102 111 115.378 111H116.372C116.648 111 116.872 111.224 116.872 111.5C116.872 111.776 116.648 112 116.372 112H115.378C115.102 112 114.878 111.776 114.878 111.5ZM119.847 111.5C119.847 111.224 120.071 111 120.347 111H121.341C121.617 111 121.841 111.224 121.841 111.5C121.841 111.776 121.617 112 121.341 112H120.347C120.071 112 119.847 111.776 119.847 111.5ZM124.816 111.5C124.816 111.224 125.039 111 125.316 111H126.309C126.586 111 126.809 111.224 126.809 111.5C126.809 111.776 126.586 112 126.309 112H125.316C125.039 112 124.816 111.776 124.816 111.5ZM129.784 111.5C129.784 111.224 130.008 111 130.284 111H131.278C131.554 111 131.778 111.224 131.778 111.5C131.778 111.776 131.554 112 131.278 112H130.284C130.008 112 129.784 111.776 129.784 111.5ZM134.753 111.5C134.753 111.224 134.977 111 135.253 111H136.247C136.523 111 136.747 111.224 136.747 111.5C136.747 111.776 136.523 112 136.247 112H135.253C134.977 112 134.753 111.776 134.753 111.5ZM139.722 111.5C139.722 111.224 139.946 111 140.222 111H141.216C141.492 111 141.716 111.224 141.716 111.5C141.716 111.776 141.492 112 141.216 112H140.222C139.946 112 139.722 111.776 139.722 111.5ZM144.691 111.5C144.691 111.224 144.914 111 145.191 111H146.184C146.461 111 146.684 111.224 146.684 111.5C146.684 111.776 146.461 112 146.184 112H145.191C144.914 112 144.691 111.776 144.691 111.5ZM149.659 111.5C149.659 111.224 149.883 111 150.159 111H151.153C151.429 111 151.653 111.224 151.653 111.5C151.653 111.776 151.429 112 151.153 112H150.159C149.883 112 149.659 111.776 149.659 111.5ZM154.628 111.5C154.628 111.224 154.852 111 155.128 111H156.122C156.398 111 156.622 111.224 156.622 111.5C156.622 111.776 156.398 112 156.122 112H155.128C154.852 112 154.628 111.776 154.628 111.5ZM159.597 111.5C159.597 111.224 159.821 111 160.097 111H161.091C161.367 111 161.591 111.224 161.591 111.5C161.591 111.776 161.367 112 161.091 112H160.097C159.821 112 159.597 111.776 159.597 111.5ZM164.566 111.5C164.566 111.224 164.789 111 165.066 111H166.059C166.336 111 166.559 111.224 166.559 111.5C166.559 111.776 166.336 112 166.059 112H165.066C164.789 112 164.566 111.776 164.566 111.5ZM169.534 111.5C169.534 111.224 169.758 111 170.034 111H171.028C171.304 111 171.528 111.224 171.528 111.5C171.528 111.776 171.304 112 171.028 112H170.034C169.758 112 169.534 111.776 169.534 111.5ZM174.503 111.5C174.503 111.224 174.727 111 175.003 111H175.5C175.776 111 176 111.224 176 111.5C176 111.776 175.776 112 175.5 112H175.003C174.727 112 174.503 111.776 174.503 111.5Z" fill="#C1C7D0"/>
</g>
<defs>
<clipPath id="clip0_3919_814">
<rect width="192" height="282" fill="white"/>
</clipPath>
<clipPath id="clip1_3919_814">
<rect width="16" height="16" fill="white" transform="translate(16 136)"/>
</clipPath>
</defs>
</svg>
