<svg width="232" height="322" viewBox="0 0 232 322" fill="none" xmlns="http://www.w3.org/2000/svg">
<g clip-path="url(#clip0_2554_585)" filter="url(#filter0_d_2554_585)">
<path fill-rule="evenodd" clip-rule="evenodd" d="M20 22C20 15.3726 25.3726 10 32 10H200C206.627 10 212 15.3726 212 22V112.545C207.582 112.545 204 116.077 204 120.434C204 124.79 207.582 128.322 212 128.322V280C212 286.627 206.627 292 200 292H32C25.3726 292 20 286.627 20 280V128.322C24.4183 128.322 28 124.79 28 120.434C28 116.077 24.4183 112.545 20 112.545V22Z" fill="white"/>
<path d="M56.75 214V221H57.68V214H56.75Z" fill="#172B4D"/>
<path d="M63.6616 214H58.6116V214.88H60.6716V221H61.5916V214.88H63.6616V214Z" fill="#172B4D"/>
<path d="M67.4716 221.13C68.7716 221.13 69.9116 220.45 70.4916 219.42L69.6816 218.96C69.2816 219.72 68.4316 220.22 67.4716 220.22C65.8316 220.22 64.7316 219.03 64.7316 217.5C64.7316 215.96 65.8316 214.77 67.4716 214.77C68.4316 214.77 69.2816 215.27 69.6816 216.04L70.4916 215.57C69.9016 214.54 68.7616 213.87 67.4716 213.87C65.3316 213.87 63.8116 215.48 63.8116 217.5C63.8116 219.51 65.3316 221.13 67.4716 221.13Z" fill="#172B4D"/>
<path d="M80.8242 217.53H77.3242V218.37H79.8942C79.7142 219.42 78.8542 220.22 77.4042 220.22C75.7342 220.22 74.6242 219.02 74.6242 217.5C74.6242 215.97 75.7442 214.77 77.3642 214.77C78.3542 214.77 79.2042 215.28 79.6042 216.03L80.4042 215.56C79.8242 214.56 78.6842 213.87 77.3742 213.87C75.2442 213.87 73.7042 215.49 73.7042 217.5C73.7042 219.5 75.2342 221.13 77.3942 221.13C79.5042 221.13 80.8242 219.73 80.8242 217.95V217.53Z" fill="#172B4D"/>
<path d="M86.0051 216V216.86C85.6051 216.25 84.9651 215.87 84.1151 215.87C82.7251 215.87 81.5851 217.02 81.5851 218.5C81.5851 219.98 82.7251 221.13 84.1151 221.13C84.9651 221.13 85.6051 220.75 86.0051 220.14V221H86.8751V216H86.0051ZM84.2251 220.29C83.2251 220.29 82.4551 219.52 82.4551 218.5C82.4551 217.48 83.2251 216.71 84.2251 216.71C85.2351 216.71 86.0051 217.48 86.0051 218.5C86.0051 219.52 85.2351 220.29 84.2251 220.29Z" fill="#172B4D"/>
<path d="M89.0632 216.84V216H88.1932V221H89.0632V218.35C89.0632 217.17 89.8732 216.79 90.6232 216.82V215.91C89.9932 215.91 89.3832 216.14 89.0632 216.84Z" fill="#172B4D"/>
<path d="M95.341 214V216.86C94.941 216.25 94.301 215.87 93.451 215.87C92.061 215.87 90.921 217.02 90.921 218.5C90.921 219.98 92.061 221.13 93.451 221.13C94.301 221.13 94.941 220.75 95.341 220.14V221H96.211V214H95.341ZM93.561 220.29C92.561 220.29 91.791 219.52 91.791 218.5C91.791 217.48 92.561 216.71 93.561 216.71C94.571 216.71 95.341 217.48 95.341 218.5C95.341 219.52 94.571 220.29 93.561 220.29Z" fill="#172B4D"/>
<path d="M98.1391 218.9H102.329C102.349 218.77 102.359 218.64 102.359 218.51C102.359 217.11 101.379 215.87 99.8691 215.87C98.3091 215.87 97.2491 217.02 97.2491 218.5C97.2491 220 98.3191 221.13 99.9291 221.13C100.929 221.13 101.689 220.68 102.129 220L101.389 219.58C101.139 219.99 100.639 220.31 99.9491 220.31C99.0191 220.31 98.3091 219.8 98.1391 218.9ZM99.8691 216.69C100.619 216.69 101.329 217.15 101.479 218.14H98.1391C98.2791 217.27 98.9291 216.69 99.8691 216.69Z" fill="#172B4D"/>
<path d="M105.849 215.87C105.149 215.87 104.599 216.13 104.229 216.72V216H103.359V221H104.229V218.35C104.229 217.17 104.879 216.7 105.679 216.7C106.449 216.7 106.919 217.16 106.919 217.98V221H107.789V217.93C107.789 216.65 107.019 215.87 105.849 215.87Z" fill="#172B4D"/>
<path d="M109.444 215.09C109.764 215.09 110.024 214.83 110.024 214.51C110.024 214.19 109.764 213.92 109.444 213.92C109.114 213.92 108.854 214.19 108.854 214.51C108.854 214.83 109.114 215.09 109.444 215.09ZM109.004 221H109.874V216H109.004V221Z" fill="#172B4D"/>
<path d="M115.341 216V216.86C114.941 216.25 114.301 215.87 113.451 215.87C112.061 215.87 110.921 217.02 110.921 218.5C110.921 219.98 112.061 221.13 113.451 221.13C114.301 221.13 114.941 220.75 115.341 220.14V221H116.211V216H115.341ZM113.561 220.29C112.561 220.29 111.791 219.52 111.791 218.5C111.791 217.48 112.561 216.71 113.561 216.71C114.571 216.71 115.341 217.48 115.341 218.5C115.341 219.52 114.571 220.29 113.561 220.29Z" fill="#172B4D"/>
<path d="M118.829 219.97H117.829L117.429 222.4H118.179L118.829 219.97Z" fill="#172B4D"/>
<path d="M126.648 217.37C127.108 217.05 127.408 216.54 127.408 215.91C127.408 214.83 126.538 214 125.448 214H122.648V221H125.668C126.798 221 127.698 220.14 127.698 219.02C127.698 218.26 127.278 217.67 126.648 217.37ZM125.448 214.87C126.028 214.87 126.488 215.35 126.488 215.94C126.488 216.54 126.028 217.01 125.448 217.01H123.578V214.87H125.448ZM125.668 220.13H123.578V217.86H125.668C126.288 217.86 126.778 218.36 126.778 218.99C126.778 219.63 126.288 220.13 125.668 220.13Z" fill="#172B4D"/>
<path d="M132.88 216V216.86C132.48 216.25 131.84 215.87 130.99 215.87C129.6 215.87 128.46 217.02 128.46 218.5C128.46 219.98 129.6 221.13 130.99 221.13C131.84 221.13 132.48 220.75 132.88 220.14V221H133.75V216H132.88ZM131.1 220.29C130.1 220.29 129.33 219.52 129.33 218.5C129.33 217.48 130.1 216.71 131.1 216.71C132.11 216.71 132.88 217.48 132.88 218.5C132.88 219.52 132.11 220.29 131.1 220.29Z" fill="#172B4D"/>
<path d="M137.558 215.87C136.858 215.87 136.308 216.13 135.938 216.72V216H135.068V221H135.938V218.35C135.938 217.17 136.588 216.7 137.388 216.7C138.158 216.7 138.628 217.16 138.628 217.98V221H139.498V217.93C139.498 216.65 138.728 215.87 137.558 215.87Z" fill="#172B4D"/>
<path d="M144.863 216V216.86C144.463 216.25 143.823 215.87 142.983 215.87C141.563 215.87 140.433 217.02 140.433 218.47C140.433 219.93 141.563 221.08 142.983 221.08C143.823 221.08 144.463 220.69 144.863 220.08V220.79C144.863 221.73 144.233 222.32 143.193 222.32C142.213 222.32 141.793 221.95 141.563 221.48L140.803 221.91C141.213 222.7 142.053 223.13 143.173 223.13C144.473 223.13 145.723 222.35 145.723 220.79V216H144.863ZM143.083 220.25C142.073 220.25 141.303 219.48 141.303 218.47C141.303 217.47 142.073 216.7 143.083 216.7C144.093 216.7 144.863 217.47 144.863 218.47C144.863 219.48 144.093 220.25 143.083 220.25Z" fill="#172B4D"/>
<path d="M151.181 216V216.86C150.781 216.25 150.141 215.87 149.291 215.87C147.901 215.87 146.761 217.02 146.761 218.5C146.761 219.98 147.901 221.13 149.291 221.13C150.141 221.13 150.781 220.75 151.181 220.14V221H152.051V216H151.181ZM149.401 220.29C148.401 220.29 147.631 219.52 147.631 218.5C147.631 217.48 148.401 216.71 149.401 216.71C150.411 216.71 151.181 217.48 151.181 218.5C151.181 219.52 150.411 220.29 149.401 220.29Z" fill="#172B4D"/>
<path d="M153.369 221H154.239V213.7H153.369V221Z" fill="#172B4D"/>
<path d="M157.916 221.13C159.376 221.13 160.556 219.98 160.556 218.5C160.556 217.02 159.376 215.87 157.916 215.87C156.456 215.87 155.286 217.02 155.286 218.5C155.286 219.98 156.456 221.13 157.916 221.13ZM157.916 220.28C156.926 220.28 156.156 219.51 156.156 218.5C156.156 217.49 156.926 216.72 157.916 216.72C158.916 216.72 159.686 217.49 159.686 218.5C159.686 219.51 158.916 220.28 157.916 220.28Z" fill="#172B4D"/>
<path d="M162.452 216.84V216H161.582V221H162.452V218.35C162.452 217.17 163.262 216.79 164.012 216.82V215.91C163.382 215.91 162.772 216.14 162.452 216.84Z" fill="#172B4D"/>
<path d="M165.2 218.9H169.39C169.41 218.77 169.42 218.64 169.42 218.51C169.42 217.11 168.44 215.87 166.93 215.87C165.37 215.87 164.31 217.02 164.31 218.5C164.31 220 165.38 221.13 166.99 221.13C167.99 221.13 168.75 220.68 169.19 220L168.45 219.58C168.2 219.99 167.7 220.31 167.01 220.31C166.08 220.31 165.37 219.8 165.2 218.9ZM166.93 216.69C167.68 216.69 168.39 217.15 168.54 218.14H165.2C165.34 217.27 165.99 216.69 166.93 216.69Z" fill="#172B4D"/>
<path d="M43.6299 225.888C43.6299 225.888 43.6302 225.888 44 225.333L44.3698 225.888C44.1459 226.037 43.8538 226.037 43.6299 225.888Z" fill="#719F64"/>
<path fill-rule="evenodd" clip-rule="evenodd" d="M44 214C42.5273 214 41.3334 215.194 41.3334 216.667C41.3334 218.139 42.5273 219.333 44 219.333C45.4728 219.333 46.6667 218.139 46.6667 216.667C46.6667 215.194 45.4728 214 44 214ZM42.6667 216.667C42.6667 215.93 43.2637 215.333 44 215.333C44.7364 215.333 45.3334 215.93 45.3334 216.667C45.3334 217.403 44.7364 218 44 218C43.2637 218 42.6667 217.403 42.6667 216.667Z" fill="#719F64"/>
<path fill-rule="evenodd" clip-rule="evenodd" d="M43.6299 225.888L44 225.333C44.3698 225.888 44.3707 225.887 44.3707 225.887L44.3721 225.887L44.3766 225.884L44.3918 225.873C44.4048 225.864 44.4233 225.852 44.447 225.835C44.4944 225.803 44.5624 225.755 44.6482 225.693C44.8197 225.569 45.0625 225.388 45.3528 225.157C45.9325 224.695 46.7071 224.029 47.484 223.208C49.0105 221.597 50.6667 219.268 50.6667 216.667C50.6667 214.899 49.9643 213.203 48.7141 211.953C47.4638 210.702 45.7682 210 44 210C42.2319 210 40.5362 210.702 39.286 211.953C38.0358 213.203 37.3334 214.899 37.3334 216.667C37.3334 219.268 38.9895 221.597 40.5161 223.208C41.293 224.029 42.0676 224.695 42.6473 225.157C42.9376 225.388 43.1804 225.569 43.3519 225.693C43.4377 225.755 43.5057 225.803 43.5531 225.835C43.5768 225.852 43.5953 225.864 43.6083 225.873L43.6235 225.884L43.628 225.887L43.6299 225.888ZM40.2288 212.895C41.229 211.895 42.5856 211.333 44 211.333C45.4145 211.333 46.7711 211.895 47.7713 212.895C48.7715 213.896 49.3334 215.252 49.3334 216.667C49.3334 218.732 47.9895 220.736 46.5161 222.292C45.793 223.055 45.0676 223.68 44.5223 224.114C44.3193 224.276 44.142 224.41 44 224.515C43.8581 224.41 43.6808 224.276 43.4778 224.114C42.9325 223.68 42.2071 223.055 41.484 222.292C40.0105 220.736 38.6667 218.732 38.6667 216.667C38.6667 215.252 39.2286 213.896 40.2288 212.895Z" fill="#719F64"/>
<path d="M143.048 49L139.448 42.72V41.24H140.648C141.355 41.24 141.948 41.0866 142.428 40.78C142.908 40.46 143.215 40.02 143.348 39.46H139.448V37.98H143.328C143.208 37.4733 142.962 37.0533 142.588 36.72C142.215 36.3733 141.695 36.2 141.028 36.2H139.448V34.72H148.468V36.2H145.328C145.795 36.7066 146.088 37.3 146.208 37.98H148.468V39.46H146.248C146.115 40.4466 145.735 41.22 145.108 41.78C144.482 42.3266 143.675 42.7 142.688 42.9L146.608 49H143.048Z" fill="#719F64"/>
<path d="M150.134 49H159.494V46.34H154.234L156.974 43.6C158.294 42.28 159.274 40.82 159.274 39.12C159.274 36.32 157.054 34.72 154.654 34.72C152.754 34.72 150.934 35.68 150.034 37.68L152.354 39.04C152.814 38.04 153.614 37.4 154.694 37.4C155.754 37.4 156.514 38.1 156.514 39.22C156.514 40.16 155.814 41.08 154.914 42.02L150.134 46.94V49Z" fill="#719F64"/>
<path d="M165.565 40.1H164.125L164.305 37.58H169.685V35H161.745L161.185 42.78H165.425C166.785 42.78 167.585 43.56 167.585 44.68C167.585 45.82 166.785 46.58 165.345 46.58C163.945 46.58 163.165 45.98 162.825 44.9L160.465 46.28C161.265 48.32 163.165 49.28 165.345 49.28C167.985 49.28 170.345 47.68 170.345 44.68C170.345 41.68 168.125 40.1 165.565 40.1Z" fill="#719F64"/>
<path d="M177.105 49.28C180.685 49.28 182.705 46.32 182.705 42C182.705 37.68 180.685 34.72 177.105 34.72C173.545 34.72 171.505 37.68 171.505 42C171.505 46.32 173.545 49.28 177.105 49.28ZM177.105 46.58C175.225 46.58 174.265 44.96 174.265 42C174.265 39.04 175.225 37.4 177.105 37.4C178.985 37.4 179.965 39.04 179.965 42C179.965 44.96 178.985 46.58 177.105 46.58Z" fill="#719F64"/>
<path d="M189.702 49.28C193.282 49.28 195.302 46.32 195.302 42C195.302 37.68 193.282 34.72 189.702 34.72C186.142 34.72 184.102 37.68 184.102 42C184.102 46.32 186.142 49.28 189.702 49.28ZM189.702 46.58C187.822 46.58 186.862 44.96 186.862 42C186.862 39.04 187.822 37.4 189.702 37.4C191.582 37.4 192.562 39.04 192.562 42C192.562 44.96 191.582 46.58 189.702 46.58Z" fill="#719F64"/>
<path d="M37.8501 43.9V42.01H40.6501V40.92H37.8501V39.1H40.9001V38H36.7001V45H40.9501V43.9H37.8501Z" fill="#42526E"/>
<path d="M47.6605 45H48.9005L46.3705 38H44.9905L42.4505 45H43.7005L44.1905 43.59H47.1705L47.6605 45ZM44.5705 42.51L45.6805 39.35L46.7905 42.51H44.5705Z" fill="#42526E"/>
<path d="M54.6432 45H55.9032L54.3132 42.28C55.1332 41.95 55.7032 41.15 55.7032 40.25C55.7032 39 54.7032 38 53.4532 38H50.6532V45H51.8032V42.45H53.1632L54.6432 45ZM51.8032 39.08H53.4532C54.0632 39.08 54.5532 39.59 54.5532 40.25C54.5532 40.9 54.0632 41.42 53.4532 41.42H51.8032V39.08Z" fill="#42526E"/>
<path d="M58.936 43.9V38H57.786V45H61.786V43.9H58.936Z" fill="#42526E"/>
<path d="M68.1211 38H66.8111L65.1111 41.1L63.4011 38H62.0911L64.5311 42.22V45H65.6811V42.22L68.1211 38Z" fill="#42526E"/>
<path d="M77.4939 41.37C77.9339 41.05 78.2039 40.55 78.2039 39.94C78.2039 38.82 77.2839 38 76.1539 38H73.3739V45H76.3739C77.5339 45 78.4739 44.16 78.4739 43C78.4739 42.25 78.0839 41.68 77.4939 41.37ZM76.1539 39.08C76.6639 39.08 77.0539 39.48 77.0539 40C77.0539 40.52 76.6639 40.92 76.1539 40.92H74.5239V39.08H76.1539ZM76.3739 43.92H74.5239V41.96H76.3739C76.9139 41.96 77.3239 42.39 77.3239 42.94C77.3239 43.49 76.9139 43.92 76.3739 43.92Z" fill="#42526E"/>
<path d="M80.4774 38V45H81.6274V38H80.4774Z" fill="#42526E"/>
<path d="M88.0162 45H89.2762L87.6862 42.28C88.5062 41.95 89.0762 41.15 89.0762 40.25C89.0762 39 88.0762 38 86.8262 38H84.0262V45H85.1762V42.45H86.5362L88.0162 45ZM85.1762 39.08H86.8262C87.4362 39.08 87.9262 39.59 87.9262 40.25C87.9262 40.9 87.4362 41.42 86.8262 41.42H85.1762V39.08Z" fill="#42526E"/>
<path d="M93.9091 38H91.1591V45H93.9091C95.8391 45 97.2591 43.45 97.2591 41.5C97.2591 39.54 95.8391 38 93.9091 38ZM93.9091 43.9H92.3091V39.1H93.9091C95.2391 39.1 96.1491 40.11 96.1491 41.5C96.1491 42.88 95.2391 43.9 93.9091 43.9Z" fill="#42526E"/>
<path d="M43.5 76.53H40V77.37H42.57C42.39 78.42 41.53 79.22 40.08 79.22C38.41 79.22 37.3 78.02 37.3 76.5C37.3 74.97 38.42 73.77 40.04 73.77C41.03 73.77 41.88 74.28 42.28 75.03L43.08 74.56C42.5 73.56 41.36 72.87 40.05 72.87C37.92 72.87 36.38 74.49 36.38 76.5C36.38 78.5 37.91 80.13 40.07 80.13C42.18 80.13 43.5 78.73 43.5 76.95V76.53Z" fill="#7A869A"/>
<path d="M45.4109 75.84V75H44.5409V80H45.4109V77.35C45.4109 76.17 46.2209 75.79 46.9709 75.82V74.91C46.3409 74.91 45.7309 75.14 45.4109 75.84Z" fill="#7A869A"/>
<path d="M51.6887 75V75.86C51.2887 75.25 50.6487 74.87 49.7987 74.87C48.4087 74.87 47.2687 76.02 47.2687 77.5C47.2687 78.98 48.4087 80.13 49.7987 80.13C50.6487 80.13 51.2887 79.75 51.6887 79.14V80H52.5587V75H51.6887ZM49.9087 79.29C48.9087 79.29 48.1387 78.52 48.1387 77.5C48.1387 76.48 48.9087 75.71 49.9087 75.71C50.9187 75.71 51.6887 76.48 51.6887 77.5C51.6887 78.52 50.9187 79.29 49.9087 79.29Z" fill="#7A869A"/>
<path d="M56.3668 74.87C55.6668 74.87 55.1168 75.13 54.7468 75.72V75H53.8768V80H54.7468V77.35C54.7468 76.17 55.3968 75.7 56.1968 75.7C56.9668 75.7 57.4368 76.16 57.4368 76.98V80H58.3068V76.93C58.3068 75.65 57.5368 74.87 56.3668 74.87Z" fill="#7A869A"/>
<path d="M62.2413 75.84V75H60.9113V73.6L60.0413 73.86V75H59.0513V75.84H60.0413V78.55C60.0413 79.8 60.7413 80.2 62.2413 80V79.22C61.3513 79.26 60.9113 79.31 60.9113 78.55V75.84H62.2413Z" fill="#7A869A"/>
<path d="M63.7772 76.35C63.7772 75.9 64.2172 75.68 64.6672 75.68C65.1072 75.68 65.5472 75.87 65.7372 76.32L66.4672 75.91C66.1472 75.26 65.4872 74.87 64.6672 74.87C63.6572 74.87 62.8972 75.48 62.8972 76.36C62.8972 78.17 65.6972 77.56 65.6972 78.63C65.6972 79.12 65.2372 79.31 64.7072 79.31C64.0872 79.31 63.6272 79.01 63.4672 78.53L62.7172 78.96C63.0072 79.65 63.7072 80.13 64.7072 80.13C65.7772 80.13 66.5772 79.56 66.5772 78.63C66.5772 76.79 63.7772 77.42 63.7772 76.35Z" fill="#7A869A"/>
<path d="M74.8073 80H75.7973L73.1873 73H72.1373L69.5273 80H70.5173L71.0873 78.43H74.2373L74.8073 80ZM71.4073 77.56L72.6573 74.11L73.9173 77.56H71.4073Z" fill="#7A869A"/>
<path d="M78.7659 80.13C79.7459 80.13 80.5959 79.61 81.0159 78.83L80.2759 78.4C79.9959 78.92 79.4459 79.27 78.7659 79.27C77.7659 79.27 77.0059 78.5 77.0059 77.5C77.0059 76.49 77.7659 75.72 78.7659 75.72C79.4359 75.72 79.9959 76.07 80.2459 76.6L80.9759 76.18C80.5959 75.39 79.7559 74.87 78.7659 74.87C77.2559 74.87 76.1359 76.02 76.1359 77.5C76.1359 78.98 77.2559 80.13 78.7659 80.13Z" fill="#7A869A"/>
<path d="M84.1565 80.13C85.1365 80.13 85.9865 79.61 86.4065 78.83L85.6665 78.4C85.3865 78.92 84.8365 79.27 84.1565 79.27C83.1565 79.27 82.3965 78.5 82.3965 77.5C82.3965 76.49 83.1565 75.72 84.1565 75.72C84.8265 75.72 85.3865 76.07 85.6365 76.6L86.3665 76.18C85.9865 75.39 85.1465 74.87 84.1565 74.87C82.6465 74.87 81.5265 76.02 81.5265 77.5C81.5265 78.98 82.6465 80.13 84.1565 80.13Z" fill="#7A869A"/>
<path d="M87.8071 77.9H91.9971C92.0171 77.77 92.0271 77.64 92.0271 77.51C92.0271 76.11 91.0471 74.87 89.5371 74.87C87.9771 74.87 86.9171 76.02 86.9171 77.5C86.9171 79 87.9871 80.13 89.5971 80.13C90.5971 80.13 91.3571 79.68 91.7971 79L91.0571 78.58C90.8071 78.99 90.3071 79.31 89.6171 79.31C88.6871 79.31 87.9771 78.8 87.8071 77.9ZM89.5371 75.69C90.2871 75.69 90.9971 76.15 91.1471 77.14H87.8071C87.9471 76.27 88.5971 75.69 89.5371 75.69Z" fill="#7A869A"/>
<path d="M93.5819 76.35C93.5819 75.9 94.0219 75.68 94.4719 75.68C94.9119 75.68 95.3519 75.87 95.5419 76.32L96.2719 75.91C95.9519 75.26 95.2919 74.87 94.4719 74.87C93.4619 74.87 92.7019 75.48 92.7019 76.36C92.7019 78.17 95.5019 77.56 95.5019 78.63C95.5019 79.12 95.0419 79.31 94.5119 79.31C93.8919 79.31 93.4319 79.01 93.2719 78.53L92.5219 78.96C92.8119 79.65 93.5119 80.13 94.5119 80.13C95.5819 80.13 96.3819 79.56 96.3819 78.63C96.3819 76.79 93.5819 77.42 93.5819 76.35Z" fill="#7A869A"/>
<path d="M97.8495 76.35C97.8495 75.9 98.2895 75.68 98.7395 75.68C99.1795 75.68 99.6195 75.87 99.8095 76.32L100.539 75.91C100.219 75.26 99.5595 74.87 98.7395 74.87C97.7295 74.87 96.9695 75.48 96.9695 76.36C96.9695 78.17 99.7695 77.56 99.7695 78.63C99.7695 79.12 99.3095 79.31 98.7795 79.31C98.1595 79.31 97.6995 79.01 97.5395 78.53L96.7895 78.96C97.0795 79.65 97.7795 80.13 98.7795 80.13C99.8495 80.13 100.649 79.56 100.649 78.63C100.649 76.79 97.8495 77.42 97.8495 76.35Z" fill="#7A869A"/>
<path d="M106.81 73H104.27V80H105.2V77.5H106.81C108.1 77.5 109.07 76.52 109.07 75.25C109.07 73.97 108.1 73 106.81 73ZM106.81 76.63H105.2V73.87H106.81C107.58 73.87 108.15 74.45 108.15 75.25C108.15 76.04 107.58 76.63 106.81 76.63Z" fill="#7A869A"/>
<path d="M110.307 77.9H114.497C114.517 77.77 114.527 77.64 114.527 77.51C114.527 76.11 113.547 74.87 112.037 74.87C110.477 74.87 109.417 76.02 109.417 77.5C109.417 79 110.487 80.13 112.097 80.13C113.097 80.13 113.857 79.68 114.297 79L113.557 78.58C113.307 78.99 112.807 79.31 112.117 79.31C111.187 79.31 110.477 78.8 110.307 77.9ZM112.037 75.69C112.787 75.69 113.497 76.15 113.647 77.14H110.307C110.447 76.27 111.097 75.69 112.037 75.69Z" fill="#7A869A"/>
<path d="M116.397 75.84V75H115.527V80H116.397V77.35C116.397 76.17 117.207 75.79 117.957 75.82V74.91C117.327 74.91 116.717 75.14 116.397 75.84Z" fill="#7A869A"/>
<path d="M126.008 80H126.998L124.388 73H123.338L120.728 80H121.718L122.288 78.43H125.438L126.008 80ZM122.608 77.56L123.858 74.11L125.118 77.56H122.608Z" fill="#7A869A"/>
<path d="M131.757 73V75.86C131.357 75.25 130.717 74.87 129.867 74.87C128.477 74.87 127.337 76.02 127.337 77.5C127.337 78.98 128.477 80.13 129.867 80.13C130.717 80.13 131.357 79.75 131.757 79.14V80H132.627V73H131.757ZM129.977 79.29C128.977 79.29 128.207 78.52 128.207 77.5C128.207 76.48 128.977 75.71 129.977 75.71C130.987 75.71 131.757 76.48 131.757 77.5C131.757 78.52 130.987 79.29 129.977 79.29Z" fill="#7A869A"/>
<path d="M137.395 75V77.65C137.395 78.83 136.745 79.3 135.945 79.3C135.175 79.3 134.705 78.84 134.705 78.02V75H133.835V78.07C133.835 79.35 134.605 80.13 135.775 80.13C136.475 80.13 137.025 79.87 137.395 79.28V80H138.265V75H137.395Z" fill="#7A869A"/>
<path d="M139.59 80H140.46V72.7H139.59V80Z" fill="#7A869A"/>
<path d="M144.507 75.84V75H143.177V73.6L142.307 73.86V75H141.317V75.84H142.307V78.55C142.307 79.8 143.007 80.2 144.507 80V79.22C143.617 79.26 143.177 79.31 143.177 78.55V75.84H144.507Z" fill="#7A869A"/>
<path d="M146.866 78.97H145.866L145.466 81.4H146.216L146.866 78.97Z" fill="#7A869A"/>
<path d="M150.686 73V80H151.616V73H150.686Z" fill="#7A869A"/>
<path d="M155.517 74.87C154.817 74.87 154.267 75.13 153.897 75.72V75H153.027V80H153.897V77.35C153.897 76.17 154.547 75.7 155.347 75.7C156.117 75.7 156.587 76.16 156.587 76.98V80H157.457V76.93C157.457 75.65 156.687 74.87 155.517 74.87Z" fill="#7A869A"/>
<path d="M161.022 80.13C162.002 80.13 162.852 79.61 163.272 78.83L162.532 78.4C162.252 78.92 161.702 79.27 161.022 79.27C160.022 79.27 159.262 78.5 159.262 77.5C159.262 76.49 160.022 75.72 161.022 75.72C161.692 75.72 162.252 76.07 162.502 76.6L163.232 76.18C162.852 75.39 162.012 74.87 161.022 74.87C159.512 74.87 158.392 76.02 158.392 77.5C158.392 78.98 159.512 80.13 161.022 80.13Z" fill="#7A869A"/>
<path d="M164.131 80H165.001V72.7H164.131V80Z" fill="#7A869A"/>
<path d="M169.778 75V77.65C169.778 78.83 169.128 79.3 168.328 79.3C167.558 79.3 167.088 78.84 167.088 78.02V75H166.218V78.07C166.218 79.35 166.988 80.13 168.158 80.13C168.858 80.13 169.408 79.87 169.778 79.28V80H170.648V75H169.778Z" fill="#7A869A"/>
<path d="M176.113 73V75.86C175.713 75.25 175.073 74.87 174.223 74.87C172.833 74.87 171.693 76.02 171.693 77.5C171.693 78.98 172.833 80.13 174.223 80.13C175.073 80.13 175.713 79.75 176.113 79.14V80H176.982V73H176.113ZM174.333 79.29C173.333 79.29 172.562 78.52 172.562 77.5C172.562 76.48 173.333 75.71 174.333 75.71C175.342 75.71 176.113 76.48 176.113 77.5C176.113 78.52 175.342 79.29 174.333 79.29Z" fill="#7A869A"/>
<path d="M178.911 77.9H183.101C183.121 77.77 183.131 77.64 183.131 77.51C183.131 76.11 182.151 74.87 180.641 74.87C179.081 74.87 178.021 76.02 178.021 77.5C178.021 79 179.091 80.13 180.701 80.13C181.701 80.13 182.461 79.68 182.901 79L182.161 78.58C181.911 78.99 181.411 79.31 180.721 79.31C179.791 79.31 179.081 78.8 178.911 77.9ZM180.641 75.69C181.391 75.69 182.101 76.15 182.251 77.14H178.911C179.051 76.27 179.701 75.69 180.641 75.69Z" fill="#7A869A"/>
<path d="M184.685 76.35C184.685 75.9 185.125 75.68 185.575 75.68C186.015 75.68 186.455 75.87 186.645 76.32L187.375 75.91C187.055 75.26 186.395 74.87 185.575 74.87C184.565 74.87 183.805 75.48 183.805 76.36C183.805 78.17 186.605 77.56 186.605 78.63C186.605 79.12 186.145 79.31 185.615 79.31C184.995 79.31 184.535 79.01 184.375 78.53L183.625 78.96C183.915 79.65 184.615 80.13 185.615 80.13C186.685 80.13 187.485 79.56 187.485 78.63C187.485 76.79 184.685 77.42 184.685 76.35Z" fill="#7A869A"/>
<path d="M40.04 94.13C41.34 94.13 42.48 93.45 43.06 92.42L42.25 91.96C41.85 92.72 41 93.22 40.04 93.22C38.4 93.22 37.3 92.03 37.3 90.5C37.3 88.96 38.4 87.77 40.04 87.77C41 87.77 41.85 88.27 42.25 89.04L43.06 88.57C42.47 87.54 41.33 86.87 40.04 86.87C37.9 86.87 36.38 88.48 36.38 90.5C36.38 92.51 37.9 94.13 40.04 94.13Z" fill="#7A869A"/>
<path d="M46.3538 94.13C47.8138 94.13 48.9938 92.98 48.9938 91.5C48.9938 90.02 47.8138 88.87 46.3538 88.87C44.8938 88.87 43.7238 90.02 43.7238 91.5C43.7238 92.98 44.8938 94.13 46.3538 94.13ZM46.3538 93.28C45.3638 93.28 44.5938 92.51 44.5938 91.5C44.5938 90.49 45.3638 89.72 46.3538 89.72C47.3538 89.72 48.1238 90.49 48.1238 91.5C48.1238 92.51 47.3538 93.28 46.3538 93.28Z" fill="#7A869A"/>
<path d="M53.4694 89V91.65C53.4694 92.83 52.8194 93.3 52.0194 93.3C51.2494 93.3 50.7794 92.84 50.7794 92.02V89H49.9094V92.07C49.9094 93.35 50.6794 94.13 51.8494 94.13C52.5494 94.13 53.0994 93.87 53.4694 93.28V94H54.3394V89H53.4694Z" fill="#7A869A"/>
<path d="M56.5339 89.84V89H55.6639V94H56.5339V91.35C56.5339 90.17 57.3439 89.79 58.0939 89.82V88.91C57.4639 88.91 56.8539 89.14 56.5339 89.84Z" fill="#7A869A"/>
<path d="M59.5096 90.35C59.5096 89.9 59.9496 89.68 60.3996 89.68C60.8396 89.68 61.2796 89.87 61.4696 90.32L62.1996 89.91C61.8796 89.26 61.2196 88.87 60.3996 88.87C59.3896 88.87 58.6296 89.48 58.6296 90.36C58.6296 92.17 61.4296 91.56 61.4296 92.63C61.4296 93.12 60.9696 93.31 60.4396 93.31C59.8196 93.31 59.3596 93.01 59.1996 92.53L58.4496 92.96C58.7396 93.65 59.4396 94.13 60.4396 94.13C61.5096 94.13 62.3096 93.56 62.3096 92.63C62.3096 90.79 59.5096 91.42 59.5096 90.35Z" fill="#7A869A"/>
<path d="M63.813 91.9H68.003C68.023 91.77 68.033 91.64 68.033 91.51C68.033 90.11 67.053 88.87 65.543 88.87C63.983 88.87 62.923 90.02 62.923 91.5C62.923 93 63.993 94.13 65.603 94.13C66.603 94.13 67.363 93.68 67.803 93L67.063 92.58C66.813 92.99 66.313 93.31 65.623 93.31C64.693 93.31 63.983 92.8 63.813 91.9ZM65.543 89.69C66.293 89.69 67.003 90.15 67.153 91.14H63.813C63.953 90.27 64.603 89.69 65.543 89.69Z" fill="#7A869A"/>
<path d="M78.173 87H77.1231L74.903 90.7L72.673 87H71.6231V94H72.5531V88.54L74.8431 92.34H74.9631L77.2531 88.53V94H78.173V87Z" fill="#7A869A"/>
<path d="M83.7199 89V89.86C83.3199 89.25 82.6799 88.87 81.8299 88.87C80.4399 88.87 79.2999 90.02 79.2999 91.5C79.2999 92.98 80.4399 94.13 81.8299 94.13C82.6799 94.13 83.3199 93.75 83.7199 93.14V94H84.5899V89H83.7199ZM81.9399 93.29C80.9399 93.29 80.1699 92.52 80.1699 91.5C80.1699 90.48 80.9399 89.71 81.9399 89.71C82.9499 89.71 83.7199 90.48 83.7199 91.5C83.7199 92.52 82.9499 93.29 81.9399 93.29Z" fill="#7A869A"/>
<path d="M88.6281 89.84V89H87.298V87.6L86.4281 87.86V89H85.438V89.84H86.4281V92.55C86.4281 93.8 87.1281 94.2 88.6281 94V93.22C87.7381 93.26 87.298 93.31 87.298 92.55V89.84H88.6281Z" fill="#7A869A"/>
<path d="M90.0141 91.9H94.2041C94.2241 91.77 94.2341 91.64 94.2341 91.51C94.2341 90.11 93.2541 88.87 91.7441 88.87C90.1841 88.87 89.1241 90.02 89.1241 91.5C89.1241 93 90.1941 94.13 91.8041 94.13C92.8041 94.13 93.5641 93.68 94.0041 93L93.2641 92.58C93.0141 92.99 92.5141 93.31 91.8241 93.31C90.8941 93.31 90.1841 92.8 90.0141 91.9ZM91.7441 89.69C92.4941 89.69 93.2041 90.15 93.3541 91.14H90.0141C90.1541 90.27 90.8041 89.69 91.7441 89.69Z" fill="#7A869A"/>
<path d="M96.1042 89.84V89H95.2342V94H96.1042V91.35C96.1042 90.17 96.9142 89.79 97.6642 89.82V88.91C97.0342 88.91 96.4242 89.14 96.1042 89.84Z" fill="#7A869A"/>
<path d="M98.9555 88.09C99.2755 88.09 99.5355 87.83 99.5355 87.51C99.5355 87.19 99.2755 86.92 98.9555 86.92C98.6255 86.92 98.3655 87.19 98.3655 87.51C98.3655 87.83 98.6255 88.09 98.9555 88.09ZM98.5155 94H99.3855V89H98.5155V94Z" fill="#7A869A"/>
<path d="M104.853 89V89.86C104.453 89.25 103.813 88.87 102.963 88.87C101.573 88.87 100.433 90.02 100.433 91.5C100.433 92.98 101.573 94.13 102.963 94.13C103.813 94.13 104.453 93.75 104.853 93.14V94H105.723V89H104.853ZM103.073 93.29C102.073 93.29 101.303 92.52 101.303 91.5C101.303 90.48 102.073 89.71 103.073 89.71C104.083 89.71 104.853 90.48 104.853 91.5C104.853 92.52 104.083 93.29 103.073 93.29Z" fill="#7A869A"/>
<path d="M107.041 94H107.911V86.7H107.041V94Z" fill="#7A869A"/>
<path d="M109.978 90.35C109.978 89.9 110.418 89.68 110.868 89.68C111.308 89.68 111.748 89.87 111.938 90.32L112.668 89.91C112.348 89.26 111.688 88.87 110.868 88.87C109.858 88.87 109.098 89.48 109.098 90.36C109.098 92.17 111.898 91.56 111.898 92.63C111.898 93.12 111.438 93.31 110.908 93.31C110.288 93.31 109.828 93.01 109.668 92.53L108.918 92.96C109.208 93.65 109.908 94.13 110.908 94.13C111.978 94.13 112.778 93.56 112.778 92.63C112.778 90.79 109.978 91.42 109.978 90.35Z" fill="#7A869A"/>
<g clip-path="url(#clip1_2554_585)">
<path d="M44.6668 150C44.6668 149.632 44.3684 149.333 44.0002 149.333C43.632 149.333 43.3335 149.632 43.3335 150V154C43.3335 154.252 43.4762 154.483 43.702 154.596L46.3687 155.93C46.698 156.094 47.0985 155.961 47.2631 155.631C47.4278 155.302 47.2943 154.902 46.965 154.737L44.6668 153.588V150Z" fill="#719F64"/>
<path fill-rule="evenodd" clip-rule="evenodd" d="M43.9998 146.667C39.9497 146.667 36.6665 149.95 36.6665 154C36.6665 158.05 39.9497 161.333 43.9998 161.333C48.0499 161.333 51.3332 158.05 51.3332 154C51.3332 149.95 48.0499 146.667 43.9998 146.667ZM37.9998 154C37.9998 150.686 40.6861 148 43.9998 148C47.3135 148 49.9998 150.686 49.9998 154C49.9998 157.314 47.3135 160 43.9998 160C40.6861 160 37.9998 157.314 37.9998 154Z" fill="#719F64"/>
</g>
<path d="M59.15 157.13C60.89 157.13 61.85 155.66 61.85 153.5C61.85 151.34 60.89 149.87 59.15 149.87C57.42 149.87 56.45 151.34 56.45 153.5C56.45 155.66 57.42 157.13 59.15 157.13ZM59.15 156.22C58.02 156.22 57.38 155.24 57.38 153.5C57.38 151.76 58.02 150.77 59.15 150.77C60.28 150.77 60.93 151.76 60.93 153.5C60.93 155.24 60.28 156.22 59.15 156.22Z" fill="#172B4D"/>
<path d="M67.3988 152.22C67.3988 150.83 66.3988 149.87 64.9888 149.87C63.5788 149.87 62.5788 150.83 62.5788 152.22C62.5788 153.61 63.5788 154.57 64.9888 154.57C65.1088 154.57 65.2188 154.56 65.3288 154.55L63.6688 157H64.7188L66.9788 153.63H66.9688C67.2488 153.24 67.3988 152.77 67.3988 152.22ZM63.4988 152.22C63.4988 151.34 64.1088 150.76 64.9888 150.76C65.8688 150.76 66.4788 151.33 66.4788 152.22C66.4788 153.11 65.8688 153.69 64.9888 153.69C64.1088 153.69 63.4988 153.11 63.4988 152.22Z" fill="#172B4D"/>
<path d="M68.8896 153.18C69.2596 153.18 69.5396 152.89 69.5396 152.53C69.5396 152.17 69.2596 151.88 68.8896 151.88C68.5296 151.88 68.2396 152.17 68.2396 152.53C68.2396 152.89 68.5296 153.18 68.8896 153.18ZM68.8896 157.11C69.2596 157.11 69.5396 156.82 69.5396 156.46C69.5396 156.1 69.2596 155.81 68.8896 155.81C68.5296 155.81 68.2396 156.1 68.2396 156.46C68.2396 156.82 68.5296 157.11 68.8896 157.11Z" fill="#172B4D"/>
<path d="M73.2713 152.87L74.7913 150.82V150H70.5913V150.87H73.7013L72.0813 153.06L72.4513 153.63H72.6913C73.5313 153.63 74.1613 154.09 74.1613 154.93C74.1613 155.76 73.5313 156.22 72.6913 156.22C71.9313 156.22 71.3813 155.9 71.1713 155.25L70.3913 155.71C70.7513 156.65 71.6613 157.13 72.6913 157.13C73.9513 157.13 75.0913 156.35 75.0913 154.93C75.0913 153.77 74.2813 153.06 73.2713 152.87Z" fill="#172B4D"/>
<path d="M78.6128 157.13C80.3528 157.13 81.3128 155.66 81.3128 153.5C81.3128 151.34 80.3528 149.87 78.6128 149.87C76.8828 149.87 75.9128 151.34 75.9128 153.5C75.9128 155.66 76.8828 157.13 78.6128 157.13ZM78.6128 156.22C77.4828 156.22 76.8428 155.24 76.8428 153.5C76.8428 151.76 77.4828 150.77 78.6128 150.77C79.7428 150.77 80.3928 151.76 80.3928 153.5C80.3928 155.24 79.7428 156.22 78.6128 156.22Z" fill="#172B4D"/>
<path d="M86.8189 157H87.8089L85.1989 150H84.1489L81.5389 157H82.5289L83.0989 155.43H86.2489L86.8189 157ZM83.4189 154.56L84.6689 151.11L85.9289 154.56H83.4189Z" fill="#172B4D"/>
<path d="M95.1847 150H94.1347L91.9147 153.7L89.6847 150H88.6347V157H89.5647V151.54L91.8547 155.34H91.9747L94.2647 151.53V157H95.1847V150Z" fill="#172B4D"/>
<path d="M99.1816 154.35H102.832V153.51H99.1816V154.35Z" fill="#172B4D"/>
<path d="M109.228 157.13C110.968 157.13 111.928 155.66 111.928 153.5C111.928 151.34 110.968 149.87 109.228 149.87C107.498 149.87 106.528 151.34 106.528 153.5C106.528 155.66 107.498 157.13 109.228 157.13ZM109.228 156.22C108.098 156.22 107.458 155.24 107.458 153.5C107.458 151.76 108.098 150.77 109.228 150.77C110.358 150.77 111.008 151.76 111.008 153.5C111.008 155.24 110.358 156.22 109.228 156.22Z" fill="#172B4D"/>
<path d="M115.048 152.73H114.028L114.148 150.87H117.138V150H113.308L113.048 153.63H115.028C115.858 153.63 116.488 154.09 116.488 154.93C116.488 155.76 115.858 156.22 115.008 156.22C114.248 156.22 113.678 155.87 113.488 155.18L112.698 155.63C113.038 156.63 113.978 157.13 115.008 157.13C116.268 157.13 117.408 156.35 117.408 154.93C117.408 153.5 116.298 152.73 115.048 152.73Z" fill="#172B4D"/>
<path d="M118.792 153.18C119.162 153.18 119.442 152.89 119.442 152.53C119.442 152.17 119.162 151.88 118.792 151.88C118.432 151.88 118.142 152.17 118.142 152.53C118.142 152.89 118.432 153.18 118.792 153.18ZM118.792 157.11C119.162 157.11 119.442 156.82 119.442 156.46C119.442 156.1 119.162 155.81 118.792 155.81C118.432 155.81 118.142 156.1 118.142 156.46C118.142 156.82 118.432 157.11 118.792 157.11Z" fill="#172B4D"/>
<path d="M123.174 152.87L124.694 150.82V150H120.494V150.87H123.604L121.984 153.06L122.354 153.63H122.594C123.434 153.63 124.064 154.09 124.064 154.93C124.064 155.76 123.434 156.22 122.594 156.22C121.834 156.22 121.284 155.9 121.074 155.25L120.294 155.71C120.654 156.65 121.564 157.13 122.594 157.13C123.854 157.13 124.994 156.35 124.994 154.93C124.994 153.77 124.184 153.06 123.174 152.87Z" fill="#172B4D"/>
<path d="M128.515 157.13C130.255 157.13 131.215 155.66 131.215 153.5C131.215 151.34 130.255 149.87 128.515 149.87C126.785 149.87 125.815 151.34 125.815 153.5C125.815 155.66 126.785 157.13 128.515 157.13ZM128.515 156.22C127.385 156.22 126.745 155.24 126.745 153.5C126.745 151.76 127.385 150.77 128.515 150.77C129.645 150.77 130.295 151.76 130.295 153.5C130.295 155.24 129.645 156.22 128.515 156.22Z" fill="#172B4D"/>
<path d="M134.954 150H132.414V157H133.344V154.5H134.954C136.244 154.5 137.214 153.52 137.214 152.25C137.214 150.97 136.244 150 134.954 150ZM134.954 153.63H133.344V150.87H134.954C135.724 150.87 136.294 151.45 136.294 152.25C136.294 153.04 135.724 153.63 134.954 153.63Z" fill="#172B4D"/>
<path d="M144.862 150H143.812L141.592 153.7L139.362 150H138.312V157H139.242V151.54L141.532 155.34H141.652L143.942 151.53V157H144.862V150Z" fill="#172B4D"/>
<path fill-rule="evenodd" clip-rule="evenodd" d="M47.3334 179.333C47.3334 178.965 47.0349 178.667 46.6667 178.667C46.2985 178.667 46 178.965 46 179.333V180H42V179.333C42 178.965 41.7016 178.667 41.3334 178.667C40.9652 178.667 40.6667 178.965 40.6667 179.333V180H39.3334C38.2288 180 37.3334 180.895 37.3334 182V191.333C37.3334 192.438 38.2288 193.333 39.3334 193.333H48.6667C49.7713 193.333 50.6667 192.438 50.6667 191.333V182C50.6667 180.895 49.7713 180 48.6667 180H47.3334V179.333ZM49.3334 184V182C49.3334 181.632 49.0349 181.333 48.6667 181.333H47.3334V182C47.3334 182.368 47.0349 182.667 46.6667 182.667C46.2985 182.667 46 182.368 46 182V181.333H42V182C42 182.368 41.7016 182.667 41.3334 182.667C40.9652 182.667 40.6667 182.368 40.6667 182V181.333H39.3334C38.9652 181.333 38.6667 181.632 38.6667 182V184H49.3334ZM38.6667 185.333H49.3334V191.333C49.3334 191.702 49.0349 192 48.6667 192H39.3334C38.9652 192 38.6667 191.702 38.6667 191.333V185.333Z" fill="#719F64"/>
<path d="M59.01 189.13C60.44 189.13 61.43 188.35 61.43 187.12C61.43 185.77 60.28 185.41 59.06 185.01C58.08 184.7 57.59 184.46 57.59 183.81C57.59 183.17 58.11 182.77 58.86 182.77C59.71 182.77 60.2 183.25 60.45 183.85L61.23 183.4C60.84 182.52 60.01 181.87 58.86 181.87C57.69 181.87 56.66 182.59 56.66 183.85C56.66 185.15 57.74 185.5 58.86 185.86C59.89 186.18 60.51 186.42 60.51 187.14C60.51 187.77 60.02 188.22 59.03 188.22C58.01 188.22 57.41 187.72 57.16 186.95L56.36 187.41C56.73 188.46 57.68 189.13 59.01 189.13Z" fill="#172B4D"/>
<path d="M65.8912 184V186.65C65.8912 187.83 65.2412 188.3 64.4412 188.3C63.6712 188.3 63.2012 187.84 63.2012 187.02V184H62.3312V187.07C62.3312 188.35 63.1012 189.13 64.2712 189.13C64.9712 189.13 65.5212 188.87 65.8912 188.28V189H66.7612V184H65.8912Z" fill="#172B4D"/>
<path d="M70.5758 183.87C69.8758 183.87 69.3258 184.13 68.9558 184.72V184H68.0858V189H68.9558V186.35C68.9558 185.17 69.6058 184.7 70.4058 184.7C71.1758 184.7 71.6458 185.16 71.6458 185.98V189H72.5158V185.93C72.5158 184.65 71.7458 183.87 70.5758 183.87Z" fill="#172B4D"/>
<path d="M75.0303 187.97H74.0303L73.6303 190.4H74.3803L75.0303 187.97Z" fill="#172B4D"/>
<path d="M80.0796 182L78.2396 182.64L78.4696 183.44L79.9596 183V189H80.8796V182H80.0796Z" fill="#172B4D"/>
<path d="M85.744 185.38C86.254 185.06 86.604 184.54 86.604 183.85C86.604 182.51 85.544 181.87 84.434 181.87C83.334 181.87 82.274 182.51 82.274 183.85C82.274 184.54 82.624 185.06 83.134 185.38C82.464 185.72 82.044 186.32 82.044 187.08C82.044 188.39 83.074 189.13 84.434 189.13C85.804 189.13 86.834 188.39 86.834 187.08C86.834 186.32 86.414 185.72 85.744 185.38ZM84.434 182.76C85.094 182.76 85.674 183.09 85.674 183.87C85.674 184.61 85.094 184.99 84.434 184.99C83.784 184.99 83.194 184.61 83.194 183.87C83.194 183.09 83.784 182.76 84.434 182.76ZM84.434 188.24C83.584 188.24 82.964 187.83 82.964 187.02C82.964 186.22 83.584 185.81 84.434 185.81C85.294 185.81 85.914 186.22 85.914 187.02C85.914 187.83 85.294 188.24 84.434 188.24Z" fill="#172B4D"/>
<path d="M92.2809 189.13C93.5609 189.13 94.6309 188.41 94.6309 186.95V182H93.7109V186.95C93.7109 187.82 93.1409 188.22 92.2809 188.22C91.6009 188.22 91.1009 187.98 90.8809 187.42L90.0909 187.88C90.4609 188.71 91.2909 189.13 92.2809 189.13Z" fill="#172B4D"/>
<path d="M99.3971 184V186.65C99.3971 187.83 98.7471 188.3 97.9471 188.3C97.1771 188.3 96.7071 187.84 96.7071 187.02V184H95.8371V187.07C95.8371 188.35 96.6071 189.13 97.7771 189.13C98.4771 189.13 99.0271 188.87 99.3971 188.28V189H100.267V184H99.3971Z" fill="#172B4D"/>
<path d="M101.592 189H102.462V181.7H101.592V189Z" fill="#172B4D"/>
<path d="M105.989 189H110.509V188.1H107.339L109.129 186.32C109.819 185.63 110.379 184.88 110.379 184.01C110.379 182.63 109.289 181.87 108.199 181.87C107.289 181.87 106.439 182.32 105.989 183.25L106.769 183.71C107.069 183.08 107.569 182.77 108.209 182.77C108.859 182.77 109.449 183.2 109.449 184.02C109.449 184.61 109.009 185.17 108.459 185.72L105.989 188.24V189Z" fill="#172B4D"/>
<path d="M113.955 189.13C115.695 189.13 116.655 187.66 116.655 185.5C116.655 183.34 115.695 181.87 113.955 181.87C112.225 181.87 111.255 183.34 111.255 185.5C111.255 187.66 112.225 189.13 113.955 189.13ZM113.955 188.22C112.825 188.22 112.185 187.24 112.185 185.5C112.185 183.76 112.825 182.77 113.955 182.77C115.085 182.77 115.735 183.76 115.735 185.5C115.735 187.24 115.085 188.22 113.955 188.22Z" fill="#172B4D"/>
<path d="M117.337 189H121.857V188.1H118.687L120.477 186.32C121.167 185.63 121.727 184.88 121.727 184.01C121.727 182.63 120.637 181.87 119.547 181.87C118.637 181.87 117.787 182.32 117.337 183.25L118.117 183.71C118.417 183.08 118.917 182.77 119.557 182.77C120.207 182.77 120.797 183.2 120.797 184.02C120.797 184.61 120.357 185.17 119.807 185.72L117.337 188.24V189Z" fill="#172B4D"/>
<path d="M125.302 189.13C127.042 189.13 128.002 187.66 128.002 185.5C128.002 183.34 127.042 181.87 125.302 181.87C123.572 181.87 122.602 183.34 122.602 185.5C122.602 187.66 123.572 189.13 125.302 189.13ZM125.302 188.22C124.172 188.22 123.532 187.24 123.532 185.5C123.532 183.76 124.172 182.77 125.302 182.77C126.432 182.77 127.082 183.76 127.082 185.5C127.082 187.24 126.432 188.22 125.302 188.22Z" fill="#172B4D"/>
<path d="M20 246H212V280C212 286.627 206.627 292 200 292H32C25.3726 292 20 286.627 20 280V246Z" fill="#5E8553"/>
<path d="M74.8853 268.644C75.3773 268.248 75.6773 267.684 75.6773 266.964C75.6773 265.56 74.5373 264.6 73.1213 264.6H69.8093V273H73.3733C74.8253 273 75.9893 272.004 75.9893 270.564C75.9893 269.688 75.5573 269.028 74.8853 268.644ZM73.1213 266.148C73.6493 266.148 74.0213 266.544 74.0213 267.072C74.0213 267.6 73.6373 267.996 73.1213 267.996H71.4653V266.148H73.1213ZM73.3733 271.452H71.4653V269.472H73.3733C73.9373 269.472 74.3453 269.892 74.3453 270.456C74.3453 271.032 73.9373 271.452 73.3733 271.452Z" fill="#BEE6A5"/>
<path d="M82.047 273.168C84.471 273.168 86.415 271.248 86.415 268.8C86.415 266.34 84.471 264.432 82.047 264.432C79.623 264.432 77.691 266.34 77.691 268.8C77.691 271.248 79.623 273.168 82.047 273.168ZM82.047 271.548C80.523 271.548 79.335 270.408 79.335 268.8C79.335 267.18 80.523 266.04 82.047 266.04C83.571 266.04 84.759 267.18 84.759 268.8C84.759 270.408 83.571 271.548 82.047 271.548Z" fill="#BEE6A5"/>
<path d="M92.5509 273.168C94.9749 273.168 96.9189 271.248 96.9189 268.8C96.9189 266.34 94.9749 264.432 92.5509 264.432C90.1269 264.432 88.1949 266.34 88.1949 268.8C88.1949 271.248 90.1269 273.168 92.5509 273.168ZM92.5509 271.548C91.0269 271.548 89.8389 270.408 89.8389 268.8C89.8389 267.18 91.0269 266.04 92.5509 266.04C94.0749 266.04 95.2629 267.18 95.2629 268.8C95.2629 270.408 94.0749 271.548 92.5509 271.548Z" fill="#BEE6A5"/>
<path d="M105.647 273L102.419 268.68L105.527 264.6H103.619L100.739 268.308V264.6H99.0828V273H100.739V269.064L103.739 273H105.647Z" fill="#BEE6A5"/>
<path d="M117.022 264.6H110.842V266.184H113.098V273H114.754V266.184H117.022V264.6Z" fill="#BEE6A5"/>
<path d="M118.946 264.6V273H120.602V264.6H118.946Z" fill="#BEE6A5"/>
<path d="M127.141 273.168C128.689 273.168 130.045 272.388 130.753 271.188L129.325 270.36C128.929 271.092 128.101 271.548 127.141 271.548C125.497 271.548 124.417 270.408 124.417 268.8C124.417 267.18 125.497 266.04 127.141 266.04C128.101 266.04 128.917 266.496 129.325 267.24L130.753 266.412C130.033 265.212 128.677 264.432 127.141 264.432C124.597 264.432 122.773 266.34 122.773 268.8C122.773 271.248 124.597 273.168 127.141 273.168Z" fill="#BEE6A5"/>
<path d="M139.334 273L136.106 268.68L139.214 264.6H137.306L134.426 268.308V264.6H132.77V273H134.426V269.064L137.426 273H139.334Z" fill="#BEE6A5"/>
<path d="M142.809 271.416V269.532H145.989V267.972H142.809V266.184H146.289V264.6H141.153V273H146.349V271.416H142.809Z" fill="#BEE6A5"/>
<path d="M154.072 264.6H147.892V266.184H150.148V273H151.804V266.184H154.072V264.6Z" fill="#BEE6A5"/>
<path d="M158.63 273.168C160.418 273.168 161.678 272.208 161.678 270.636C161.678 268.92 160.262 268.476 158.93 268.056C157.658 267.672 157.334 267.396 157.334 266.88C157.334 266.4 157.742 266.04 158.438 266.04C159.29 266.04 159.746 266.484 160.046 267.12L161.438 266.316C160.874 265.14 159.818 264.432 158.438 264.432C156.998 264.432 155.678 265.344 155.678 266.928C155.678 268.524 156.926 269.064 158.21 269.436C159.458 269.796 160.022 270.036 160.022 270.66C160.022 271.128 159.674 271.548 158.678 271.548C157.634 271.548 157.046 271.044 156.746 270.264L155.33 271.092C155.786 272.34 156.914 273.168 158.63 273.168Z" fill="#BEE6A5"/>
<path fill-rule="evenodd" clip-rule="evenodd" d="M36 121.5C36 121.224 36.2239 121 36.5 121H36.9969C37.273 121 37.4969 121.224 37.4969 121.5C37.4969 121.776 37.273 122 36.9969 122H36.5C36.2239 122 36 121.776 36 121.5ZM40.4719 121.5C40.4719 121.224 40.6957 121 40.9719 121H41.9656C42.2418 121 42.4656 121.224 42.4656 121.5C42.4656 121.776 42.2418 122 41.9656 122H40.9719C40.6957 122 40.4719 121.776 40.4719 121.5ZM45.4406 121.5C45.4406 121.224 45.6645 121 45.9406 121H46.9344C47.2105 121 47.4344 121.224 47.4344 121.5C47.4344 121.776 47.2105 122 46.9344 122H45.9406C45.6645 122 45.4406 121.776 45.4406 121.5ZM50.4094 121.5C50.4094 121.224 50.6332 121 50.9094 121H51.9031C52.1793 121 52.4031 121.224 52.4031 121.5C52.4031 121.776 52.1793 122 51.9031 122H50.9094C50.6332 122 50.4094 121.776 50.4094 121.5ZM55.3781 121.5C55.3781 121.224 55.602 121 55.8781 121H56.8719C57.148 121 57.3719 121.224 57.3719 121.5C57.3719 121.776 57.148 122 56.8719 122H55.8781C55.602 122 55.3781 121.776 55.3781 121.5ZM60.3469 121.5C60.3469 121.224 60.5707 121 60.8469 121H61.8406C62.1168 121 62.3406 121.224 62.3406 121.5C62.3406 121.776 62.1168 122 61.8406 122H60.8469C60.5707 122 60.3469 121.776 60.3469 121.5ZM65.3156 121.5C65.3156 121.224 65.5395 121 65.8156 121H66.8094C67.0855 121 67.3094 121.224 67.3094 121.5C67.3094 121.776 67.0855 122 66.8094 122H65.8156C65.5395 122 65.3156 121.776 65.3156 121.5ZM70.2844 121.5C70.2844 121.224 70.5082 121 70.7844 121H71.7781C72.0543 121 72.2781 121.224 72.2781 121.5C72.2781 121.776 72.0543 122 71.7781 122H70.7844C70.5082 122 70.2844 121.776 70.2844 121.5ZM75.2531 121.5C75.2531 121.224 75.477 121 75.7531 121H76.7469C77.023 121 77.2469 121.224 77.2469 121.5C77.2469 121.776 77.023 122 76.7469 122H75.7531C75.477 122 75.2531 121.776 75.2531 121.5ZM80.2219 121.5C80.2219 121.224 80.4457 121 80.7219 121H81.7156C81.9918 121 82.2156 121.224 82.2156 121.5C82.2156 121.776 81.9918 122 81.7156 122H80.7219C80.4457 122 80.2219 121.776 80.2219 121.5ZM85.1906 121.5C85.1906 121.224 85.4145 121 85.6906 121H86.6844C86.9605 121 87.1844 121.224 87.1844 121.5C87.1844 121.776 86.9605 122 86.6844 122H85.6906C85.4145 122 85.1906 121.776 85.1906 121.5ZM90.1594 121.5C90.1594 121.224 90.3832 121 90.6594 121H91.6531C91.9293 121 92.1531 121.224 92.1531 121.5C92.1531 121.776 91.9293 122 91.6531 122H90.6594C90.3832 122 90.1594 121.776 90.1594 121.5ZM95.1281 121.5C95.1281 121.224 95.352 121 95.6281 121H96.6219C96.898 121 97.1219 121.224 97.1219 121.5C97.1219 121.776 96.898 122 96.6219 122H95.6281C95.352 122 95.1281 121.776 95.1281 121.5ZM100.097 121.5C100.097 121.224 100.321 121 100.597 121H101.591C101.867 121 102.091 121.224 102.091 121.5C102.091 121.776 101.867 122 101.591 122H100.597C100.321 122 100.097 121.776 100.097 121.5ZM105.066 121.5C105.066 121.224 105.289 121 105.566 121H106.559C106.836 121 107.059 121.224 107.059 121.5C107.059 121.776 106.836 122 106.559 122H105.566C105.289 122 105.066 121.776 105.066 121.5ZM110.034 121.5C110.034 121.224 110.258 121 110.534 121H111.528C111.804 121 112.028 121.224 112.028 121.5C112.028 121.776 111.804 122 111.528 122H110.534C110.258 122 110.034 121.776 110.034 121.5ZM115.003 121.5C115.003 121.224 115.227 121 115.503 121H116.497C116.773 121 116.997 121.224 116.997 121.5C116.997 121.776 116.773 122 116.497 122H115.503C115.227 122 115.003 121.776 115.003 121.5ZM119.972 121.5C119.972 121.224 120.196 121 120.472 121H121.466C121.742 121 121.966 121.224 121.966 121.5C121.966 121.776 121.742 122 121.466 122H120.472C120.196 122 119.972 121.776 119.972 121.5ZM124.941 121.5C124.941 121.224 125.164 121 125.441 121H126.434C126.711 121 126.934 121.224 126.934 121.5C126.934 121.776 126.711 122 126.434 122H125.441C125.164 122 124.941 121.776 124.941 121.5ZM129.909 121.5C129.909 121.224 130.133 121 130.409 121H131.403C131.679 121 131.903 121.224 131.903 121.5C131.903 121.776 131.679 122 131.403 122H130.409C130.133 122 129.909 121.776 129.909 121.5ZM134.878 121.5C134.878 121.224 135.102 121 135.378 121H136.372C136.648 121 136.872 121.224 136.872 121.5C136.872 121.776 136.648 122 136.372 122H135.378C135.102 122 134.878 121.776 134.878 121.5ZM139.847 121.5C139.847 121.224 140.071 121 140.347 121H141.341C141.617 121 141.841 121.224 141.841 121.5C141.841 121.776 141.617 122 141.341 122H140.347C140.071 122 139.847 121.776 139.847 121.5ZM144.816 121.5C144.816 121.224 145.039 121 145.316 121H146.309C146.586 121 146.809 121.224 146.809 121.5C146.809 121.776 146.586 122 146.309 122H145.316C145.039 122 144.816 121.776 144.816 121.5ZM149.784 121.5C149.784 121.224 150.008 121 150.284 121H151.278C151.554 121 151.778 121.224 151.778 121.5C151.778 121.776 151.554 122 151.278 122H150.284C150.008 122 149.784 121.776 149.784 121.5ZM154.753 121.5C154.753 121.224 154.977 121 155.253 121H156.247C156.523 121 156.747 121.224 156.747 121.5C156.747 121.776 156.523 122 156.247 122H155.253C154.977 122 154.753 121.776 154.753 121.5ZM159.722 121.5C159.722 121.224 159.946 121 160.222 121H161.216C161.492 121 161.716 121.224 161.716 121.5C161.716 121.776 161.492 122 161.216 122H160.222C159.946 122 159.722 121.776 159.722 121.5ZM164.691 121.5C164.691 121.224 164.914 121 165.191 121H166.184C166.461 121 166.684 121.224 166.684 121.5C166.684 121.776 166.461 122 166.184 122H165.191C164.914 122 164.691 121.776 164.691 121.5ZM169.659 121.5C169.659 121.224 169.883 121 170.159 121H171.153C171.429 121 171.653 121.224 171.653 121.5C171.653 121.776 171.429 122 171.153 122H170.159C169.883 122 169.659 121.776 169.659 121.5ZM174.628 121.5C174.628 121.224 174.852 121 175.128 121H176.122C176.398 121 176.622 121.224 176.622 121.5C176.622 121.776 176.398 122 176.122 122H175.128C174.852 122 174.628 121.776 174.628 121.5ZM179.597 121.5C179.597 121.224 179.821 121 180.097 121H181.091C181.367 121 181.591 121.224 181.591 121.5C181.591 121.776 181.367 122 181.091 122H180.097C179.821 122 179.597 121.776 179.597 121.5ZM184.566 121.5C184.566 121.224 184.789 121 185.066 121H186.059C186.336 121 186.559 121.224 186.559 121.5C186.559 121.776 186.336 122 186.059 122H185.066C184.789 122 184.566 121.776 184.566 121.5ZM189.534 121.5C189.534 121.224 189.758 121 190.034 121H191.028C191.304 121 191.528 121.224 191.528 121.5C191.528 121.776 191.304 122 191.028 122H190.034C189.758 122 189.534 121.776 189.534 121.5ZM194.503 121.5C194.503 121.224 194.727 121 195.003 121H195.5C195.776 121 196 121.224 196 121.5C196 121.776 195.776 122 195.5 122H195.003C194.727 122 194.503 121.776 194.503 121.5Z" fill="#C1C7D0"/>
</g>
<defs>
<filter id="filter0_d_2554_585" x="0" y="0" width="232" height="322" filterUnits="userSpaceOnUse" color-interpolation-filters="sRGB">
<feFlood flood-opacity="0" result="BackgroundImageFix"/>
<feColorMatrix in="SourceAlpha" type="matrix" values="0 0 0 0 0 0 0 0 0 0 0 0 0 0 0 0 0 0 127 0" result="hardAlpha"/>
<feOffset dy="10"/>
<feGaussianBlur stdDeviation="10"/>
<feColorMatrix type="matrix" values="0 0 0 0 0.109804 0 0 0 0 0.172549 0 0 0 0 0.25098 0 0 0 0.08 0"/>
<feBlend mode="normal" in2="BackgroundImageFix" result="effect1_dropShadow_2554_585"/>
<feBlend mode="normal" in="SourceGraphic" in2="effect1_dropShadow_2554_585" result="shape"/>
</filter>
<clipPath id="clip0_2554_585">
<rect width="192" height="282" fill="white" transform="translate(20 10)"/>
</clipPath>
<clipPath id="clip1_2554_585">
<rect width="16" height="16" fill="white" transform="translate(36 146)"/>
</clipPath>
</defs>
</svg>
