<svg width="259" height="80" viewBox="0 0 259 80" fill="none" xmlns="http://www.w3.org/2000/svg">
<g filter="url(#filter0_d_2554_763)">
<rect x="12.5" y="4" width="234" height="56" rx="28" fill="white"/>
<g clip-path="url(#clip0_2554_763)">
<path d="M40.5 42C46.023 42 50.5 37.523 50.5 32C50.5 26.477 46.023 22 40.5 22C34.977 22 30.5 26.477 30.5 32C30.5 37.523 34.977 42 40.5 42ZM40.5 44C33.873 44 28.5 38.627 28.5 32C28.5 25.373 33.873 20 40.5 20C47.127 20 52.5 25.373 52.5 32C52.5 38.627 47.127 44 40.5 44Z" fill="#6B7280"/>
<path d="M38.5 37L44.5 32L38.5 27V37Z" fill="#6B7280"/>
</g>
<path d="M69.8638 37.192C69.2664 37.192 68.6904 37.128 68.1358 37C67.5811 36.8827 67.0904 36.6907 66.6638 36.424C66.2371 36.1467 65.9011 35.8 65.6558 35.384C65.4104 34.9573 65.2878 34.4507 65.2878 33.864C65.2878 33.8 65.2878 33.7413 65.2878 33.688C65.2984 33.624 65.3038 33.5707 65.3038 33.528H67.0958C67.0958 33.56 67.0904 33.608 67.0798 33.672C67.0798 33.736 67.0798 33.7893 67.0798 33.832C67.0798 34.2267 67.1971 34.5627 67.4318 34.84C67.6664 35.1173 67.9918 35.3253 68.4078 35.464C68.8344 35.6027 69.3198 35.672 69.8638 35.672C70.1624 35.672 70.4504 35.656 70.7278 35.624C71.0051 35.5813 71.2558 35.5227 71.4798 35.448C71.7144 35.3627 71.9171 35.2613 72.0878 35.144C72.2584 35.016 72.3918 34.8667 72.4878 34.696C72.5838 34.5253 72.6318 34.328 72.6318 34.104C72.6318 33.7627 72.5304 33.48 72.3278 33.256C72.1358 33.032 71.8691 32.8453 71.5278 32.696C71.1971 32.5467 70.8184 32.4133 70.3918 32.296C69.9758 32.1787 69.5438 32.0613 69.0958 31.944C68.6478 31.8267 68.2104 31.688 67.7838 31.528C67.3678 31.368 66.9891 31.176 66.6478 30.952C66.3171 30.7173 66.0504 30.4293 65.8478 30.088C65.6558 29.736 65.5598 29.3093 65.5598 28.808C65.5598 28.328 65.6611 27.9013 65.8638 27.528C66.0664 27.1547 66.3598 26.8453 66.7438 26.6C67.1278 26.344 67.5864 26.152 68.1198 26.024C68.6531 25.896 69.2558 25.832 69.9278 25.832C70.5038 25.832 71.0478 25.896 71.5598 26.024C72.0718 26.1413 72.5198 26.328 72.9038 26.584C73.2878 26.84 73.5864 27.1653 73.7998 27.56C74.0238 27.9547 74.1358 28.424 74.1358 28.968V29.16H72.3598V28.952C72.3598 28.6107 72.2584 28.3227 72.0558 28.088C71.8531 27.8533 71.5704 27.672 71.2078 27.544C70.8451 27.416 70.4238 27.352 69.9438 27.352C69.3784 27.352 68.9038 27.4107 68.5198 27.528C68.1358 27.6347 67.8424 27.7893 67.6398 27.992C67.4478 28.184 67.3518 28.4187 67.3518 28.696C67.3518 29.0053 67.4531 29.2613 67.6558 29.464C67.8584 29.656 68.1251 29.8213 68.4558 29.96C68.7971 30.0987 69.1758 30.2267 69.5918 30.344C70.0184 30.4507 70.4504 30.568 70.8878 30.696C71.3358 30.8133 71.7678 30.952 72.1838 31.112C72.6104 31.272 72.9891 31.4693 73.3198 31.704C73.6611 31.9387 73.9331 32.232 74.1358 32.584C74.3384 32.9253 74.4398 33.3467 74.4398 33.848C74.4398 34.6373 74.2424 35.2827 73.8478 35.784C73.4531 36.2747 72.9091 36.632 72.2158 36.856C71.5331 37.08 70.7491 37.192 69.8638 37.192ZM79.9425 37.192C79.0785 37.192 78.3532 37.0373 77.7665 36.728C77.1905 36.408 76.7532 35.9227 76.4545 35.272C76.1558 34.6213 76.0065 33.7947 76.0065 32.792C76.0065 31.7787 76.1558 30.952 76.4545 30.312C76.7532 29.6613 77.1958 29.1813 77.7825 28.872C78.3692 28.552 79.0998 28.392 79.9745 28.392C80.7745 28.392 81.4412 28.5467 81.9745 28.856C82.5185 29.1547 82.9292 29.6133 83.2065 30.232C83.4838 30.8507 83.6225 31.6293 83.6225 32.568V33.208H77.7185C77.7398 33.8053 77.8305 34.3067 77.9905 34.712C78.1505 35.1067 78.3905 35.4 78.7105 35.592C79.0412 35.7733 79.4572 35.864 79.9585 35.864C80.2678 35.864 80.5452 35.8267 80.7905 35.752C81.0358 35.6667 81.2438 35.5493 81.4145 35.4C81.5852 35.24 81.7185 35.0533 81.8145 34.84C81.9105 34.616 81.9585 34.3653 81.9585 34.088H83.5905C83.5905 34.5893 83.5052 35.032 83.3345 35.416C83.1638 35.8 82.9132 36.1253 82.5825 36.392C82.2625 36.648 81.8785 36.8453 81.4305 36.984C80.9825 37.1227 80.4865 37.192 79.9425 37.192ZM77.7505 31.992H81.8785C81.8785 31.576 81.8305 31.2293 81.7345 30.952C81.6492 30.664 81.5212 30.4293 81.3505 30.248C81.1798 30.0667 80.9772 29.9387 80.7425 29.864C80.5078 29.7787 80.2412 29.736 79.9425 29.736C79.4945 29.736 79.1105 29.816 78.7905 29.976C78.4812 30.136 78.2412 30.3867 78.0705 30.728C77.8998 31.0587 77.7932 31.48 77.7505 31.992ZM88.9619 37.192C88.0979 37.192 87.3725 37.0373 86.7859 36.728C86.2099 36.408 85.7725 35.9227 85.4739 35.272C85.1752 34.6213 85.0259 33.7947 85.0259 32.792C85.0259 31.7787 85.1752 30.952 85.4739 30.312C85.7725 29.6613 86.2152 29.1813 86.8019 28.872C87.3885 28.552 88.1192 28.392 88.9939 28.392C89.7939 28.392 90.4605 28.5467 90.9939 28.856C91.5379 29.1547 91.9485 29.6133 92.2259 30.232C92.5032 30.8507 92.6419 31.6293 92.6419 32.568V33.208H86.7379C86.7592 33.8053 86.8499 34.3067 87.0099 34.712C87.1699 35.1067 87.4099 35.4 87.7299 35.592C88.0605 35.7733 88.4765 35.864 88.9779 35.864C89.2872 35.864 89.5645 35.8267 89.8099 35.752C90.0552 35.6667 90.2632 35.5493 90.4339 35.4C90.6045 35.24 90.7379 35.0533 90.8339 34.84C90.9299 34.616 90.9779 34.3653 90.9779 34.088H92.6099C92.6099 34.5893 92.5245 35.032 92.3539 35.416C92.1832 35.8 91.9325 36.1253 91.6019 36.392C91.2819 36.648 90.8979 36.8453 90.4499 36.984C90.0019 37.1227 89.5059 37.192 88.9619 37.192ZM86.7699 31.992H90.8979C90.8979 31.576 90.8499 31.2293 90.7539 30.952C90.6685 30.664 90.5405 30.4293 90.3699 30.248C90.1992 30.0667 89.9965 29.9387 89.7619 29.864C89.5272 29.7787 89.2605 29.736 88.9619 29.736C88.5139 29.736 88.1299 29.816 87.8099 29.976C87.5005 30.136 87.2605 30.3867 87.0899 30.728C86.9192 31.0587 86.8125 31.48 86.7699 31.992ZM97.9345 27.128V25.432H99.5985V27.128H97.9345ZM97.9345 37V28.584H99.5985V37H97.9345ZM104.003 37.192C103.523 37.192 103.144 37.1013 102.867 36.92C102.6 36.728 102.408 36.488 102.291 36.2C102.184 35.9013 102.131 35.5867 102.131 35.256V29.96H101.075V28.584H102.163L102.467 26.232H103.795V28.584H105.315V29.96H103.795V35.064C103.795 35.3093 103.848 35.496 103.955 35.624C104.062 35.752 104.238 35.816 104.483 35.816H105.315V36.936C105.208 36.9787 105.075 37.016 104.915 37.048C104.766 37.0907 104.611 37.1227 104.451 37.144C104.291 37.176 104.142 37.192 104.003 37.192ZM110.383 27.128V25.432H112.047V27.128H110.383ZM110.383 37V28.584H112.047V37H110.383ZM114.356 37V28.584H115.732L115.876 29.784H115.988C116.19 29.4747 116.43 29.2187 116.708 29.016C116.985 28.8133 117.289 28.6587 117.62 28.552C117.961 28.4453 118.334 28.392 118.74 28.392C119.273 28.392 119.742 28.488 120.148 28.68C120.553 28.8613 120.868 29.16 121.092 29.576C121.326 29.992 121.444 30.552 121.444 31.256V37H119.78V31.512C119.78 31.192 119.737 30.9253 119.652 30.712C119.577 30.4987 119.465 30.328 119.316 30.2C119.166 30.072 118.99 29.9813 118.788 29.928C118.585 29.8747 118.361 29.848 118.116 29.848C117.732 29.848 117.38 29.944 117.06 30.136C116.75 30.3173 116.5 30.5733 116.308 30.904C116.116 31.2347 116.02 31.624 116.02 32.072V37H114.356ZM129.257 37.192C128.99 37.192 128.702 37.16 128.393 37.096C128.084 37.032 127.79 36.9147 127.513 36.744C127.246 36.5733 127.028 36.3387 126.857 36.04C126.686 35.7307 126.601 35.3307 126.601 34.84C126.601 34.264 126.734 33.7893 127.001 33.416C127.268 33.0427 127.641 32.7493 128.121 32.536C128.601 32.3227 129.172 32.1733 129.833 32.088C130.505 32.0027 131.236 31.96 132.025 31.96V31.128C132.025 30.8507 131.977 30.6053 131.881 30.392C131.796 30.1787 131.63 30.0133 131.385 29.896C131.15 29.7787 130.809 29.72 130.361 29.72C129.913 29.72 129.561 29.7787 129.305 29.896C129.06 30.0027 128.884 30.1413 128.777 30.312C128.681 30.472 128.633 30.648 128.633 30.84V31.08H127.033C127.022 31.0267 127.017 30.9733 127.017 30.92C127.017 30.8667 127.017 30.8027 127.017 30.728C127.017 30.2267 127.156 29.8053 127.433 29.464C127.721 29.112 128.121 28.8453 128.633 28.664C129.145 28.4827 129.737 28.392 130.409 28.392C131.134 28.392 131.737 28.4987 132.217 28.712C132.708 28.9147 133.076 29.208 133.321 29.592C133.566 29.976 133.689 30.44 133.689 30.984V35.256C133.689 35.4587 133.737 35.6027 133.833 35.688C133.94 35.7733 134.062 35.816 134.201 35.816H134.777V36.936C134.649 36.9893 134.489 37.0427 134.297 37.096C134.105 37.1493 133.881 37.176 133.625 37.176C133.337 37.176 133.092 37.1227 132.889 37.016C132.697 36.92 132.537 36.7813 132.409 36.6C132.292 36.408 132.212 36.1947 132.169 35.96H132.073C131.881 36.2053 131.646 36.424 131.369 36.616C131.102 36.7973 130.793 36.936 130.441 37.032C130.089 37.1387 129.694 37.192 129.257 37.192ZM129.721 35.816C130.052 35.816 130.356 35.768 130.633 35.672C130.921 35.5653 131.166 35.4213 131.369 35.24C131.572 35.048 131.732 34.824 131.849 34.568C131.966 34.3013 132.025 34.0133 132.025 33.704V33.144C131.289 33.144 130.644 33.1867 130.089 33.272C129.534 33.3573 129.102 33.5173 128.793 33.752C128.484 33.976 128.329 34.2907 128.329 34.696C128.329 34.9413 128.382 35.1493 128.489 35.32C128.596 35.48 128.756 35.6027 128.969 35.688C129.182 35.7733 129.433 35.816 129.721 35.816ZM139.43 37.192C138.587 37.192 137.883 37.0373 137.318 36.728C136.752 36.408 136.326 35.9227 136.038 35.272C135.76 34.6213 135.622 33.7947 135.622 32.792C135.622 31.7893 135.766 30.968 136.054 30.328C136.342 29.6773 136.768 29.192 137.334 28.872C137.91 28.552 138.614 28.392 139.446 28.392C140.022 28.392 140.523 28.4667 140.95 28.616C141.376 28.7547 141.739 28.968 142.038 29.256C142.336 29.5333 142.555 29.88 142.694 30.296C142.843 30.712 142.918 31.1867 142.918 31.72H141.238C141.238 31.272 141.174 30.904 141.046 30.616C140.918 30.328 140.72 30.1147 140.454 29.976C140.187 29.8267 139.84 29.752 139.414 29.752C138.966 29.752 138.587 29.8587 138.278 30.072C137.968 30.2747 137.734 30.5893 137.574 31.016C137.414 31.432 137.334 31.9813 137.334 32.664V32.936C137.334 33.5867 137.408 34.1307 137.558 34.568C137.718 34.9947 137.952 35.3147 138.262 35.528C138.582 35.7307 138.987 35.832 139.478 35.832C139.904 35.832 140.246 35.7573 140.502 35.608C140.768 35.448 140.966 35.224 141.094 34.936C141.232 34.6373 141.302 34.28 141.302 33.864H142.918C142.918 34.3653 142.843 34.8187 142.694 35.224C142.555 35.6293 142.336 35.9813 142.038 36.28C141.75 36.568 141.387 36.792 140.95 36.952C140.512 37.112 140.006 37.192 139.43 37.192ZM146.857 37.192C146.377 37.192 145.999 37.1013 145.721 36.92C145.455 36.728 145.263 36.488 145.145 36.2C145.039 35.9013 144.985 35.5867 144.985 35.256V29.96H143.929V28.584H145.017L145.321 26.232H146.649V28.584H148.169V29.96H146.649V35.064C146.649 35.3093 146.703 35.496 146.809 35.624C146.916 35.752 147.092 35.816 147.337 35.816H148.169V36.936C148.063 36.9787 147.929 37.016 147.769 37.048C147.62 37.0907 147.465 37.1227 147.305 37.144C147.145 37.176 146.996 37.192 146.857 37.192ZM149.796 27.128V25.432H151.46V27.128H149.796ZM149.796 37V28.584H151.46V37H149.796ZM157.353 37.192C156.478 37.192 155.737 37.0373 155.129 36.728C154.532 36.408 154.078 35.9227 153.769 35.272C153.47 34.6213 153.321 33.7947 153.321 32.792C153.321 31.7787 153.47 30.952 153.769 30.312C154.078 29.6613 154.532 29.1813 155.129 28.872C155.737 28.552 156.478 28.392 157.353 28.392C158.249 28.392 158.996 28.552 159.593 28.872C160.19 29.1813 160.638 29.6613 160.937 30.312C161.246 30.952 161.401 31.7787 161.401 32.792C161.401 33.7947 161.246 34.6213 160.937 35.272C160.638 35.9227 160.19 36.408 159.593 36.728C158.996 37.0373 158.249 37.192 157.353 37.192ZM157.353 35.816C157.886 35.816 158.324 35.7147 158.665 35.512C159.006 35.2987 159.257 34.9787 159.417 34.552C159.588 34.1253 159.673 33.5867 159.673 32.936V32.648C159.673 31.9973 159.588 31.4587 159.417 31.032C159.257 30.6053 159.006 30.2907 158.665 30.088C158.324 29.8747 157.886 29.768 157.353 29.768C156.83 29.768 156.398 29.8747 156.057 30.088C155.716 30.2907 155.46 30.6053 155.289 31.032C155.129 31.4587 155.049 31.9973 155.049 32.648V32.936C155.049 33.5867 155.129 34.1253 155.289 34.552C155.46 34.9787 155.716 35.2987 156.057 35.512C156.398 35.7147 156.83 35.816 157.353 35.816ZM163.257 37V28.584H164.633L164.777 29.784H164.889C165.092 29.4747 165.332 29.2187 165.609 29.016C165.886 28.8133 166.19 28.6587 166.521 28.552C166.862 28.4453 167.236 28.392 167.641 28.392C168.174 28.392 168.644 28.488 169.049 28.68C169.454 28.8613 169.769 29.16 169.993 29.576C170.228 29.992 170.345 30.552 170.345 31.256V37H168.681V31.512C168.681 31.192 168.638 30.9253 168.553 30.712C168.478 30.4987 168.366 30.328 168.217 30.2C168.068 30.072 167.892 29.9813 167.689 29.928C167.486 29.8747 167.262 29.848 167.017 29.848C166.633 29.848 166.281 29.944 165.961 30.136C165.652 30.3173 165.401 30.5733 165.209 30.904C165.017 31.2347 164.921 31.624 164.921 32.072V37H163.257ZM178.83 39.512C177.934 38.52 177.246 37.4107 176.766 36.184C176.286 34.9467 176.046 33.6667 176.046 32.344C176.046 31.0427 176.286 29.7733 176.766 28.536C177.246 27.2987 177.934 26.1947 178.83 25.224H179.902C179.486 25.8747 179.102 26.5893 178.75 27.368C178.409 28.1467 178.137 28.9627 177.934 29.816C177.742 30.6587 177.646 31.5013 177.646 32.344C177.646 33.1973 177.742 34.0507 177.934 34.904C178.137 35.7573 178.409 36.5733 178.75 37.352C179.102 38.1413 179.486 38.8613 179.902 39.512H178.83ZM181.621 37V36.504C181.621 36.0453 181.707 35.624 181.877 35.24C182.059 34.8453 182.293 34.488 182.581 34.168C182.88 33.848 183.211 33.544 183.573 33.256C183.936 32.968 184.304 32.6907 184.677 32.424C185.168 32.072 185.621 31.72 186.037 31.368C186.453 31.016 186.789 30.6373 187.045 30.232C187.312 29.8267 187.445 29.3733 187.445 28.872C187.445 28.584 187.376 28.3173 187.237 28.072C187.109 27.8267 186.907 27.6293 186.629 27.48C186.352 27.32 185.989 27.24 185.541 27.24C185.051 27.24 184.651 27.3253 184.341 27.496C184.043 27.656 183.819 27.88 183.669 28.168C183.531 28.4453 183.461 28.7707 183.461 29.144V29.8H181.797C181.787 29.7467 181.776 29.6667 181.765 29.56C181.755 29.4533 181.749 29.32 181.749 29.16C181.749 28.3707 181.925 27.736 182.277 27.256C182.64 26.7653 183.115 26.408 183.701 26.184C184.299 25.9493 184.939 25.832 185.621 25.832C186.283 25.832 186.837 25.928 187.285 26.12C187.744 26.3013 188.107 26.5467 188.373 26.856C188.651 27.1653 188.848 27.5067 188.965 27.88C189.093 28.2533 189.157 28.616 189.157 28.968C189.157 29.48 189.067 29.944 188.885 30.36C188.715 30.776 188.469 31.1653 188.149 31.528C187.84 31.8907 187.472 32.2427 187.045 32.584C186.629 32.9147 186.181 33.2453 185.701 33.576C185.403 33.7787 185.109 33.9867 184.821 34.2C184.544 34.4133 184.299 34.632 184.085 34.856C183.872 35.0693 183.728 35.2773 183.653 35.48H189.221V37H181.621ZM194.635 37V28.584H196.011L196.155 29.784H196.267C196.459 29.4747 196.678 29.2187 196.923 29.016C197.179 28.8133 197.462 28.6587 197.771 28.552C198.091 28.4453 198.432 28.392 198.795 28.392C199.318 28.392 199.771 28.4987 200.155 28.712C200.55 28.9253 200.848 29.2827 201.051 29.784H201.163C201.355 29.4853 201.579 29.2347 201.835 29.032C202.091 28.8187 202.379 28.6587 202.699 28.552C203.03 28.4453 203.382 28.392 203.755 28.392C204.256 28.392 204.699 28.4827 205.083 28.664C205.467 28.8347 205.771 29.128 205.995 29.544C206.219 29.9493 206.331 30.4933 206.331 31.176V37H204.667V31.48C204.667 31.16 204.63 30.8987 204.555 30.696C204.48 30.4827 204.379 30.3173 204.251 30.2C204.123 30.072 203.968 29.9813 203.787 29.928C203.606 29.8747 203.408 29.848 203.195 29.848C202.843 29.848 202.528 29.944 202.251 30.136C201.974 30.3173 201.75 30.5733 201.579 30.904C201.408 31.2347 201.323 31.624 201.323 32.072V37H199.659V31.48C199.659 31.16 199.622 30.8987 199.547 30.696C199.472 30.4827 199.371 30.3173 199.243 30.2C199.115 30.072 198.96 29.9813 198.779 29.928C198.598 29.8747 198.406 29.848 198.203 29.848C197.851 29.848 197.531 29.944 197.243 30.136C196.955 30.3173 196.726 30.5733 196.555 30.904C196.384 31.2347 196.299 31.624 196.299 32.072V37H194.635ZM208.561 27.128V25.432H210.225V27.128H208.561ZM208.561 37V28.584H210.225V37H208.561ZM212.533 37V28.584H213.909L214.053 29.784H214.165C214.368 29.4747 214.608 29.2187 214.885 29.016C215.163 28.8133 215.467 28.6587 215.797 28.552C216.139 28.4453 216.512 28.392 216.917 28.392C217.451 28.392 217.92 28.488 218.325 28.68C218.731 28.8613 219.045 29.16 219.269 29.576C219.504 29.992 219.621 30.552 219.621 31.256V37H217.957V31.512C217.957 31.192 217.915 30.9253 217.829 30.712C217.755 30.4987 217.643 30.328 217.493 30.2C217.344 30.072 217.168 29.9813 216.965 29.928C216.763 29.8747 216.539 29.848 216.293 29.848C215.909 29.848 215.557 29.944 215.237 30.136C214.928 30.3173 214.677 30.5733 214.485 30.904C214.293 31.2347 214.197 31.624 214.197 32.072V37H212.533ZM222.617 25.24C223.524 26.232 224.212 27.3467 224.681 28.584C225.161 29.8107 225.401 31.0853 225.401 32.408C225.401 33.7093 225.161 34.9787 224.681 36.216C224.212 37.4427 223.524 38.5467 222.617 39.528H221.545C221.972 38.8773 222.356 38.1627 222.697 37.384C223.038 36.6053 223.305 35.7947 223.497 34.952C223.7 34.0987 223.801 33.2507 223.801 32.408C223.801 31.5547 223.7 30.7013 223.497 29.848C223.305 28.9947 223.038 28.1787 222.697 27.4C222.356 26.6107 221.972 25.8907 221.545 25.24H222.617Z" fill="#111827"/>
</g>
<defs>
<filter id="filter0_d_2554_763" x="0.5" y="0" width="258" height="80" filterUnits="userSpaceOnUse" color-interpolation-filters="sRGB">
<feFlood flood-opacity="0" result="BackgroundImageFix"/>
<feColorMatrix in="SourceAlpha" type="matrix" values="0 0 0 0 0 0 0 0 0 0 0 0 0 0 0 0 0 0 127 0" result="hardAlpha"/>
<feMorphology radius="4" operator="erode" in="SourceAlpha" result="effect1_dropShadow_2554_763"/>
<feOffset dy="8"/>
<feGaussianBlur stdDeviation="8"/>
<feColorMatrix type="matrix" values="0 0 0 0 0.109804 0 0 0 0 0.172549 0 0 0 0 0.25098 0 0 0 0.08 0"/>
<feBlend mode="normal" in2="BackgroundImageFix" result="effect1_dropShadow_2554_763"/>
<feBlend mode="normal" in="SourceGraphic" in2="effect1_dropShadow_2554_763" result="shape"/>
</filter>
<clipPath id="clip0_2554_763">
<rect width="24" height="24" fill="white" transform="translate(28.5 20)"/>
</clipPath>
</defs>
</svg>
