<svg width="80" height="80" viewBox="0 0 80 80" fill="none" xmlns="http://www.w3.org/2000/svg">
<rect width="80" height="80" rx="40" fill="white"/>
<g clip-path="url(#clip0_4045_705)">
<path d="M47.8156 25.1957V54.3624C47.8156 57.6259 50.0672 59.4444 52.4558 59.4444C54.6654 59.4444 57.0959 57.8977 57.0959 54.3624V25.4167C57.0959 22.4249 54.8863 20.5555 52.4558 20.5555C50.0252 20.5555 47.8156 22.6171 47.8156 25.1957Z" fill="#F9AB00"/>
<path d="M35.6629 40V54.3624C35.6629 57.626 37.9144 59.4445 40.303 59.4445C42.5126 59.4445 44.9432 57.8977 44.9432 54.3624V40.221C44.9432 37.2292 42.7336 35.3599 40.303 35.3599C37.8725 35.3599 35.6629 37.4214 35.6629 40Z" fill="#E37400"/>
<path d="M28.1502 59.4444C30.7129 59.4444 32.7904 57.3669 32.7904 54.8042C32.7904 52.2415 30.7129 50.1641 28.1502 50.1641C25.5876 50.1641 23.5101 52.2415 23.5101 54.8042C23.5101 57.3669 25.5876 59.4444 28.1502 59.4444Z" fill="#E37400"/>
</g>
<defs>
<clipPath id="clip0_4045_705">
<rect width="33.9394" height="40" fill="white" transform="translate(23.3333 20)"/>
</clipPath>
</defs>
</svg>
