<svg width="80" height="80" viewBox="0 0 80 80" fill="none" xmlns="http://www.w3.org/2000/svg">
<rect width="80" height="80" rx="40" fill="white"/>
<path d="M51.0448 32.6611V27.5702C51.7185 27.2555 52.289 26.7558 52.6897 26.1293C53.0904 25.5028 53.3049 24.7754 53.3082 24.0317V23.9127C53.3054 22.8734 52.8914 21.8774 52.1566 21.1425C51.4218 20.4076 50.426 19.9935 49.3869 19.9907H49.2679C48.2287 19.9935 47.233 20.4076 46.4982 21.1425C45.7634 21.8774 45.3493 22.8734 45.3466 23.9127V24.0317C45.3499 24.7754 45.5644 25.5028 45.9651 26.1293C46.3658 26.7558 46.9363 27.2555 47.61 27.5702V32.6717C45.673 32.9679 43.8486 33.7708 42.3216 34.999L28.3233 24.0952C28.5897 23.0974 28.5022 22.038 28.0757 21.0975C27.6492 20.1569 26.91 19.3933 25.9839 18.9364C25.0578 18.4796 24.002 18.3579 22.9963 18.5919C21.9906 18.826 21.097 19.4014 20.4677 20.2202C19.8384 21.039 19.5122 22.0506 19.5446 23.0829C19.5771 24.1152 19.9662 25.1043 20.6457 25.8819C21.3252 26.6596 22.2532 27.1777 23.2717 27.3481C24.2901 27.5184 25.3361 27.3306 26.2317 26.8165L39.9947 37.5325C38.7551 39.403 38.1083 41.604 38.139 43.848C38.1696 46.0919 38.8763 48.2744 40.1666 50.1104L35.9782 54.2995C35.642 54.1923 35.2918 54.1353 34.939 54.1302C34.2199 54.1302 33.517 54.3435 32.9191 54.743C32.3212 55.1426 31.8552 55.7105 31.58 56.375C31.3048 57.0394 31.2328 57.7706 31.3731 58.476C31.5134 59.1814 31.8597 59.8293 32.3681 60.3379C32.8766 60.8464 33.5244 61.1927 34.2297 61.3331C34.935 61.4734 35.666 61.4013 36.3304 61.1261C36.9947 60.8509 37.5625 60.3848 37.962 59.7868C38.3615 59.1888 38.5748 58.4858 38.5748 57.7666C38.5698 57.4137 38.5128 57.0634 38.4056 56.7272L42.549 52.5831C43.9015 53.6164 45.4723 54.3269 47.1412 54.6605C48.8102 54.994 50.5333 54.9418 52.179 54.5077C53.8248 54.0737 55.3495 53.2692 56.637 52.1559C57.9245 51.0426 58.9406 49.6498 59.6078 48.0838C60.275 46.5177 60.5757 44.82 60.4868 43.12C60.3979 41.4201 59.9219 39.763 59.095 38.2751C58.2682 36.7872 57.1123 35.508 55.7158 34.535C54.3192 33.5621 52.7189 32.9211 51.0369 32.6611H51.0448ZM49.3208 49.4333C48.1874 49.4307 47.0803 49.0922 46.1392 48.4605C45.1982 47.8287 44.4655 46.9322 44.0337 45.8842C43.6019 44.8361 43.4905 43.6836 43.7134 42.5722C43.9362 41.4608 44.4835 40.4404 45.286 39.64C46.0885 38.8395 47.1103 38.295 48.2221 38.0751C49.3339 37.8553 50.486 37.97 51.5326 38.4047C52.5793 38.8395 53.4737 39.5748 54.1027 40.5177C54.7317 41.4606 55.0671 42.5689 55.0666 43.7024C55.0666 45.2231 54.4626 46.6814 53.3876 47.7567C52.3125 48.8319 50.8544 49.436 49.334 49.436" fill="#FF7A59"/>
</svg>
